<?xml version="1.0" encoding="utf-8"?>
<!-- Generator: Adobe Illustrator 25.4.1, SVG Export Plug-In . SVG Version: 6.00 Build 0)  -->
<svg version="1.1" id="Layer_1" xmlns="http://www.w3.org/2000/svg" xmlns:xlink="http://www.w3.org/1999/xlink" x="0px" y="0px"
	 viewBox="0 0 348 104" style="enable-background:new 0 0 348 104;" xml:space="preserve">
<style type="text/css">
	.st0{fill:#132B4F;}
	.st1{fill:#FFCA06;}
	.st2{fill-rule:evenodd;clip-rule:evenodd;fill:#1A1A1A;}
	.st3{fill:#1A1A1A;}
	.st4{fill:#3A3A3A;}
	.st5{fill:none;stroke:#132B4F;stroke-width:0.3397;stroke-miterlimit:10;}
	.st6{fill:none;}
	.st7{fill:none;stroke:#3A3A3A;stroke-width:0.5332;stroke-miterlimit:10;}
</style>
<g>
	<g>
		<g>
			<g>
				<g>
					<g>
						<g>
							<g>
								<rect x="8.7" y="27.1" class="st1" width="126.9" height="35.6"/>
							</g>
						</g>
					</g>
				</g>
			</g>
			<g>
				<g>
					<g>
						<g>
							<g>
								<g>
									<path class="st2" d="M22.7,55.4l5.2-8.9h-3.6l1.7-2.9h8.3l-1.7,2.9h-2.8l-5.2,9C39.2,55.1,38,33,23.3,34.4L18,43.4h6.5
										l-1.7,2.9h-8.3l6.6-11.6C10.7,37.9,12,53.8,22.7,55.4 M24.5,32.8c16,0.3,16,23.9,0,24.2C8.5,56.7,8.5,33.1,24.5,32.8
										L24.5,32.8z"/>
								</g>
							</g>
						</g>
					</g>
				</g>
				<g>
					<g>
						<g>
							<g>
								<g>
									<path class="st3" d="M122.6,40.6l1.5,9.2c-0.7,1.1-1.7,2-2.9,1.3l-0.5,1.7c2,0.8,4.4-0.2,5.2-2.2l6-10.3h-2.5l-3.6,6.6l0,0
										l-0.9-6.6L122.6,40.6z M115.7,42.2h1.6c-0.8,3-2.3,8.6,2.9,7.2l0.4-1.8c-3.6,1.4-1.1-4-1-5.4h2l0.4-1.6h-2l0.6-2.6
										l-2.5,0.8l-0.4,1.8H116L115.7,42.2z M110.3,49.4h2.3l2.7-12.9h-2.2L110.3,49.4z M103,47c0.1-1.8,2.5-1.6,3.8-1.6
										C106.9,47.2,103.8,49.3,103,47z M106.2,49.4h1.9c1.2-5.4,2.5-11-5.4-8.5l-0.3,1.8c1.4-0.8,5.3-1.4,4.7,1.2
										c-9.7-1.3-6.6,9.8-0.7,4.2l0,0L106.2,49.4z M94,44.1c0.3-2.4,4.6-3,4,0H94z M99.9,45.7c1.6-4.3-3.2-7-6.5-4.3
										c-4.7,4.2-0.6,10.2,5.1,7.6l0.3-1.8c-1.7,0.9-5.3,1.2-5.2-1.5H99.9z M85.3,39.3c5-0.6,3.4,3.9-0.7,3.2L85.3,39.3z
										 M80.8,49.4h2.4l1-5c0.7,0,1.7-0.2,2,0.6c0.3,0.9,0.8,3.4,0.9,4.4h2.5c-0.6-1-0.6-6-2.4-6l0,0c2.8,0.3,4.9-3.7,2.5-5.4
										c-1.8-0.9-4.6-0.5-6.6-0.6L80.8,49.4z M66.7,39.3h3.4l-2.2,10.2h2.5l2.2-10.1H76l0.4-1.9h-9.2L66.7,39.3z M62.7,39.9
										c0,1.1-1.1,1.6-2.1,1.9C58.5,39.9,61.9,37.4,62.7,39.9z M61.7,47.3c-3,2.2-6.3-1.9-2.1-3.2L61.7,47.3z M63.1,49.4h2.6
										l-1.3-2.1c1.1-1.2,1.9-2.8,2-4.6h-2.1c-0.1,1-0.4,2-1,2.8l-1.7-2.4c3.3-0.6,4.6-5.2,0.8-6c-3-0.9-6,2.6-3.7,5.2
										c-7.2,2.6-1.3,9.9,4.2,6.2L63.1,49.4z M47,49.4h7.1l0.4-1.9h-4.7L52,37.4h-2.4L47,49.4z"/>
								</g>
							</g>
						</g>
					</g>
				</g>
			</g>
		</g>
		<g>
			<g>
				<g>
					<g>
						<g>
							<g>
								<g>
									<path d="M28.8,69.8v7h-0.9v-5.3l-2.3,5.3h-0.7l-2.3-5.3v5.3h-0.9v-7h0.9l2.6,5.9l2.6-5.9H28.8z"/>
								</g>
							</g>
						</g>
					</g>
				</g>
				<g>
					<g>
						<g>
							<g>
								<g>
									<path d="M34.6,75.3h-3l-0.6,1.5H30l2.6-7h1l2.6,7h-0.9L34.6,75.3z M34.4,74.5l-1.2-3.6l-1.2,3.6H34.4z"/>
								</g>
							</g>
						</g>
					</g>
				</g>
				<g>
					<g>
						<g>
							<g>
								<g>
									<path d="M41,76.9L39.3,74h-1.1v2.8h-0.9v-7.1h2.3c0.6,0,0.9,0.1,1.3,0.3c0.4,0.2,0.7,0.4,0.9,0.8c0.2,0.3,0.3,0.7,0.3,1
										c0,0.5-0.1,0.9-0.4,1.2c-0.3,0.4-0.7,0.6-1.2,0.8l1.8,2.9L41,76.9z M38.3,73.2h1.3c0.5,0,0.9-0.1,1.1-0.4
										c0.3-0.3,0.4-0.6,0.4-0.9s-0.1-0.8-0.4-0.9c-0.3-0.2-0.7-0.4-1.1-0.4h-1.3V73.2z"/>
								</g>
							</g>
						</g>
					</g>
				</g>
				<g>
					<g>
						<g>
							<g>
								<g>
									<path d="M47.4,76.9l-2.8-3.3v3.3h-0.9v-7.1h0.9v3.3l2.9-3.3h1.1l-3.2,3.5l3.3,3.6C48.7,76.9,47.4,76.9,47.4,76.9z"/>
								</g>
							</g>
						</g>
					</g>
				</g>
				<g>
					<g>
						<g>
							<g>
								<g>
									<path d="M50.6,70.5v2.4h2.6v0.8h-2.6V76h2.8v0.8h-3.9v-7.1h3.9v0.8L50.6,70.5z"/>
								</g>
							</g>
						</g>
					</g>
				</g>
				<g>
					<g>
						<g>
							<g>
								<g>
									<path d="M59.2,69.8v0.8h-1.9v6.4h-0.9v-6.4h-1.9v-0.8H59.2z"/>
								</g>
							</g>
						</g>
					</g>
				</g>
				<g>
					<g>
						<g>
							<g>
								<g>
									<path d="M61.4,69.8v7.1h-0.9v-7.1H61.4z"/>
								</g>
							</g>
						</g>
					</g>
				</g>
				<g>
					<g>
						<g>
							<g>
								<g>
									<path d="M68.5,76.9h-0.9l-3.8-5.7v5.7h-0.9v-7.1h0.9l3.8,5.7v-5.7h0.9V76.9z"/>
								</g>
							</g>
						</g>
					</g>
				</g>
				<g>
					<g>
						<g>
							<g>
								<g>
									<path d="M75.5,71.8c-0.2-0.4-0.5-0.8-0.9-0.9c-0.4-0.2-0.8-0.4-1.3-0.4c-0.5,0-0.9,0.1-1.3,0.4c-0.4,0.2-0.7,0.6-0.9,0.9
										s-0.4,0.9-0.4,1.4c0,0.6,0.1,1,0.4,1.4s0.6,0.8,0.9,0.9c0.4,0.2,0.9,0.4,1.3,0.4c0.7,0,1.2-0.2,1.7-0.6s0.7-0.9,0.8-1.6
										h-2.8V73h3.9v0.7c-0.1,0.6-0.2,1.1-0.6,1.6c-0.3,0.5-0.8,0.9-1.2,1.1s-1,0.4-1.7,0.4c-0.7,0-1.2-0.2-1.8-0.5
										c-0.6-0.3-0.9-0.8-1.2-1.2c-0.3-0.6-0.5-1.1-0.5-1.8c0-0.7,0.2-1.3,0.5-1.8c0.3-0.6,0.8-0.9,1.2-1.2
										c0.6-0.3,1.1-0.5,1.8-0.5c0.8,0,1.4,0.2,2,0.6c0.6,0.4,0.9,0.9,1.2,1.5L75.5,71.8L75.5,71.8z"/>
								</g>
							</g>
						</g>
					</g>
				</g>
				<g>
					<g>
						<g>
							<g>
								<g>
									<path d="M84.9,73.3c-0.4,0.4-1,0.6-1.8,0.6h-1.3v2.9h-0.9v-7.1h2.3c0.8,0,1.4,0.2,1.8,0.6s0.7,0.9,0.7,1.5
										C85.5,72.3,85.4,72.9,84.9,73.3z M84.2,72.7c0.3-0.2,0.4-0.6,0.4-0.9c0-0.9-0.5-1.3-1.5-1.3h-1.3V73h1.3
										C83.6,73.1,83.9,73,84.2,72.7z"/>
								</g>
							</g>
						</g>
					</g>
				</g>
				<g>
					<g>
						<g>
							<g>
								<g>
									<path d="M90.9,75.3h-3l-0.6,1.5h-0.9l2.6-7h1l2.6,7h-0.9L90.9,75.3z M90.7,74.5l-1.2-3.6l-1.2,3.6H90.7z"/>
								</g>
							</g>
						</g>
					</g>
				</g>
				<g>
					<g>
						<g>
							<g>
								<g>
									<path d="M97.3,76.9L95.6,74h-1.1v2.8h-0.9v-7.1h2.3c0.6,0,0.9,0.1,1.3,0.3s0.7,0.4,0.9,0.8c0.2,0.3,0.3,0.7,0.3,1
										c0,0.5-0.1,0.9-0.4,1.2c-0.3,0.4-0.7,0.6-1.2,0.8l1.8,2.9L97.3,76.9z M94.6,73.2h1.3c0.5,0,0.9-0.1,1.1-0.4
										c0.3-0.3,0.4-0.6,0.4-0.9s-0.1-0.8-0.4-0.9c-0.3-0.2-0.7-0.4-1.1-0.4h-1.3V73.2z"/>
								</g>
							</g>
						</g>
					</g>
				</g>
				<g>
					<g>
						<g>
							<g>
								<g>
									<path d="M104.2,69.8v0.8h-1.9v6.4h-0.9v-6.4h-1.9v-0.8H104.2z"/>
								</g>
							</g>
						</g>
					</g>
				</g>
				<g>
					<g>
						<g>
							<g>
								<g>
									<path d="M111,76.9H110l-3.8-5.7v5.7h-0.9v-7.1h0.9l3.8,5.7v-5.7h0.9V76.9z"/>
								</g>
							</g>
						</g>
					</g>
				</g>
				<g>
					<g>
						<g>
							<g>
								<g>
									<path d="M113.5,70.5v2.4h2.6v0.8h-2.6V76h2.8v0.8h-3.9v-7.1h3.9v0.8L113.5,70.5z"/>
								</g>
							</g>
						</g>
					</g>
				</g>
				<g>
					<g>
						<g>
							<g>
								<g>
									<path d="M121.5,76.9l-1.7-2.8h-1.1v2.8h-0.9v-7.1h2.3c0.6,0,0.9,0.1,1.3,0.3s0.7,0.4,0.9,0.8c0.2,0.3,0.3,0.7,0.3,1
										c0,0.5-0.1,0.9-0.4,1.2c-0.3,0.4-0.7,0.6-1.2,0.8l1.8,2.9C122.7,76.9,121.5,76.9,121.5,76.9z M118.8,73.2h1.3
										c0.5,0,0.9-0.1,1.1-0.4c0.3-0.3,0.4-0.6,0.4-0.9s-0.1-0.8-0.4-0.9c-0.3-0.2-0.7-0.4-1.1-0.4h-1.3V73.2z"/>
								</g>
							</g>
						</g>
					</g>
				</g>
			</g>
			<g>
				<g>
					<g>
						<g>
							<g>
								<rect x="127" y="73.5" width="8.2" height="0.5"/>
							</g>
						</g>
					</g>
				</g>
			</g>
			<g>
				<g>
					<g>
						<g>
							<g>
								<rect x="9.1" y="73.5" width="8.2" height="0.5"/>
							</g>
						</g>
					</g>
				</g>
			</g>
		</g>
	</g>
	<g>
		<g>
			<path class="st4" d="M185.3,90.2v-9.1h2.8c1,0,1.8,0,2.1,0.1c0.5,0.1,0.9,0.5,1.2,0.9c0.4,0.5,0.5,1,0.5,1.8c0,0.6-0.1,1-0.3,1.4
				c-0.2,0.4-0.5,0.7-0.8,0.9s-0.6,0.4-0.9,0.5c-0.4,0.1-1,0.1-1.8,0.1H187v3.5L185.3,90.2L185.3,90.2z M187,82.6v2.6h0.9
				c0.7,0,1.1-0.1,1.4-0.2c0.2-0.1,0.4-0.3,0.6-0.5c0.1-0.2,0.2-0.5,0.2-0.8c0-0.4-0.1-0.6-0.3-0.8c-0.2-0.2-0.4-0.4-0.7-0.4
				c-0.2,0-0.7-0.1-1.2-0.1L187,82.6L187,82.6z"/>
			<path class="st4" d="M193.4,85.7c0-0.9,0.1-1.7,0.4-2.3c0.2-0.5,0.5-0.8,0.8-1.2s0.8-0.7,1.1-0.8c0.6-0.3,1.1-0.4,1.9-0.4
				c1.3,0,2.3,0.4,3.1,1.2c0.8,0.8,1.1,2,1.1,3.5c0,1.5-0.4,2.6-1.1,3.5c-0.8,0.8-1.8,1.2-3,1.2c-1.3,0-2.3-0.4-3.1-1.2
				C193.7,88.2,193.4,87.1,193.4,85.7z M195.1,85.6c0,1,0.2,1.8,0.7,2.3c0.5,0.6,1,0.8,1.7,0.8s1.2-0.3,1.7-0.8
				c0.5-0.6,0.7-1.3,0.7-2.3c0-1-0.2-1.9-0.7-2.3c-0.5-0.5-1-0.8-1.7-0.8s-1.3,0.3-1.7,0.8C195.4,83.7,195.1,84.6,195.1,85.6z"/>
			<path class="st4" d="M203.6,90.2v-9.1h1.8v4l3.6-4h2.3l-3.3,3.6l3.5,5.6h-2.3l-2.3-4.3l-1.4,1.5v2.7
				C205.5,90.2,203.6,90.2,203.6,90.2z"/>
			<path class="st4" d="M212.7,90.2v-9.1h1.8v3.6h3.4v-3.6h1.8v9.1h-1.8v-4h-3.4v4H212.7z"/>
			<path class="st4" d="M221.8,90.2v-9.1h3.7c0.9,0,1.6,0.1,2,0.3c0.4,0.2,0.8,0.5,1,0.8c0.3,0.4,0.4,0.9,0.4,1.4
				c0,0.7-0.2,1.2-0.6,1.7c-0.4,0.5-0.9,0.8-1.7,0.8c0.4,0.2,0.7,0.5,0.9,0.8c0.3,0.3,0.6,0.8,1,1.5l1,1.8h-2.1l-1.2-2
				c-0.5-0.8-0.8-1.1-0.9-1.3c-0.2-0.2-0.4-0.3-0.6-0.4c-0.2-0.1-0.5-0.1-0.8-0.1h-0.4v3.8L221.8,90.2L221.8,90.2z M223.6,84.9h1.3
				c0.8,0,1.3,0,1.6-0.1s0.4-0.2,0.5-0.4c0.1-0.2,0.2-0.4,0.2-0.7s-0.1-0.6-0.2-0.8c-0.2-0.2-0.4-0.3-0.7-0.4c-0.2,0-0.6,0-1.3,0
				h-1.3L223.6,84.9L223.6,84.9z"/>
			<path class="st4" d="M238.7,90.2h-1.9l-0.8-2.1h-3.5l-0.8,2.1H230l3.4-9.1h1.9L238.7,90.2z M235.5,86.5l-1.2-3.4l-1.1,3.4H235.5z
				"/>
			<path class="st4" d="M240.1,90.2v-9.1h1.7l3.6,6.1v-6.1h1.6v9.1h-1.8l-3.5-6v6H240.1z"/>
			<path class="st4" d="M252.6,90.2v-9.1h3.7c0.9,0,1.6,0.1,2,0.3c0.4,0.2,0.8,0.5,1,0.8c0.3,0.4,0.4,0.9,0.4,1.4
				c0,0.7-0.2,1.2-0.6,1.7c-0.4,0.5-0.9,0.8-1.7,0.8c0.4,0.2,0.7,0.5,0.9,0.8c0.3,0.3,0.6,0.8,1,1.5l1,1.8h-2.1l-1.2-2
				c-0.5-0.8-0.8-1.1-0.9-1.3c-0.2-0.2-0.4-0.3-0.6-0.4c-0.2-0.1-0.5-0.1-0.8-0.1h-0.4v3.8L252.6,90.2L252.6,90.2z M254.3,84.9h1.3
				c0.8,0,1.3,0,1.6-0.1c0.3-0.1,0.4-0.2,0.5-0.4c0.1-0.2,0.2-0.4,0.2-0.7s-0.1-0.6-0.2-0.8c-0.2-0.2-0.4-0.3-0.7-0.4
				c-0.2,0-0.6,0-1.3,0h-1.3L254.3,84.9L254.3,84.9z"/>
			<path class="st4" d="M261.3,85.7c0-0.9,0.1-1.7,0.4-2.3c0.2-0.5,0.5-0.8,0.8-1.2c0.4-0.4,0.8-0.7,1.1-0.8
				c0.6-0.3,1.1-0.4,1.9-0.4c1.3,0,2.3,0.4,3.1,1.2c0.8,0.8,1.1,2,1.1,3.5c0,1.5-0.4,2.6-1.1,3.5c-0.8,0.8-1.8,1.2-3,1.2
				c-1.3,0-2.3-0.4-3.1-1.2C261.7,88.2,261.3,87.1,261.3,85.7z M263.1,85.6c0,1,0.2,1.8,0.7,2.3c0.5,0.6,1,0.8,1.7,0.8
				s1.2-0.3,1.7-0.8c0.5-0.6,0.7-1.3,0.7-2.3c0-1-0.2-1.9-0.7-2.3c-0.5-0.5-1-0.8-1.7-0.8s-1.3,0.3-1.8,0.8
				C263.4,83.7,263.1,84.6,263.1,85.6z"/>
			<path class="st4" d="M279.3,90.2h-1.9l-0.8-2.1h-3.5l-0.8,2.1h-1.9l3.4-9.1h1.9L279.3,90.2z M276.1,86.5l-1.2-3.4l-1.1,3.4H276.1
				z"/>
			<path class="st4" d="M280.7,81h3.2c0.8,0,1.2,0.1,1.7,0.2c0.5,0.2,0.9,0.5,1.3,0.8c0.4,0.4,0.7,0.9,0.8,1.5
				c0.2,0.6,0.3,1.3,0.3,2.2c0,0.8-0.1,1.4-0.3,2c-0.2,0.7-0.6,1.2-0.9,1.6c-0.3,0.3-0.8,0.6-1.2,0.8c-0.4,0.1-0.9,0.2-1.5,0.2h-3.4
				V81z M282.3,82.6v6.1h1.3c0.5,0,0.8,0,1-0.1c0.3-0.1,0.6-0.2,0.8-0.4c0.2-0.2,0.4-0.5,0.5-0.8c0.1-0.4,0.2-0.9,0.2-1.7
				s-0.1-1.2-0.2-1.6c-0.1-0.4-0.3-0.7-0.5-0.8c-0.2-0.2-0.5-0.4-0.8-0.5c-0.3-0.1-0.8-0.1-1.4-0.1L282.3,82.6L282.3,82.6z"/>
			<path class="st4" d="M289.5,88.4h1.7v1.2c0,0.5,0,0.9-0.1,1.2c-0.1,0.3-0.3,0.6-0.5,0.8s-0.6,0.4-0.8,0.6l-0.3-0.8
				c0.4-0.1,0.6-0.3,0.8-0.5s0.2-0.5,0.2-0.8h-0.8L289.5,88.4L289.5,88.4z"/>
			<path class="st4" d="M298.4,90.2v-7.6h-2.5v-1.5h6.9v1.5h-2.5v7.6H298.4z"/>
			<path class="st4" d="M304.2,90.2v-9.1h1.8v3.6h3.4v-3.6h1.8v9.1h-1.8v-4H306v4H304.2z"/>
			<path class="st4" d="M321.2,90.2h-1.9l-0.8-2.1h-3.5l-0.8,2.1h-1.9l3.4-9.1h1.9L321.2,90.2z M317.9,86.5l-1.2-3.4l-1.1,3.4H317.9
				z"/>
			<path class="st4" d="M322.5,90.2v-9.1h1.7l3.6,6.1v-6.1h1.6v9.1h-1.8l-3.5-6v6H322.5z"/>
			<path class="st4" d="M331.6,90.2v-9.1h6.4v1.5h-4.7v2.1h4.3v1.5h-4.3v2.5h4.8v1.5C338.1,90.2,331.6,90.2,331.6,90.2z"/>
		</g>
		<g>
			<g>
				<g>
					<g>
						<path class="st0" d="M230.1,47c2.9-6.9,4.8-11.8,5.9-14.8c1.2-3.4,2.6-7.2,4-11.3c0.8,0.1,1.4,0.1,1.8,0.1
							c0.4,0,1-0.1,1.8-0.1c-1.5,3-3.5,7.8-6.1,14.3c-2,5-3.6,8.9-4.8,11.9c-0.9,2.2-1.6,3.9-2,5c-0.7-0.1-1.2-0.1-1.6-0.1
							c-0.4,0-0.9,0.1-1.6,0.1c-0.6-1.6-1.1-3.1-1.7-4.6c-0.4-1-1.5-3.8-3.5-8.7c-4-9.7-6.6-15.7-7.7-18.1c1.2,0.1,2,0.1,2.6,0.1
							c0.6,0,1.4-0.1,2.6-0.1c0.4,1.5,1,3.3,1.8,5.3c0.6,1.5,1.9,4.8,4,9.9C227.4,40.8,229,44.5,230.1,47z"/>
					</g>
					<g>
						<path class="st0" d="M241.4,52.1c2.2-4.1,6.3-13,12.3-26.8l1.9-4.5h0.9c0.8,2,2,4.9,3.8,8.9c1,2.3,2.5,5.7,4.5,10.5
							c2.2,5.1,4,9.1,5.5,11.9c-1.1-0.1-1.9-0.1-2.5-0.1c-0.5,0-1.4,0.1-2.5,0.1c-0.4-1-1.2-2.9-2.3-5.8c-0.4-1.2-1.3-3.2-2.6-6
							c-2-0.2-4-0.4-6-0.4c-1.6,0-3.4,0.1-5.2,0.4c-1.8,4.2-3.2,8.1-4.5,11.8c-0.8-0.1-1.3-0.1-1.8-0.1
							C242.8,52,242.2,52.1,241.4,52.1z M250.6,37.4c2.1,0.2,3.7,0.4,4.8,0.4c1.1,0,2.3-0.1,3.8-0.3c-0.5-1.4-1.9-4.7-4.2-9.8
							l-1,2.3C252.1,33.9,251.1,36.4,250.6,37.4z"/>
					</g>
					<g>
						<path class="st0" d="M275,52.3c0.1-2,0.2-5.3,0.2-10.2l0.1-6.9v-5c0-2.9-0.1-5-0.1-6.1c0-0.6-0.1-1.6-0.2-3.1
							c0.8,0,1.4,0,1.6,0.1c1,0.1,1.6,0.1,1.9,0.1c0.1,0,1.2-0.1,2.9-0.1c0.7,0,1.5-0.1,2.3-0.1c2,0,3.5,0.1,4.7,0.2
							c2.2,0.2,3.9,1.1,5.1,2.6c1,1.2,1.4,2.6,1.4,4.3c0,2.9-1.2,5.1-3.7,6.7c-1.4,0.9-3.2,1.5-5.5,1.8c2.3,3.1,5,6.4,7.9,10.1
							c1.8,2.1,3.4,4,4.8,5.6c-1.3-0.1-2.3-0.1-2.9-0.1s-1.6,0.1-2.9,0.1c-1.5-2.1-2.8-3.9-3.9-5.3c-1.8-2.3-4-5.1-6.5-8.3l-1.3-1.6
							h-1.5c0,1.3,0.1,4.4,0.1,9.3c0,1,0.1,2.9,0.3,5.9c-1-0.1-1.8-0.1-2.3-0.1C276.7,52.2,276,52.2,275,52.3z M279.2,35.2h1.4
							c2.3-0.1,4-0.4,5-0.7c1.7-0.6,2.9-1.5,3.7-2.9c0.6-1,0.9-2,0.9-3.1c0-1.9-0.7-3.3-2-4.3c-1.2-0.9-2.9-1.3-5.3-1.3
							c-0.8,0-2,0.1-3.5,0.1v1.5l-0.1,4.6l-0.1,4.1L279.2,35.2z"/>
					</g>
					<g>
						<path class="st0" d="M299.3,52.1c2.2-4.1,6.3-13,12.3-26.8l1.9-4.5h0.9c0.8,2,2,4.9,3.8,8.9c1,2.3,2.5,5.7,4.5,10.5
							c2.2,5.1,4,9.1,5.5,11.9c-1.1-0.1-1.9-0.1-2.5-0.1c-0.5,0-1.4,0.1-2.5,0.1c-0.4-1-1.2-2.9-2.3-5.8c-0.4-1.2-1.3-3.2-2.6-6
							c-2-0.2-4-0.4-6-0.4c-1.6,0-3.4,0.1-5.2,0.4c-1.8,4.2-3.2,8.1-4.5,11.8c-0.8-0.1-1.3-0.1-1.8-0.1
							C300.4,52,300.1,52.1,299.3,52.1z M308.5,37.4c2.1,0.2,3.7,0.4,4.8,0.4s2.3-0.1,3.8-0.3c-0.5-1.4-1.9-4.7-4.2-9.8l-1,2.3
							C310.1,33.9,308.9,36.4,308.5,37.4z"/>
					</g>
					<g>
						<g>
							<path class="st0" d="M195.3,52.7c0.2-3.5,0.4-8.6,0.4-15.4v-1.5l-0.1-5.9c0-3.7-0.1-5.9-0.1-6.6c0-0.7-0.1-1.5-0.2-2.6
								c2,0.2,4.8,0.4,8.3,0.4c2.5,0,5.2-0.1,8.2-0.4c-0.1,0.7-0.1,1.2-0.1,1.5s0.1,0.8,0.1,1.5c-2.4-0.2-5.4-0.4-8.9-0.4
								c-1.2,0-2.2,0.1-3.2,0.1c-0.1,2.8-0.1,6.1-0.1,10v5.3c0,4.2,0.1,8,0.1,11.1c1.1,0,1.8,0,2.3,0c3,0,6.3-0.1,9.7-0.4
								c-0.1,0.7-0.1,1.2-0.1,1.5c0,0.3,0.1,0.8,0.1,1.5c-4.2-0.2-7.3-0.4-9.2-0.4C200.4,52.4,198,52.5,195.3,52.7z"/>
						</g>
						<g>
							<path class="st0" d="M208.6,34.5c0.9,0.9,4.2,2.3,4.2,2.3s-3.4,1.5-4.2,2.3c-0.9,0.9-2.3,4.2-2.3,4.2s-1.5-3.4-2.3-4.2
								c-0.9-0.9-4.2-2.3-4.2-2.3s3.4-1.5,4.2-2.3c0.9-0.9,2.3-4.2,2.3-4.2S207.7,33.6,208.6,34.5z"/>
						</g>
					</g>
				</g>
				<g>
					<path d="M203.9,67.9V58h1.6v4.1h6.4V58h1.6v10h-1.6v-4.8h-6.4V68L203.9,67.9L203.9,67.9z"/>
					<path d="M223.3,67.9V58h8.9v1.2h-7.2v3.1h6.8v1.2h-6.8v3.4h7.5V68L223.3,67.9L223.3,67.9z"/>
					<path d="M241.8,67.9V58h1.6v10L241.8,67.9L241.8,67.9z"/>
					<path d="M259,64.1v-1.2h5.2v3.7c-0.8,0.5-1.6,0.9-2.5,1.2c-0.9,0.3-1.8,0.4-2.6,0.4c-1.2,0-2.3-0.2-3.3-0.7
						c-1-0.4-1.8-1-2.3-1.8c-0.5-0.8-0.7-1.7-0.7-2.7c0-1,0.2-1.9,0.7-2.7c0.5-0.9,1.2-1.5,2.2-1.9c1-0.4,2-0.6,3.2-0.6
						c0.9,0,1.7,0.1,2.4,0.4c0.7,0.2,1.3,0.6,1.7,1c0.4,0.4,0.7,1,1,1.6l-1.5,0.3c-0.2-0.5-0.4-0.9-0.7-1.2
						c-0.2-0.3-0.7-0.5-1.2-0.7c-0.5-0.1-1.1-0.3-1.7-0.3c-0.7,0-1.4,0.1-1.9,0.3s-1,0.4-1.3,0.7s-0.6,0.7-0.8,1
						c-0.3,0.6-0.4,1.3-0.4,2c0,0.9,0.2,1.6,0.6,2.3c0.4,0.7,1,1,1.7,1.3s1.5,0.4,2.3,0.4c0.7,0,1.4-0.1,2-0.4
						c0.7-0.2,1.2-0.4,1.5-0.7V64L259,64.1L259,64.1z"/>
					<path d="M273.5,67.9V58h1.6v4.1h6.4V58h1.6v10h-1.5v-4.8h-6.4V68L273.5,67.9L273.5,67.9z"/>
					<path d="M295.9,67.9v-8.8h-4V58h9.7v1.2h-4.1V68L295.9,67.9L295.9,67.9z"/>
					<path d="M309.6,64.7l1.5-0.1c0.1,0.5,0.2,0.9,0.5,1.2c0.3,0.3,0.7,0.6,1.2,0.8c0.6,0.2,1.2,0.3,1.9,0.3c0.6,0,1.2-0.1,1.6-0.2
						s0.8-0.4,1.1-0.6c0.2-0.3,0.4-0.5,0.4-0.9c0-0.3-0.1-0.6-0.4-0.8c-0.2-0.2-0.6-0.4-1.1-0.6c-0.4-0.1-1.1-0.3-2.2-0.5
						c-1.1-0.2-1.9-0.4-2.3-0.7c-0.6-0.2-1-0.6-1.3-1s-0.4-0.8-0.4-1.2c0-0.5,0.1-1,0.5-1.4s0.9-0.8,1.5-1c0.7-0.2,1.5-0.4,2.3-0.4
						c0.9,0,1.7,0.1,2.4,0.4c0.7,0.2,1.2,0.6,1.6,1s0.6,1,0.6,1.6l-1.5,0.1c-0.1-0.7-0.4-1.1-0.9-1.5c-0.5-0.3-1.2-0.5-2.1-0.5
						s-1.7,0.1-2.1,0.4c-0.4,0.3-0.7,0.7-0.7,1.1c0,0.4,0.1,0.7,0.5,0.9c0.3,0.2,1.1,0.4,2.5,0.7c1.3,0.2,2.3,0.4,2.7,0.7
						c0.7,0.3,1.2,0.6,1.6,1c0.4,0.4,0.5,0.9,0.5,1.4c0,0.5-0.2,1-0.6,1.5c-0.4,0.4-0.9,0.8-1.6,1.1c-0.7,0.3-1.5,0.4-2.3,0.4
						c-1.1,0-2-0.1-2.8-0.4c-0.7-0.3-1.3-0.7-1.8-1.2C309.9,66,309.6,65.4,309.6,64.7z"/>
				</g>
			</g>
			<g>
				<g>
					<path class="st5" d="M323,62.9h15.7v-47H181.1v47h16.7 M323,63.2h16.2V15.6H180.8v47.6h17"/>
				</g>
				<g>
					<path class="st0" d="M261.5,14.2c0.6,0.5,2.6,1.3,2.6,1.3s-2.1,0.8-2.6,1.3c-0.6,0.5-1.4,2.4-1.4,2.4s-0.9-1.9-1.4-2.4
						s-2.6-1.3-2.6-1.3s2.1-0.8,2.6-1.3s1.4-2.4,1.4-2.4S260.9,13.7,261.5,14.2z"/>
				</g>
			</g>
			<rect x="202.1" y="58.3" class="st6" width="120" height="7.2"/>
		</g>
	</g>
	<line class="st7" x1="158.2" y1="13.7" x2="158.2" y2="90.3"/>
</g>
</svg>
