<?xml version="1.0" encoding="utf-8"?>
<!-- Generator: Adobe Illustrator 25.4.1, SVG Export Plug-In . SVG Version: 6.00 Build 0)  -->
<svg version="1.1" id="Layer_1" xmlns="http://www.w3.org/2000/svg" xmlns:xlink="http://www.w3.org/1999/xlink" x="0px" y="0px"
	 viewBox="0 0 348 104" style="enable-background:new 0 0 348 104;" xml:space="preserve">
<style type="text/css">
	.st0{fill:none;stroke:#1C3C34;stroke-width:0.75;stroke-miterlimit:10;}
	.st1{fill:#84226F;}
	.st2{fill:#D7B05F;}
	.st3{fill:#353535;}
	.st4{fill:#822571;}
</style>
<g>
	<line class="st0" x1="84.6" y1="98.7" x2="84.6" y2="5.3"/>
</g>
<g>
	<g>
		<path class="st1" d="M64.3,53c0,21.1-22.7,28.7-22.7,28.7S18.8,74.3,18.8,53V36.9c0,0,6.6-3.9,22.7-7.2
			c16.1,3.3,22.7,7.2,22.7,7.2L64.3,53L64.3,53z"/>
		<path class="st2" d="M45.4,52L45.4,52L45.4,52C45.4,52,45.2,52,45.4,52L45.4,52C45.2,52,45.2,52,45.4,52C45.2,52,45.2,52,45.4,52
			L45.4,52L45.4,52L45.4,52L45.4,52c4.5-1,7.7-4.8,7.7-9.5c0-5.4-4.2-9.5-9.2-9.5c-4.8,0-8.9,3.5-9.2,9.1c0,0.2,0,0.4,0,0.4v0.2v0.2
			v0.8v16c0.2,1.9-1.1,3.8-1.6,4V62v-2.7v-4.8V42.8c0-0.2,0-0.6,0-0.8v-0.2v-0.2c0,0,0-0.2,0-0.4c0.2-2.1,1-4.2,1.9-5.6
			c-7.6,1.8-7.4,8.6-7.4,8.6v0.2V54v7.6v4.5v1.4c0.4,0,1.1-0.2,1.4-0.2c2.3-0.4,4.3-1.9,5.1-2.6c2.3-2.1,2.1-5.6,2.1-5.6v-0.3v-0.2
			l0,0V43.1l0,0l0,0c0,0-0.2-5.4,3.4-7.3c0.6-0.2,1.3-0.6,1.9-0.8c0.2,0,1.2-0.2,2.3,0.2c0.6,0.2,1.2,0.6,1.6,1.1
			c1.4,1.4,2.4,3.9,2.4,6.8c0,4.5-2.4,8.2-5.6,8.4h-3.1h-1.6c0,1,0.8,1.6,1.6,1.6l0,0h2.1c3.5,0,6.6,1.9,7.7,4.5l0,0
			c0.6,1.3,1,2.6,1,4c0,4.5-3.1,8.4-7.2,9.3c-0.2,0-0.2,0.2-0.4,0.2L39.7,68l0,0c-0.8-1-1.9-1.3-3.1-1.3c-2.3,0-4,1.9-4.2,4.2
			c0,0,1,0.2,1.3-0.2c0.2-0.2,0.2-0.4,0.4-0.8c0.4-1.1,1.3-1.8,2.4-1.8c0.8,0,1.4,0.2,1.9,1l0,0l2.3,2.4l2.3,2.4l0,0l0.1,0.1
			c0.8,0,1.2,0,1.6,0h0.2c6.1,0,10.9-4.8,10.9-10.8C56.2,57.1,51.2,52.2,45.4,52"/>
		<path class="st2" d="M65.8,77.4c0-0.2,0.2-0.8,0.2-1.1c-0.2,0-0.2-0.2-0.4-0.2c-0.6-0.2-1-0.2-1.1-0.2c-0.2-0.2-0.6-0.2-0.8-0.4
			c-1.3-0.8-2.1-1.6-2.6-2.7c-4.3,6-10.8,9.8-16.2,12.1c-2,1-4.5,1-6.5,0c-5.5-2.3-12-6-16.2-12c-0.4,1.1-1.3,1.9-2.6,2.7
			c-0.2,0.2-0.6,0.2-0.8,0.4c0,0.1-0.4,0.1-1.1,0.2c-0.2,0-0.2,0.2-0.4,0.2c0.2,0.2,0.2,0.6,0.2,1.1c0,0.6-0.2,1.1-0.4,1.6
			c0,0.2-0.2,0.2-0.2,0.4c1.9,2,8.9,10,22.3,14.2c1.8,0.6,3.4,0.6,5,0C58,89.4,65.1,81.3,66.9,79.4c-0.1-0.1-0.1-0.1-0.1-0.4
			C66,78.6,65.8,78.1,65.8,77.4"/>
		<path class="st2" d="M18.4,25.8L18.4,25.8c0.2,0.2,0.7,0.2,1.1,0.2c1.1,0,1.8-0.8,1.8-1.8s-0.8-1.8-1.8-1.8
			c-0.6,0-1.1,0.2-1.3,0.6c-0.2-0.8-0.2-1.9,0.2-2.4c0.6-1.3,1.6-1.9,2.6-2.1c2.1-0.4,3.1,1,3.1,1c-3.1,1.1-1.8,3.9-1.8,3.9
			c0.4-2.1,4.5-1.3,5.4-1.1c5.8,1.9,11.9-2.3,10.2-8.6c-0.6-1.9-1.9-2.7-2.8-3.1c-0.2-0.2-1.3-0.4-1.9-0.4c-1.3,0-2.1,1-2.6,1.4
			c-0.2,0.3-0.2,0.3-0.2,0.6l0,0l0,0c0,0.2-0.2,0.2-0.2,0.2l0,0v0.2l0,0c-0.2,1.1,0.6,2.1,1.8,2.3s2.3-0.4,2.6-1.6
			c0.2-1-0.2-1.6-0.8-2.1c0.2,0,0.4,0.2,0.6,0.2c0,0,0.2,0,0.2,0.2c0.2,0.2,0.2,0.2,0.4,0.2l0.2,0.2c0.2,0.2,0.2,0.2,0.4,0.4
			c0,0,0,0,0.2,0.2s0.2,0.4,0.4,0.6l0,0c0,0.2,0.2,0.2,0.2,0.4s0,0.2,0.2,0.2c0.2,0.2,0.2,0.8,0.2,1.2c0,1.4-1,2.7-1.9,3.3
			c-2.8,1.5-6-1.1-6-1.1C21.8,12.6,18.5,18,18.5,18c-1.9,3.1-1,5.6,0.2,6.9C18,25.4,18.4,25.8,18.4,25.8"/>
		<path class="st2" d="M56.1,22.4c1-0.2,4.8-1.2,5.4,1.1c0,0,1.3-2.8-1.8-3.9c0,0,1.1-1.3,3.1-1c1.1,0.2,2.1,1,2.6,2.1
			c0.2,0.6,0.2,1.8,0.2,2.4c-0.2-0.4-1-0.6-1.3-0.6c-1.1,0-1.8,0.8-1.8,1.8s0.8,1.8,1.8,1.8c0.4,0,0.8-0.2,1.1-0.2l0,0
			c0,0,0.4-0.2,1.1-1.1c1-1.3,1.9-3.8,0.2-6.9c0,0-3.3-5.6-10.5-0.8c0,0-3.1,2.6-5.9,1.1c-1.2-0.6-1.9-1.8-1.9-3.3
			c0-0.4,0-0.8,0.2-1.2c0-0.2,0-0.2,0.2-0.2c0-0.2,0.2-0.2,0.2-0.4l0,0c0.2-0.2,0.2-0.4,0.4-0.6c0,0,0-0.2,0.2-0.2
			c0.2-0.2,0.2-0.2,0.4-0.4h-0.2c0.1-0.1,0.2-0.1,0.3-0.2c0,0,0.2,0,0.2-0.2c-0.2-0.1,0-0.1,0.2-0.1c-0.6,0.4-1.1,1.4-0.8,2.3
			c0.2,1.2,1.4,1.9,2.6,1.6c1.1-0.3,1.8-1.3,1.8-2.4l0,0v-0.1l0,0c0-0.2,0-0.2-0.2-0.2l0,0l0,0c0-0.2-0.2-0.2-0.2-0.6
			c-0.4-0.8-1.3-1.4-2.6-1.4c-0.8,0-1.6,0.2-1.9,0.4c-1,0.2-2.3,1.2-2.8,3.1C43.9,20.1,50.2,24.4,56.1,22.4"/>
		<path class="st2" d="M15.4,76.3c0.2-0.2,0.4-0.4,0.6-0.4c0.1,0,0.2-0.2,0.2-0.2c0.2-0.2,1.9-0.6,2.1-0.8c0.2-0.2,0.4-0.2,0.6-0.2
			c1.1-0.6,3.1-2.1,2.1-4.8c0,0-0.6-1.8-1.9-1.9c0.2,0.2,0.4,0.8,0.4,1.2c0.2,1.2-0.8,2.3-1.9,2.4c-0.2,0-0.4,0-0.6,0
			s-0.6-0.2-1-0.2c-0.2,0-0.2-0.2-0.4-0.2c-0.2-0.2-2.1-1.2-3.5-0.4C11.9,71,11.3,71,11,71.4l0,0c0,0-0.2,0-0.2,0.2
			c-0.6,0.4-0.6,1.3-0.2,1.9c0.4,0.6,1.3,0.6,1.9,0.2c0.4-0.4,0.6-1.1,0.2-1.4c0.2,0.2,0.6,0.8,0.6,1.2c0,0.4,0,1-0.2,1.2
			c0,0,0,0.2-0.2,0.2l0,0c0,0,0,0.2-0.2,0.2l0,0c-0.2,0.4-1.1,1.2-1.2,1.9c0,0.2,0,0.4,0,0.8s0,0.4,0.2,0.6v0.2
			c0,0.2,0.2,0.2,0.2,0.2l0,0c0,0,0,0,0,0.2l0,0l0,0c0.4,0.6,1.2,1,1.9,1c0.2,0,0.6-0.2,0.8-0.2l0.2-0.2l0,0l0.2-0.2
			c0.2-0.2,0.2-0.6,0.2-1C16.5,76.9,15.9,76.4,15.4,76.3"/>
		<path class="st2" d="M16.1,60.6c-0.2-0.8-1-1.4-1.4-2.1c-0.2-0.2-1.4-1.6-1.6-1.9c-0.3-0.4-0.6-1.1-0.6-1.6c0,0,0,0,0,0.2
			c0,0,0,0,0,0.2c0.2,0.2,0.2,0.2,0.2,0.2s0,0,0.2,0c0.2,0.2,0.2,0.2,0.4,0.2c0.8,0.2,1.6-0.2,1.8-1.2c0.2-0.8-0.2-1.6-1.2-1.8
			c-0.2,0-0.4,0-0.4,0l0,0l0,0l0,0h-0.2c-0.2,0-0.2,0-0.2,0c-0.2,0-0.2,0-0.2,0s-0.2,0-0.2,0.2c-0.2,0-0.2,0-0.2,0.2
			c-0.2,0-0.2,0.2-0.2,0.2h-0.2c-0.2,0-0.2,0.2-0.2,0.2l-0.3-0.1C11.2,54,11,54,11,54l-0.2,0.2c0,0.2-0.2,0.2-0.2,0.2s0,0.2-0.2,0.2
			c0,0.2-0.2,0.2-0.2,0.2V55c0,0.2,0,0.2-0.2,0.4c-0.2,1.6,0.2,2.4,0.8,3.4c0,0.2,0,0.2,0.2,0.2c0.4,1.3-0.2,2.3-1.3,2.4
			c-0.4,0.2-1,0-1.3-0.2c0,0.6,0.4,1.1,0.4,1.1c1.3,1.2,2.8,0.2,2.8,0.2c0.2,0,0.2-0.2,0.2-0.2c0,0.2,0,0.4,0,0.8
			c0,2.4-2.1,3.9-4.2,2.7c-1.1-0.6-1.3-1.8-1.4-2.6c0,0-0.2,0.2-0.2,0.6c-0.1,0.4-0.1,0.6-0.1,0.8c0,0.6,0,1.2,0,1.6
			c0.2,0.6,0.6,1.3,1.2,1.9c0.2,0.2,0.2,0.2,0.2,0.2c0.4,0.4,1.2,0.8,1.8,1c1.8,0.4,3.1-0.2,4-0.6C15.9,67.1,17.2,63.8,16.1,60.6"/>
		<path class="st2" d="M76.9,64.3c0-0.2-0.2-0.2-0.2-0.6l0,0c-0.2-0.2-0.2-0.4-0.2-0.4l0,0l0,0l0,0c-0.2,1.1-0.4,1.9-1.4,2.6
			c-1.9,1.2-4-0.2-4.2-2.7c0-0.2,0-0.4,0-0.8c0.2,0.2,0.2,0.2,0.2,0.2s1.6,1.1,2.8-0.2c0,0,0.4-0.4,0.4-1.1c-0.4,0.2-1,0.4-1.3,0.2
			c-1.1-0.2-1.8-1.2-1.3-2.4c0-0.2,0-0.2,0.2-0.2c0.4-1.1,1-1.9,0.8-3.4c0-0.2,0-0.2-0.2-0.4V55c0-0.2,0-0.2-0.2-0.2
			c0,0,0-0.2-0.2-0.2c0-0.2-0.2-0.2-0.2-0.2L71.6,54c0.3-0.2,0.1-0.2,0.1-0.2l-0.2-0.2c-0.2,0-0.2-0.2-0.2-0.2L71.1,53
			c-0.2,0-0.2-0.2-0.2-0.2c-0.2,0-0.2,0-0.2-0.2c-0.2,0-0.2-0.2-0.2-0.2c-0.2,0-0.2,0-0.2,0c-0.2,0-0.2,0-0.2,0h-0.2l0,0l0,0
			c0,0-0.2,0-0.4,0c-0.8,0.2-1.3,1.1-1.2,1.8c0.2,0.8,1.1,1.3,1.8,1.2c0.2,0,0.2-0.2,0.4-0.2c0,0,0,0,0.2,0c0.2-0.2,0.2-0.2,0.2-0.2
			s0,0,0-0.2c0,0,0,0,0-0.2c0,0.6-0.2,1.2-0.6,1.6c-0.2,0.2-1.4,1.6-1.6,1.9c-0.6,0.8-1.2,1.4-1.4,2.1c-1.4,3.4,0.2,6.8,2.3,7.7
			c1.1,0.4,2.3,1.1,4,0.6c0.6-0.2,1.3-0.4,1.8-1c0.2-0.2,0.2-0.2,0.2-0.2c0.6-0.6,1.1-1.3,1.2-1.9C77.1,65.4,77.1,64.8,76.9,64.3"/>
		<path class="st2" d="M71.8,71.2C71.9,71.2,71.9,71.2,71.8,71.2c-0.2-0.2-0.6-0.2-1-0.6c-1.4-0.5-3.3,0.5-3.5,0.5s-0.2,0.2-0.4,0.2
			c-0.2,0.2-0.6,0.2-1,0.2c-0.2,0-0.4,0-0.6,0c-1.2-0.2-1.9-1.3-1.9-2.4c0-0.4,0.2-1,0.4-1.2c-1.3,0.2-1.9,1.9-1.9,1.9
			c-1,2.7,1.2,4.3,2.1,4.8c0.1,0.4,0.4,0.4,0.4,0.4c0.2,0.2,1.9,0.6,2.1,0.8c0.2,0,0.2,0.2,0.2,0.2c0.2,0.2,0.4,0.2,0.6,0.4
			c-0.6,0.2-1.1,0.6-1.2,1.2c0,0.2,0,0.6,0.2,1l0.2,0.2l0,0l0.2,0.2c0.2,0.2,0.4,0.2,0.8,0.2c0.8,0,1.4-0.2,1.9-1l0,0l0,0
			c0.2-0.2,0.2-0.2,0.2-0.6v-0.2c0-0.2,0.2-0.4,0.2-0.6s0-0.4,0-0.8c-0.2-0.8-0.8-1.4-1.2-1.9l0,0c0,0,0-0.2-0.2-0.2l0,0
			c0-0.2-0.2-0.2-0.2-0.2c0.2-0.3,0.1-0.9,0.2-1.3c0-0.4,0.2-1,0.6-1.2c-0.2,0.4,0,1.1,0.2,1.4c0.6,0.4,1.4,0.4,1.9-0.2
			C72.6,72.4,72.6,71.5,71.8,71.2C71.9,71.2,71.9,71.2,71.8,71.2"/>
		<path class="st2" d="M67.2,28.2L67.2,28.2c0.2,1.1,1.1,1.9,2.1,1.9c1.3,0,2.3-1,2.4-2.1c0-1.1-0.6-1.9-1.4-2.3l0,0l0,0
			c-0.2-0.2-0.4-0.2-0.8-0.2c-1.3,0-2.3,1-2.4,2.1C67.2,27.7,67.2,28,67.2,28.2L67.2,28.2z"/>
		<path class="st2" d="M13.8,29.9c1.2,0,1.9-1,2.1-1.9l0,0l0,0c0-0.2,0-0.2,0-0.4c0-1.3-1.2-2.3-2.4-2.1c-0.2,0-0.4,0-0.8,0.2l0,0
			l0,0c-1,0.2-1.4,1.3-1.4,2.3C11.6,29.2,12.6,29.9,13.8,29.9"/>
		<path class="st2" d="M42.1,28.2h-0.2h-0.2c-16.1,3.3-22.7,7.2-23.2,7.4L17.8,36v17.3c0,9.2,4.2,17.4,11.9,23.5
			c5.8,4.6,11.7,6.6,11.7,6.6l0.4,0.2l0.3-0.2c0.2-0.2,5.9-1.9,11.7-6.6c7.8-6.2,11.9-14.4,11.9-23.6V36l-0.8-0.4
			C64.9,35.3,58.2,31.5,42.1,28.2 M64.3,53c0,21.1-22.7,28.7-22.7,28.7S18.8,74.3,18.8,53V36.9c0,0,6.6-3.9,22.7-7.2
			c16.1,3.3,22.7,7.2,22.7,7.2L64.3,53L64.3,53z"/>
		<path class="st2" d="M65.8,30.4l-0.7-0.5c-0.2-0.2-7-4.2-23.2-7.4h-0.2h-0.2c-16.1,3.3-22.7,7.2-23.2,7.4l-0.6,0.4v3.9l0.8-0.4
			c0.2-0.2,7-4.2,23.2-7.4h0.2h0.2c16.1,3.3,22.7,7.2,23.2,7.4l0.8,0.4C65.8,34.1,65.8,30.4,65.8,30.4z"/>
		<path class="st2" d="M38.7,10.8c0.6,0.8,1.9,1.9,2.8,5.6l0,0c0,0.2,0.2,0.2,0.2,0.2c0.2,0,0.2,0,0.2-0.2l0,0
			c1.1-3.5,2.3-4.7,2.8-5.6l0,0c0.2-0.2,0.2-0.2,0.2-0.4s-0.2-0.6-0.4-0.6l0,0c0,0,0,0-0.2,0h-2.7l0,0h-2.7c0,0,0,0-0.2,0l0,0
			c-0.2,0-0.4,0.2-0.4,0.6C38.6,10.4,38.6,10.7,38.7,10.8L38.7,10.8z"/>
	</g>
	<g>
		<g>
			<path class="st1" d="M26.5,82.9c0,0.2-0.1,0.3-0.2,0.6c-0.1,0.1-0.2,0.2-0.4,0.2s-0.3,0-0.6-0.1c-0.3-0.1-0.4-0.2-0.6-0.4
				c-0.6-0.6-0.9-1-1.3-1.4c1.1-0.9,1.5-1.2,2.5-1.9c0.4,0.6,0.6,0.8,1.1,1.3c0.2,0.2,0.2,0.3,0.3,0.6c0.1,0.2,0.1,0.3,0.1,0.6
				c0,0.2-0.1,0.2-0.2,0.4C27,83,26.9,83,26.5,82.9c-0.1,0.1-0.2,0-0.4-0.1C26.5,82.5,26.5,82.7,26.5,82.9z M25.4,81.1
				c0.2,0.2,0.2,0.3,0.6,0.6c0.1,0.2,0.2,0.2,0.3,0.2c0.1,0,0.2,0,0.3-0.1c0.1-0.1,0.1-0.2,0.1-0.3c0-0.1-0.1-0.2-0.2-0.3
				c-0.2-0.2-0.2-0.3-0.4-0.6C25.8,80.7,25.7,80.9,25.4,81.1z M25.3,82.8c0.1,0,0.2,0,0.3-0.1c0.1-0.1,0.1-0.2,0.1-0.3
				s-0.1-0.2-0.2-0.4c-0.2-0.2-0.3-0.3-0.6-0.6c-0.2,0.2-0.3,0.3-0.6,0.6c0.2,0.2,0.3,0.3,0.6,0.6C25.1,82.8,25.3,82.8,25.3,82.8z"
				/>
			<path class="st1" d="M28.9,82.7c-0.9,1.1-1.3,1.5-2,2.5c-0.2-0.2-0.3-0.3-0.6-0.6c0.9-1.1,1.3-1.4,2.1-2.4
				C28.6,82.3,28.6,82.5,28.9,82.7z"/>
			<path class="st1" d="M29.5,86.8c-0.1-0.6-0.1-1-0.1-1.5c-0.1-0.1-0.2-0.1-0.3-0.2c-0.2,0.4-0.4,0.6-0.8,1.1
				c-0.2-0.2-0.4-0.2-0.8-0.6c0.9-1.1,1.2-1.5,1.9-2.5c0.4,0.3,0.8,0.6,1.2,0.9c0.2,0.2,0.4,0.3,0.6,0.6c0.1,0.2,0.2,0.3,0.2,0.6
				c0,0.2,0,0.3-0.1,0.6c-0.1,0.2-0.2,0.2-0.4,0.3c-0.2,0.1-0.4,0.1-0.8-0.1c0.1,0.6,0.1,1.1,0.2,1.6C29.8,87.3,29.8,87,29.5,86.8z
				 M29.2,84.7c0.2,0.2,0.3,0.2,0.6,0.3c0.2,0.1,0.3,0.2,0.4,0.2s0.2-0.1,0.3-0.2c0.1-0.1,0.1-0.2,0.1-0.3c0-0.1-0.2-0.2-0.3-0.3
				c-0.2-0.2-0.3-0.2-0.6-0.3C29.6,84.3,29.5,84.4,29.2,84.7z"/>
			<path class="st1" d="M31.9,87.6c0.4,0.2,0.8,0.3,1.3,0.6c-0.1,0.2-0.1,0.2-0.2,0.4c-0.9-0.3-1.3-0.6-1.9-1.1
				c0.6-1.2,1-1.8,1.5-2.7c0.2,0.2,0.3,0.2,0.6,0.3C32.5,86.3,32.3,86.7,31.9,87.6z"/>
			<path class="st1" d="M35.9,89.1c-0.6-0.2-1-0.2-1.5-0.4c-0.2,0.2-0.2,0.2-0.4,0.4c-0.3-0.1-0.6-0.2-0.9-0.2
				c1.1-1.1,1.5-1.4,2.4-2.5c0.3,0.1,0.4,0.2,0.9,0.2c0.2,1.4,0.2,2,0.6,3.4c-0.3-0.1-0.6-0.1-1-0.2C35.9,89.5,35.9,89.2,35.9,89.1z
				 M35.8,88.5c-0.1-0.6-0.1-1-0.2-1.4c-0.3,0.4-0.6,0.6-1,1.1C35.3,88.3,35.5,88.5,35.8,88.5z"/>
			<path class="st1" d="M39.9,87.6c0,0.3-0.1,0.4-0.1,0.9c0.6,0.1,0.9,0.1,1.3,0.1c0,0.2,0,0.2,0,0.6c-0.6,0-0.9,0-1.4-0.1
				c0,0.3-0.1,0.6-0.1,0.9c0.6,0.1,1,0.1,1.5,0.1c0,0.2,0,0.2,0,0.6c-1.1,0-1.4-0.1-2.4-0.2c0.2-1.3,0.2-1.9,0.4-3.1
				c0.9,0.1,1.3,0.2,2,0.2c0,0.2,0,0.2,0,0.6C40.8,87.7,40.4,87.7,39.9,87.6z"/>
			<path class="st1" d="M42.5,90.3c-0.2-0.1-0.4-0.2-0.6-0.3c-0.1-0.2-0.2-0.2-0.2-0.6c0.3,0,0.6,0,0.9,0c0,0.1,0.1,0.2,0.2,0.2
				c0.1,0.1,0.2,0.1,0.4,0.1s0.3-0.1,0.4-0.2c0.1-0.1,0.2-0.2,0.2-0.2c0-0.1-0.1-0.2-0.1-0.2C43.6,89,43.5,89,43.5,89
				c-0.1,0-0.2-0.1-0.4-0.1c-0.2-0.1-0.4-0.1-0.6-0.2c-0.1-0.1-0.1-0.3-0.3-0.3C42.1,88.3,42,88.2,42,88s0.1-0.3,0.2-0.6
				c0.1-0.2,0.2-0.2,0.4-0.3c0.2-0.1,0.4-0.1,0.6-0.2c0.3,0,0.6,0,1,0.2c0.3,0.2,0.4,0.3,0.4,0.6c-0.3,0-0.4,0.1-0.9,0.1
				c0-0.1-0.1-0.2-0.2-0.2c-0.2,0.2-0.2,0.1-0.3,0.2c-0.2,0-0.2,0-0.3,0.1s-0.1,0.2-0.1,0.2c0,0.1,0,0.2,0.1,0.2
				c0.1,0.1,0.2,0.1,0.2,0.1c0.1,0,0.2,0.1,0.4,0.1s0.4,0.1,0.6,0.1c0.2,0.1,0.2,0.1,0.4,0.2c0.1,0.1,0.2,0.2,0.2,0.4s0,0.3-0.1,0.4
				c-0.1,0.2-0.2,0.2-0.4,0.3c-0.2,0.1-0.4,0.2-0.9,0.2C43.2,90.4,42.9,90.4,42.5,90.3z"/>
			<path class="st1" d="M47.4,86.5c0.1,0.2,0.1,0.2,0.2,0.6c-0.3,0.1-0.6,0.2-1.1,0.2c0.2,1.1,0.3,1.5,0.6,2.6
				c-0.3,0.1-0.4,0.1-0.9,0.2c-0.1-1.1-0.1-1.6-0.5-2.6c-0.3,0.1-0.6,0.1-1.1,0.2c0-0.2,0-0.2-0.1-0.6
				C45.9,86.9,46.4,86.8,47.4,86.5z"/>
			<path class="st1" d="M51,88.1c-0.6,0.2-1,0.3-1.5,0.6c0,0.2,0,0.3-0.1,0.6c-0.3,0.1-0.6,0.2-0.9,0.2c0.2-1.4,0.2-2,0.3-3.4
				c0.3-0.1,0.4-0.2,0.9-0.2c1.1,1.1,1.5,1.4,2.6,2.3c-0.3,0.2-0.4,0.2-0.9,0.3C51.3,88.3,51.2,88.2,51,88.1z M50.7,87.6
				c-0.4-0.4-0.6-0.6-1.1-1.1c0,0.6,0,1-0.1,1.4C50.1,87.8,50.3,87.7,50.7,87.6z"/>
			<path class="st1" d="M53.6,83.8c0.1,0.2,0.2,0.2,0.2,0.4c-0.3,0.2-0.6,0.3-0.9,0.6c0.6,1,0.9,1.4,1.4,2.3
				c-0.2,0.2-0.4,0.2-0.8,0.4c-0.6-1-0.9-1.4-1.4-2.3c-0.3,0.2-0.6,0.2-1,0.4c-0.1-0.2-0.2-0.2-0.2-0.4
				C52.1,84.6,52.6,84.4,53.6,83.8z"/>
			<path class="st1" d="M54.8,83.3c0.2,0.2,0.2,0.3,0.4,0.6c0.4-0.3,0.6-0.6,1.1-1c0.1,0.2,0.2,0.2,0.3,0.3c-0.4,0.3-0.6,0.6-1.1,1
				c0.2,0.2,0.2,0.3,0.6,0.6c0.6-0.3,0.8-0.6,1.3-1.1c0.2,0.2,0.2,0.2,0.3,0.3c-0.8,0.8-1.2,1.1-2,1.6c-0.8-1.1-1.2-1.5-1.9-2.6
				c0.8-0.6,1.1-0.9,1.8-1.4c0.2,0.2,0.2,0.2,0.3,0.3C55.5,82.8,55.2,83,54.8,83.3z"/>
			<path class="st1" d="M58.7,83.2c-0.2,0.1-0.4,0.2-0.6,0.2c-0.2,0-0.4-0.1-0.6-0.2c0.2-0.2,0.3-0.3,0.6-0.6
				c0.1,0.1,0.2,0.1,0.3,0.1s0.2-0.1,0.4-0.2c0.2-0.2,0.2-0.2,0.2-0.4c0-0.2,0-0.2-0.1-0.3c-0.1-0.1-0.2-0.1-0.2-0.1
				c-0.1,0-0.2,0.1-0.2,0.1c-0.1,0.1-0.2,0.2-0.4,0.2c-0.2,0.2-0.4,0.2-0.6,0.3c-0.2,0.1-0.3,0.1-0.6,0.1c-0.2,0-0.3-0.1-0.4-0.2
				c-0.1-0.2-0.1-0.3-0.1-0.6c0-0.2,0-0.3,0.1-0.6c0.1-0.2,0.2-0.3,0.4-0.6c0.2-0.2,0.6-0.4,0.9-0.6c0.2-0.1,0.6-0.1,0.9,0.1
				c-0.2,0.2-0.3,0.4-0.6,0.8c-0.1-0.1-0.2-0.1-0.3-0.1s-0.2,0.1-0.3,0.2s-0.2,0.2-0.2,0.3c0,0.1,0,0.2,0.1,0.2
				c0.1,0.1,0.2,0.1,0.2,0.1c0.1,0,0.2-0.1,0.2-0.1c0.1-0.1,0.2-0.2,0.3-0.2c0.2-0.2,0.4-0.2,0.6-0.3s0.3-0.2,0.6-0.2s0.3,0,0.6,0.2
				c0.1,0.1,0.2,0.2,0.2,0.4c0,0.2,0,0.3-0.1,0.6c-0.1,0.2-0.2,0.4-0.4,0.8C59.2,83,59,83.1,58.7,83.2z"/>
		</g>
	</g>
</g>
<g>
	<g>
		<path class="st3" d="M101.7,45.7h-9.4v-5.1c8.5,0,15.7,0,24.3,0v5.1h-9.4v24.4h-5.6V45.7H101.7z"/>
		<path class="st3" d="M147.7,64.6h-15.4l-2.5,5.6h-6L137,40.6h6.1l13.2,29.5h-6.1L147.7,64.6z M140,46.8l-5.5,12.6h11L140,46.8z"/>
		<path class="st3" d="M191.7,70.1h-6.6l-8.6-9.9h-5.4v9.9h-5.6V40.6c4.7,0,9.4,0,14,0c7,0,10.6,4.7,10.6,9.8c0,4.1-1.9,8.1-7.5,9.3
			l8.9,10.1v0.3H191.7z M171.1,45.8v9.5h8.5c3.5,0,5.1-2.4,5.1-4.7c0-2.4-1.6-4.7-5.1-4.7L171.1,45.8L171.1,45.8z"/>
		<path class="st3" d="M221.7,64.6h-15.4l-2.5,5.6h-6L211,40.6h6.1l13.2,29.5h-6.1L221.7,64.6z M214,46.8l-5.5,12.6h11L214,46.8z"/>
		<path class="st3" d="M259,40.6h5.6v29.5h-3.5l0,0l-15.5-20v20H240V40.6h4.5L259,58.9V40.6z"/>
		<path class="st3" d="M288.8,52.8l7.8-12.2h6.7v0.3L291.5,58v12.1H286V57.9l-11.3-17.1v-0.3h6.6L288.8,52.8z"/>
		<path class="st3" d="M333.6,64.6h-15.4l-2.5,5.6h-6l13.2-29.5h6.1l13.1,29.4H336L333.6,64.6z M325.8,46.8l-5.5,12.6h11L325.8,46.8
			z"/>
	</g>
	<g>
		<g>
			<path class="st3" d="M341.7,79.9c0,0.1-0.1,0.2-3.5,0.2c-3.5,0-59.6,0.4-74.8,0.5c-15.2,0.1-33.3,0.3-35.8,0.3s-3.7-0.5-3.7-1
				l0,0l0,0l0,0l0,0c0-0.5,1.2-1,3.7-1s20.6,0.2,35.8,0.3c15.2,0.1,71.3,0.5,74.8,0.5C341.7,79.6,341.7,79.7,341.7,79.9"/>
		</g>
		<g>
			<path class="st3" d="M210.6,79.9L210.6,79.9L210.6,79.9L210.6,79.9c0,0.5-1.3,1-3.8,1s-20.6-0.2-35.8-0.3
				c-15.1-0.1-71.3-0.5-74.7-0.5c-3.5,0-3.6-0.1-3.6-0.2s0.1-0.2,3.6-0.2s59.6-0.4,74.8-0.5c15.2-0.1,33.3-0.3,35.8-0.3
				C209.3,78.8,210.5,79.3,210.6,79.9L210.6,79.9z"/>
		</g>
		<g>
			<rect x="215" y="78.8" class="st3" width="5.3" height="2.1"/>
		</g>
	</g>
	<g>
		<g>
			<path class="st4" d="M185.5,20.2c-0.8-0.6-1.8-1-3-1.3c0.7-0.3,1.3-0.7,1.8-1.2c1.4-1.3,2.2-2.8,2.2-4.6c0-2.1-1-3.8-3-5
				c-1.9-1.1-4.4-1.7-7.5-1.7h-12.4v26.5h13.2c3.5,0,6.2-0.6,8.1-1.9c2-1.3,3.1-3.2,3.1-5.7C188,23.1,187.1,21.4,185.5,20.2
				 M181.1,13.3c0,1.3-0.5,2.3-1.5,3c-1.1,0.8-2.8,1.1-5,1.1H169V9.8h5.7c2.3,0,4,0.3,5,0.9C180.7,11.3,181.1,12.1,181.1,13.3
				 M169,20.9h5.4c2.8,0,4.9,0.4,6.3,1.2c1.2,0.7,1.8,1.7,1.8,3.1s-0.4,2.4-1.3,3.1c-0.9,0.8-2.3,1.1-4.1,1.1H169V20.9z"/>
		</g>
		<g>
			<rect x="195.1" y="11.6" class="st4" width="4.7" height="21.2"/>
		</g>
		<g>
			<path class="st4" d="M224.4,30c-0.3-0.6-0.7-1.4-1.1-2.5c-0.5-1.2-1-2.2-1.6-3c-0.2-0.2-0.4-0.5-0.6-0.7c3.1-1.3,3.8-3.7,3.8-5.7
				c0-2.2-0.9-3.9-2.6-5c-1.6-1-3.8-1.5-6.7-1.5h-8.9v21.2h4.7v-8.1h4.8c0.5,0.2,1,0.6,1.4,1.1c0.5,0.7,1,1.7,1.5,3
				c0.3,0.9,0.6,1.6,0.9,2.1c0.3,0.6,0.6,1.1,1,1.5l0.3,0.3h4.3v-1.6l-0.4-0.3C225.1,30.9,224.8,30.7,224.4,30 M220.3,18.2
				c0,1.6-0.5,3.5-4.6,3.5h-4.3v-7h4.3C219.7,14.7,220.3,16.6,220.3,18.2"/>
		</g>
		<g>
			<path class="st4" d="M257.9,11.4l-10.7,20.9v-2.5H235V11.6h-4.7v21.2h16.6h0.3h3.6l2.5-5.1h10.1l2.4,5.1h5.1l-10.4-21.5
				L257.9,11.4L257.9,11.4z M254.9,24.7l3.7-7.3l3.4,7.3C262,24.7,254.9,24.7,254.9,24.7z"/>
		</g>
	</g>
	<g>
		<path d="M111.7,89.1h-3.2v-1.7c2.9,0,5.3,0,8.2,0v1.7h-3.2v8.3h-1.9V89.1z"/>
		<path d="M127.8,97.4v-4h-4.9v4H121v-10h1.9v4.2h4.9v-4.2h1.9v10H127.8z"/>
		<path d="M141.7,95.5h-5.2l-0.9,1.9h-2l4.5-10h2.1l4.5,10h-2.1L141.7,95.5z M139.1,89.5l-1.9,4.3h3.7L139.1,89.5z"/>
		<path d="M155.2,87.4h1.9v10h-1.2v0l-5.3-6.8v6.7h-1.9v-10h1.5l4.9,6.2V87.4z"/>
		<path d="M169.4,97.4h-7.5c0-3.3,0-6.7,0-10h7.5v1.8h-5.6v2.3h5.4v1.8h-5.4v2.3h5.6V97.4z"/>
		<path d="M188.1,90.3c0,0.8-0.4,1.5-1.3,1.9c1.2,0.4,1.6,1.6,1.6,2.2c0,2.2-1.7,2.9-3.7,2.9c-1.6,0-3.2,0-4.7,0v-10
			c1.6,0,3.2,0,4.7,0C186.7,87.4,188.1,88.3,188.1,90.3z M181.8,91.4h2.9c1.2,0,1.6-0.5,1.6-1.1c0-0.5-0.4-1.2-1.6-1.2h-2.9V91.4z
			 M181.8,95.6h2.9c0.8,0,1.9-0.3,1.9-1.2c0-0.9-1.1-1.4-1.9-1.4h-2.9V95.6z"/>
		<path d="M200.4,97.4h-7.5c0-3.3,0-6.7,0-10h7.5v1.8h-5.6v2.3h5.4v1.8h-5.4v2.3h5.6V97.4z"/>
		<path d="M206.9,87.4v8.3h5.1v1.7h-7v-10H206.9z"/>
		<path d="M223.6,95.5h-5.2l-0.9,1.9h-2l4.5-10h2.1l4.5,10h-2.1L223.6,95.5z M220.9,89.5l-1.9,4.3h3.7L220.9,89.5z"/>
		<path d="M235,94.4h-2.8v2.9h-1.9v-10c1.6,0,3.1,0,4.7,0C239.9,87.4,239.9,94.4,235,94.4z M232.2,92.7h2.8c2.4,0,2.4-3.5,0-3.5
			h-2.8V92.7z"/>
		<path d="M251.9,87.4v5.7c0,3-1.8,4.5-4.3,4.5c-2.4,0-4.4-1.5-4.4-4.5v-5.7h1.9v5.7c0,1.8,1,2.8,2.6,2.8c1.6,0,2.4-1,2.4-2.8v-5.7
			H251.9z"/>
		<path d="M265.7,97.4h-2.2l-2.9-3.3h-1.8v3.3h-1.9v-10c1.6,0,3.2,0,4.8,0c2.4,0,3.6,1.6,3.6,3.3c0,1.4-0.6,2.8-2.5,3.1l3,3.4V97.4z
			 M258.8,89.1v3.2h2.9c1.2,0,1.7-0.8,1.7-1.6s-0.5-1.6-1.7-1.6H258.8z"/>
		<path d="M284.5,97.4h-2.2l-2.9-3.3h-1.8v3.3h-1.9v-10c1.6,0,3.2,0,4.8,0c2.4,0,3.6,1.6,3.6,3.3c0,1.4-0.6,2.8-2.5,3.1l3,3.4V97.4z
			 M277.6,89.1v3.2h2.9c1.2,0,1.7-0.8,1.7-1.6s-0.5-1.6-1.7-1.6H277.6z"/>
		<path d="M298.3,92.4c0,2.6-1.6,5.2-5.1,5.2c-3.5,0-5.1-2.5-5.1-5.2s1.7-5.3,5.1-5.3C296.6,87.2,298.3,89.8,298.3,92.4z
			 M289.9,92.5c0,1.6,0.9,3.4,3.3,3.4c2.4,0,3.2-1.8,3.3-3.4c0-1.7-0.9-3.6-3.3-3.6C290.8,88.9,289.8,90.8,289.9,92.5z"/>
		<path d="M309.9,95.5h-5.2l-0.9,1.9h-2l4.5-10h2.1l4.5,10h-2.1L309.9,95.5z M307.3,89.5l-1.9,4.3h3.7L307.3,89.5z"/>
		<path d="M325.9,92.3c0,2.5-1.5,5.1-5,5.1c-1.2,0-2.7,0-3.9,0v-10c1.2,0,2.7,0,3.9,0C324.3,87.4,325.9,89.8,325.9,92.3z
			 M318.8,95.6h2.1c2.3,0,3.2-1.7,3.1-3.3c0-1.6-1-3.1-3.1-3.1h-2.1V95.6z"/>
	</g>
</g>
</svg>
