<?xml version="1.0" encoding="utf-8"?>
<!-- Generator: Adobe Illustrator 25.4.1, SVG Export Plug-In . SVG Version: 6.00 Build 0)  -->
<svg version="1.1" id="Layer_1" xmlns="http://www.w3.org/2000/svg" xmlns:xlink="http://www.w3.org/1999/xlink" x="0px" y="0px"
	 viewBox="0 0 348 104" style="enable-background:new 0 0 348 104;" xml:space="preserve">
<style type="text/css">
	.st0{fill:#231F20;}
	.st1{fill:#FFFFFF;}
	.st2{fill-rule:evenodd;clip-rule:evenodd;fill:#EF4130;}
	.st3{fill:none;stroke:#231F20;stroke-width:0.5;stroke-miterlimit:10;}
</style>
<g>
	<g>
		<g>
			<rect x="99.6" y="10.4" class="st2" width="20.4" height="20.4"/>
			<path class="st0" d="M116.2,25.4l-6.2-3.1l6.4-5.8c0.5-0.4,0.6-1.2,0.1-1.7c-0.4-0.5-1.2-0.6-1.7-0.1l-9,8.1l4.6-16
				c0.2-0.7-0.2-1.3-0.8-1.5s-1.3,0.2-1.5,0.8l-5.8,20.1c-0.2,0.5,0.1,1.1,0.5,1.4c0.5,0.2,1.1,0.2,1.5-0.2l3.8-3.4l7,3.5
				c0.6,0.3,1.3,0.1,1.6-0.5C117.1,26.4,116.9,25.6,116.2,25.4"/>
		</g>
		<g>
			<polygon class="st0" points="124.9,15.6 128.2,15.6 128.2,21.8 133.9,15.6 138.2,15.6 131.6,22.4 138.7,30.3 134.2,30.3 
				128.2,23.3 128.2,30.3 124.9,30.3 			"/>
			<path class="st0" d="M138.8,23c0-1.2,0.2-2.2,0.6-3.2c0.4-1,1-1.8,1.6-2.5c0.7-0.7,1.6-1.2,2.6-1.6c1-0.3,2.1-0.6,3.2-0.6
				c1.2,0,2.2,0.2,3.2,0.6c1,0.3,1.8,0.9,2.6,1.6s1.2,1.5,1.6,2.5s0.6,2.1,0.6,3.2s-0.2,2.2-0.6,3.2c-0.4,1-1,1.8-1.6,2.5
				c-0.7,0.7-1.6,1.2-2.6,1.6c-1,0.3-2.1,0.6-3.2,0.6c-1.2,0-2.2-0.2-3.2-0.6c-1-0.3-1.8-0.9-2.6-1.6s-1.2-1.5-1.6-2.5
				S138.8,24.1,138.8,23 M142.2,23c0,0.7,0.1,1.3,0.3,1.9s0.5,1.1,0.9,1.5c0.4,0.4,0.9,0.7,1.5,1c0.6,0.2,1.2,0.3,1.9,0.3
				c0.7,0,1.3-0.1,1.9-0.3c0.6-0.2,1.1-0.6,1.5-1c0.4-0.4,0.7-0.9,0.9-1.5c0.2-0.6,0.3-1.2,0.3-1.9s-0.1-1.3-0.3-1.9
				c-0.2-0.6-0.5-1.1-0.9-1.5c-0.4-0.4-0.9-0.7-1.5-1c-0.6-0.2-1.2-0.3-1.9-0.3c-0.7,0-1.3,0.1-1.9,0.3c-0.6,0.2-1.1,0.6-1.5,1
				c-0.4,0.4-0.7,0.9-0.9,1.5C142.3,21.7,142.2,22.2,142.2,23"/>
			<polygon class="st0" points="157.9,15.6 161.1,15.6 161.1,21.1 167.5,21.1 167.5,15.6 170.8,15.6 170.8,30.3 167.5,30.3 
				167.5,24 161.1,24 161.1,30.3 157.9,30.3 			"/>
			<rect x="174.9" y="15.6" class="st0" width="3.3" height="14.7"/>
			<polygon class="st0" points="182.5,15.6 186.9,15.6 193.2,25.9 193.3,25.9 193.3,15.6 196.5,15.6 196.5,30.3 192.2,30.3 
				185.8,19.9 185.8,19.9 185.8,30.3 182.5,30.3 			"/>
			<path class="st0" d="M200,23c0-1.2,0.2-2.2,0.6-3.2c0.4-1,1-1.8,1.6-2.5c0.7-0.7,1.6-1.2,2.6-1.6c1-0.3,2.1-0.6,3.2-0.6
				c1.2,0,2.2,0.2,3.2,0.6c1,0.3,1.8,0.9,2.6,1.6s1.2,1.5,1.6,2.5s0.6,2.1,0.6,3.2s-0.2,2.2-0.6,3.2c-0.4,1-1,1.8-1.6,2.5
				c-0.7,0.7-1.6,1.2-2.6,1.6c-1,0.3-2.1,0.6-3.2,0.6c-1.2,0-2.2-0.2-3.2-0.6c-1-0.3-1.8-0.9-2.6-1.6c-0.7-0.7-1.2-1.5-1.6-2.5
				C200.2,25.2,200,24.1,200,23 M203.3,23c0,0.7,0.1,1.3,0.3,1.9c0.2,0.6,0.5,1.1,0.9,1.5c0.4,0.4,0.9,0.7,1.5,1
				c0.6,0.2,1.2,0.3,1.9,0.3c0.7,0,1.3-0.1,1.9-0.3s1.1-0.6,1.5-1c0.4-0.4,0.7-0.9,0.9-1.5c0.2-0.6,0.3-1.2,0.3-1.9
				s-0.1-1.3-0.3-1.9s-0.5-1.1-0.9-1.5c-0.4-0.4-0.9-0.7-1.5-1c-0.6-0.2-1.2-0.3-1.9-0.3c-0.7,0-1.3,0.1-1.9,0.3
				c-0.6,0.2-1.1,0.6-1.5,1c-0.4,0.4-0.7,0.9-0.9,1.5C203.5,21.7,203.3,22.2,203.3,23"/>
			<path class="st0" d="M217.6,23c0-1.2,0.2-2.2,0.6-3.2c0.4-1,1-1.8,1.6-2.5c0.7-0.7,1.6-1.2,2.6-1.6c1-0.3,2.1-0.6,3.2-0.6
				c1.2,0,2.2,0.2,3.2,0.6c1,0.3,1.8,0.9,2.6,1.6s1.2,1.5,1.6,2.5s0.6,2.1,0.6,3.2s-0.2,2.2-0.6,3.2c-0.4,1-1,1.8-1.6,2.5
				c-0.7,0.7-1.6,1.2-2.6,1.6c-1,0.3-2.1,0.6-3.2,0.6c-1.2,0-2.2-0.2-3.2-0.6c-1-0.3-1.8-0.9-2.6-1.6c-0.7-0.7-1.2-1.5-1.6-2.5
				C217.8,25.2,217.6,24.1,217.6,23 M221,23c0,0.7,0.1,1.3,0.3,1.9c0.2,0.6,0.5,1.1,0.9,1.5c0.4,0.4,0.9,0.7,1.5,1
				c0.6,0.2,1.2,0.3,1.9,0.3c0.7,0,1.3-0.1,1.9-0.3s1.1-0.6,1.5-1c0.4-0.4,0.7-0.9,0.9-1.5c0.2-0.6,0.3-1.2,0.3-1.9
				s-0.1-1.3-0.3-1.9c-0.2-0.6-0.5-1.1-0.9-1.5c-0.4-0.4-0.9-0.7-1.5-1c-0.6-0.2-1.2-0.3-1.9-0.3c-0.7,0-1.3,0.1-1.9,0.3
				c-0.6,0.2-1.1,0.6-1.5,1c-0.4,0.4-0.7,0.9-0.9,1.5C221,21.7,221,22.2,221,23"/>
			<path class="st0" d="M236.5,15.6h5.7c0.7,0,1.5,0.1,2.1,0.2c0.7,0.2,1.2,0.4,1.8,0.7c0.5,0.3,0.9,0.8,1.2,1.4
				c0.3,0.6,0.4,1.3,0.4,2.1c0,1.1-0.2,1.9-0.8,2.6c-0.6,0.7-1.3,1.2-2.4,1.4l3.8,6.3h-3.9l-3-5.9h-1.6v5.9h-3.3L236.5,15.6
				L236.5,15.6z M239.8,21.7h1.9c0.3,0,0.6,0,0.9,0c0.3,0,0.7-0.1,0.9-0.2c0.2-0.1,0.5-0.2,0.7-0.5c0.2-0.2,0.2-0.5,0.2-0.9
				c0-0.4-0.1-0.7-0.2-0.9c-0.2-0.2-0.3-0.4-0.6-0.5c-0.2-0.1-0.5-0.2-0.8-0.2c-0.3-0.1-0.6-0.1-0.9-0.1h-2.2v3.3
				C239.7,21.7,239.8,21.7,239.8,21.7z"/>
		</g>
	</g>
	<g>
		<polygon class="st0" points="25,37.8 49.1,37.8 49.1,45.2 32.9,45.2 32.9,52.7 47.8,52.7 47.8,60.1 32.9,60.1 32.9,74.3 25,74.3 
					"/>
		<path class="st0" d="M76.3,37.8h6.5l15.7,36.5h-8.9l-3.1-7.7H72.4l-3,7.7h-8.7L76.3,37.8z M79.3,48.4l-4.4,11.4h8.8L79.3,48.4z"/>
		<polygon class="st0" points="110.1,37.8 122,37.8 130.4,61.6 130.4,61.6 138.8,37.8 150.8,37.8 150.8,74.3 142.7,74.3 142.7,46.3 
			142.7,46.3 133.2,74.3 127.3,74.3 118.1,46.3 118.1,46.3 118.1,74.3 110.1,74.3 		"/>
		<polygon class="st0" points="162.4,37.8 171.4,37.8 180.3,61.7 180.4,61.7 189.5,37.8 197.9,37.8 183.1,74.3 176.8,74.3 		"/>
		<rect x="209.6" y="37.8" class="st0" width="7.9" height="36.5"/>
		<polygon class="st0" points="229.2,37.8 237.1,37.8 237.1,66.9 251.8,66.9 251.8,74.3 229.2,74.3 		"/>
		<polygon class="st0" points="263.5,37.8 271.4,37.8 271.4,66.9 286,66.9 286,74.3 263.5,74.3 		"/>
		<polygon class="st0" points="297.8,37.8 322.1,37.8 322.1,45.2 305.7,45.2 305.7,52 321.3,52 321.3,59.4 305.7,59.4 305.7,66.9 
			323,66.9 323,74.3 297.8,74.3 		"/>
	</g>
	<line class="st3" x1="25" y1="81.9" x2="323" y2="81.9"/>
	<g>
		<path d="M104.3,92.6h-4.6v4.3h-1.6v-9.7h1.6v4.2h4.6v-4.2h1.6v9.7h-1.6V92.6z"/>
		<path d="M110.6,87.1h1.6v9.7h-1.6V87.1z"/>
		<path d="M124.8,87.1v9.7h-1.6l-4.8-7.3v7.3h-1.6v-9.7h1.6l4.8,7.2v-7.2H124.8z"/>
		<path d="M133.1,87.1h1.6v7c0,1.8-1.2,2.8-2.9,2.8c-1.7,0-2.9-1-2.9-2.8h1.6c0,0.8,0.4,1.4,1.3,1.4s1.3-0.6,1.3-1.4V87.1z"/>
		<path d="M145.1,88.4h-3.8v2.9h3.4v1.3h-3.4v3h3.8v1.3h-5.4v-9.7h5.4V88.4z"/>
		<path d="M148.8,87.1h1.7l2,7.9l2.2-7.9h1.8l2,7.9l2-7.9h1.7l-2.9,9.7h-1.8l-2-7.4l-2.2,7.4l-1.8,0L148.8,87.1z"/>
		<path d="M172,94.8h-4.1l-0.7,2h-1.7l3.5-9.7h1.8l3.5,9.7h-1.7L172,94.8z M169.9,89l-1.6,4.5h3.2L169.9,89z"/>
		<path d="M186.7,92c0,3-2,4.8-5.2,4.8h-3.2v-9.7h3.2C184.7,87.1,186.7,89,186.7,92z M181.6,95.5c2.3,0,3.5-1.3,3.5-3.5
			c0-2.2-1.2-3.6-3.5-3.6H180v7.1H181.6z"/>
		<path d="M190.8,87.1h1.6v9.7h-1.6V87.1z"/>
		<path d="M197,94.9h1.7l-1.7,3.9h-1L197,94.9z"/>
		<path d="M212.2,92.9h-1.8v3.9h-1.6v-9.7h3.4c2.3,0,3.4,1.3,3.4,2.9C215.6,91.4,214.7,92.9,212.2,92.9z M212.2,91.6
			c1.2,0,1.8-0.6,1.8-1.6c0-1-0.6-1.6-1.8-1.6h-1.8v3.2H212.2z"/>
		<path d="M219.7,87.1h1.6v6.2c0,1.5,0.9,2.2,2.2,2.2c1.4,0,2.2-0.7,2.2-2.2v-6.2h1.6v6.2c0,2.5-1.8,3.7-3.8,3.7
			c-2,0-3.8-1.2-3.8-3.7V87.1z"/>
		<path d="M239.8,87.1v9.7h-1.6l-4.8-7.3v7.3h-1.6v-9.7h1.6l4.8,7.2v-7.2H239.8z"/>
		<path d="M249.8,88.4H246v2.9h3.4v1.3H246v3h3.8v1.3h-5.4v-9.7h5.4V88.4z"/>
	</g>
</g>
</svg>
