<?xml version="1.0" encoding="utf-8"?>
<!-- Generator: Adobe Illustrator 25.4.1, SVG Export Plug-In . SVG Version: 6.00 Build 0)  -->
<svg version="1.1" id="Layer_1" xmlns="http://www.w3.org/2000/svg" xmlns:xlink="http://www.w3.org/1999/xlink" x="0px" y="0px"
	 viewBox="0 0 348 104" style="enable-background:new 0 0 348 104;" xml:space="preserve">
<style type="text/css">
	.st0{fill:#997F23;}
	.st1{fill:#031011;}
	.st2{fill:#9C7F1A;}
	.st3{fill:none;stroke:#292526;stroke-width:1.0357;stroke-miterlimit:10;}
	.st4{fill:none;stroke:#353535;stroke-width:0.4604;stroke-miterlimit:10;}
	.st5{fill:#292526;}
	.st6{fill-rule:evenodd;clip-rule:evenodd;fill:#9C7F1A;}
</style>
<g>
	<polygon class="st0" points="184.7,58.3 184.3,57.8 184.2,57.9 177.4,44.6 177.9,43.7 179.6,43.7 180.1,44 185.6,54.9 191.1,44 
		191.6,43.7 193.3,43.7 193.8,44.6 187,58 186.5,58.3 	"/>
	<polygon class="st0" points="185.6,56.2 191.6,44.3 193.3,44.3 186.5,57.7 184.7,57.7 184.7,57.6 177.9,44.3 179.6,44.3 	"/>
	<polygon class="st0" points="195.6,58.3 195,57.7 195,44.3 195.6,43.7 197.1,43.7 197.7,44.3 197.7,57.7 197.1,58.3 	"/>
	<rect x="195.6" y="44.3" class="st0" width="1.5" height="13.4"/>
	<polygon class="st0" points="201,58.2 200.4,57.6 200.4,44.3 201,43.7 202.5,43.7 203.1,44.3 203.1,55.6 212.6,55.6 213.2,56.2 
		213.2,57.6 212.6,58.2 	"/>
	<polygon class="st0" points="202.5,44.3 202.5,56.2 212.6,56.2 212.6,57.6 201,57.6 201,44.3 	"/>
	<polygon class="st0" points="214.7,58.2 214.1,57.6 214.1,44.3 214.7,43.7 216.2,43.7 216.8,44.3 216.8,55.6 226.4,55.6 227,56.2 
		227,57.6 226.4,58.2 	"/>
	<polygon class="st0" points="216.2,44.3 216.2,56.2 226.4,56.2 226.4,57.6 214.7,57.6 214.7,44.3 	"/>
	<path class="st0" d="M242.1,58.3l-0.5-0.3l-1.6-3.2h-8.4l-1.7,3.2l-0.5,0.3h-1.7l-0.5-0.8l7.1-13.4l0.5-0.3h2l0.5,0.3l7.1,13.4
		l-0.5,0.8H242.1z M238.4,52.3l-2.8-5.4l-2.8,5.4H238.4z"/>
	<path class="st0" d="M236.7,44.3l7.1,13.4h-1.7l-1.8-3.5h-9.1l-1.9,3.5h-1.7l7.1-13.4C234.7,44.3,236.6,44.3,236.7,44.3z
		 M231.8,52.9h7.6l-3.8-7.2L231.8,52.9z"/>
	<path class="st0" d="M263.1,58.2l-0.5-0.2l-3.9-5.2h-6v4.8l-0.6,0.6h-1.5l-0.6-0.6V44.2l0.6-0.6h10.1c0.7,0,1.4,0.1,1.9,0.3
		c0.6,0.2,1.1,0.5,1.5,0.9c0.5,0.5,0.7,0.9,0.9,1.5c0.2,0.6,0.3,1.2,0.3,1.9c0,1.1-0.1,2.3-1.1,3.2c-0.4,0.5-1.1,0.9-2.1,1.1
		l3.2,4.6l-0.5,0.9h-1.7L263.1,58.2L263.1,58.2z M252.9,50.3c5.2,0,7.1,0,7.8,0.2c0.6,0,1.2-0.2,1.5-0.5s0.5-0.9,0.5-1.6
		c0-1.2-0.4-2-2.4-2h-7.4V50.3z"/>
	<path class="st0" d="M261.2,52.2l3.7,5.4h-1.8l-4.1-5.4h-6.9v5.4h-1.5V44.2h10.1c0.6,0,1.2,0.1,1.7,0.3c0.6,0.2,1,0.5,1.3,0.8
		c0.4,0.4,0.6,0.8,0.8,1.3c0.2,0.5,0.3,1.1,0.3,1.7c0,1.2-0.2,2.1-0.9,2.8C263.4,51.8,262.4,52.1,261.2,52.2z M252.3,50.9
		c0,0,8.5,0,8.3,0.2c0.9,0,1.6-0.3,2-0.7s0.7-1.2,0.7-2c0-1.8-0.9-2.6-3-2.6h-8L252.3,50.9L252.3,50.9z"/>
	<path class="st0" d="M275.3,58.7c-1.2,0-2.5-0.2-3.4-0.5l-0.1-0.1c-0.3-0.2-0.6-0.3-0.9-0.5c-0.5-0.3-1.1-0.5-1.6-1
		c-1.8-1.5-2.6-3.4-2.6-5.7c0-2.4,0.9-4.3,2.6-5.7c0.8-0.8,1.9-1.2,2.7-1.5c0.9-0.3,2.1-0.5,3.2-0.5s2.3,0.2,3.2,0.5
		c0.4,0.2,0.7,0.3,0.9,0.5c0.6,0.3,1.2,0.6,1.7,1c1.8,1.6,2.7,3.6,2.6,5.8c0,2.3-0.9,4.2-2.6,5.7c-0.7,0.8-1.7,1.2-2.6,1.5
		C277.6,58.5,276.4,58.7,275.3,58.7z M275.1,45.8c-0.9,0-1.6,0.1-2.2,0.4c-0.7,0.3-1.3,0.6-2,1.1c-1.3,0.9-1.9,2.1-1.9,3.8
		c0,0.8,0.1,1.5,0.4,2.1l0.1,0.2c0.3,0.6,0.6,1,1,1.4s1.1,0.8,1.9,1.1c1,0.2,1.8,0.4,2.5,0.4c1.1,0,1.9-0.1,2.5-0.4l0.4-0.2
		c0.6-0.3,1.1-0.6,1.6-0.9c0.6-0.4,0.9-0.9,1.2-1.6c0.2-0.4,0.3-0.8,0.4-1.2c0.1-0.3,0.1-0.6,0.3-1c0-1.5-0.7-2.7-2-3.7
		c-0.5-0.4-1.1-0.7-1.7-0.9l-0.3-0.1C276.5,45.9,275.7,45.8,275.1,45.8z"/>
	<path class="st0" d="M280.7,45.6c1.6,1.4,2.5,3.2,2.4,5.3c0,2.1-0.8,3.9-2.4,5.3c-0.6,0.7-1.5,1.1-2.4,1.4c-0.8,0.3-1.9,0.5-3,0.5
		s-2.4-0.2-3.2-0.5c-0.8-0.5-1.7-0.8-2.4-1.4c-1.6-1.4-2.4-3.1-2.4-5.3c0-2.1,0.7-3.9,2.4-5.3c0.7-0.7,1.6-1.1,2.5-1.4
		c0.8-0.3,1.9-0.5,3-0.5c1,0,2.2,0.2,3,0.5C279.1,44.7,280,45,280.7,45.6z M281.1,53.3c0.4-0.7,0.4-1.5,0.7-2.3
		c0-1.8-0.8-3.2-2.2-4.3c-0.6-0.5-1.4-0.8-2.1-1.1c-0.7-0.2-1.6-0.4-2.4-0.4s-1.7,0.1-2.4,0.4c-0.8,0.3-1.5,0.7-2.1,1.1
		c-1.5,1-2.2,2.5-2.2,4.3c0,0.7,0.1,1.6,0.4,2.3c0.4,0.7,0.7,1.3,1.3,1.8c0.5,0.5,1.3,0.9,2.1,1.2c0.8,0.2,1.8,0.4,2.7,0.4
		c1,0,2-0.1,2.7-0.4c0.8-0.4,1.5-0.7,2.1-1.2C280.4,54.6,280.8,54,281.1,53.3z"/>
	<polygon class="st0" points="289.6,58.2 289,57.6 289,52.5 282.5,44.7 282.9,43.7 284.7,43.7 285.1,43.9 290.3,50 295.5,43.9 
		295.9,43.7 297.7,43.7 298.1,44.7 291.6,52.5 291.6,57.6 291,58.2 	"/>
	<polygon class="st0" points="295.9,44.3 297.7,44.3 291,52.3 291,57.6 289.6,57.6 289.6,52.3 282.9,44.3 284.7,44.3 284.7,44.3 
		290.3,50.9 	"/>
	<path class="st0" d="M309.7,58.3l-0.5-0.3l-1.6-3.2h-8.4l-1.7,3.2l-0.5,0.3h-1.7l-0.5-0.8l7.1-13.4l0.5-0.3h2l0.5,0.3l7.1,13.4
		l-0.5,0.8H309.7z M306.2,52.3l-2.8-5.4l-2.8,5.4H306.2z"/>
	<path class="st0" d="M304.3,44.3l7.1,13.4h-1.7l-1.8-3.5h-9.1l-1.9,3.5h-1.7l7.1-13.4C302.3,44.3,304.2,44.3,304.3,44.3z
		 M299.6,52.9h7.6l-3.8-7.2L299.6,52.9z"/>
	<polygon class="st0" points="313,58.2 312.4,57.6 312.4,44.3 313,43.7 314.5,43.7 315.1,44.3 315.1,55.6 324.7,55.6 325.3,56.2 
		325.3,57.6 324.7,58.2 	"/>
	<polygon class="st0" points="314.5,44.3 314.5,56.2 324.7,56.2 324.7,57.6 313,57.6 313,44.3 	"/>
	<path class="st0" d="M326.5,58l-0.6-0.6V44l0.6-0.6H339l0.6,0.6v1.5l-0.6,0.6h-10.4v3h7.2l0.6,0.6v1.5l-0.6,0.6h-7.2v3.8
		c4.1,0,10.2,0,10.8-0.2l0.1,0.5h0.6v1.4l-0.6,0.6h-13V58z"/>
	<path class="st0" d="M328,56.2c0,0,11.5,0,11.5-0.2v1.4h-13V44H339v1.5h-11v4.2h7.8v1.5H328V56.2z"/>
</g>
<g>
	<path class="st1" d="M188.2,75.6c-0.1-0.3-0.3-0.6-0.6-0.9s-0.6-0.4-1-0.6s-0.9-0.3-1.4-0.2H178v8.8h2.2v-3.1h5c1,0,2-0.3,2.4-0.7
		c0.6-0.4,0.9-1.2,0.9-2.1C188.4,76.3,188.3,76,188.2,75.6z M186,77.7c-0.3,0.2-0.6,0.3-1,0.3h-4.9v-2.3h4.9c0.4,0,0.7,0.1,1,0.3
		c0.3,0.2,0.3,0.5,0.3,0.9C186.3,77.2,186.2,77.4,186,77.7z"/>
	<path class="st1" d="M194.5,73.8h-2.6l-4.7,8.8h2.2l0.9-1.9h5.6l1,1.9h2.2L194.5,73.8z M191.1,78.9l2-3.7l1.9,3.7H191.1z"/>
	<path class="st1" d="M200.1,82.7v-8.8h2.2V81h6.9v1.7H200.1L200.1,82.7z"/>
	<path class="st1" d="M217.1,73.8h-2.6l-4.7,8.8h2.2l1-1.9h5.6l0.9,1.9h2.2L217.1,73.8z M213.9,78.9l2-3.7l1.9,3.7H213.9z"/>
	<path class="st1" d="M227.7,82.7h-2l-5.2-8.8h2.3l3.9,6.5l3.8-6.5h2.3L227.7,82.7z"/>
	<path class="st1" d="M239,73.8h-2.6l-4.7,8.8h2.2l1-1.9h5.6l0.9,1.9h2.2L239,73.8z M235.6,78.9l2-3.7l1.9,3.7H235.6z"/>
</g>
<g>
	<path class="st2" d="M179.6,33.4V22.9h2.5v8.4h8v2h-10.5V33.4z"/>
	<path class="st2" d="M204.7,28.2c0,1.6-0.6,2.8-1.8,3.8c-0.6,0.5-1.5,1-2.3,1.2c-1,0.3-1.9,0.4-3,0.4c-1,0-2.1-0.2-3-0.4
		c-1-0.3-1.7-0.7-2.3-1.2s-1-1-1.4-1.7c-0.3-0.6-0.4-1.4-0.4-2.1s0.2-1.5,0.4-2.1c0.3-0.6,0.8-1.2,1.4-1.7c0.6-0.5,1.5-1,2.3-1.3
		c1-0.3,1.9-0.4,3-0.4c1,0,2,0.2,3,0.4c1,0.3,1.7,0.7,2.3,1.3C204.1,25.4,204.7,26.7,204.7,28.2z M202.1,28.2c0-0.5-0.1-1-0.3-1.4
		s-0.5-0.8-1-1c-0.3-0.3-0.9-0.5-1.4-0.7s-1.2-0.3-1.8-0.3c-0.7,0-1.3,0.1-1.8,0.3c-0.5,0.2-1,0.4-1.4,0.7c-0.3,0.3-0.7,0.6-1,1
		c-0.2,0.4-0.3,1-0.3,1.4c0,0.5,0.1,1,0.3,1.5c0.2,0.4,0.5,0.8,0.9,1c0.3,0.3,0.9,0.5,1.4,0.7s1.2,0.3,1.8,0.3
		c0.7,0,1.3-0.1,1.8-0.3c0.5-0.2,1-0.3,1.4-0.7c0.3-0.3,0.7-0.6,1-1C202,29.2,202.1,28.8,202.1,28.2z"/>
	<path class="st2" d="M216.5,23.4c0.8,0.3,1.5,0.6,2,1s1,1,1.2,1.7c0.3,0.6,0.4,1.4,0.4,2.2c0,1.5-0.6,2.8-1.8,3.8
		c-0.5,0.4-1.1,0.8-1.8,1s-1.5,0.3-2.3,0.3h-7.4V22.9h7C214.8,23,215.7,23.1,216.5,23.4z M215.6,31.1c0.5-0.2,1-0.5,1.2-1
		c0.4-0.5,0.6-1.1,0.6-1.8c0-0.5-0.1-1-0.3-1.3s-0.4-0.8-0.7-1c-0.3-0.3-0.6-0.5-1-0.7s-1-0.3-1.4-0.3h-4.6v6.4h4.7
		C214.6,31.4,215.1,31.3,215.6,31.1z"/>
	<path class="st2" d="M232.6,33.4v-4.5H225v4.5h-2.5V22.9h2.5v3.8h7.6v-3.8h2.5v10.4h-2.5V33.4z"/>
	<path class="st2" d="M248.3,33.4l-1.2-2.3h-6.7l-1.2,2.3h-2.5l5.5-10.4h3.1l5.5,10.4H248.3z M243.7,24.9l-2.3,4.3h4.6L243.7,24.9z"
		/>
</g>
<line class="st3" x1="177.9" y1="64.8" x2="339.5" y2="64.8"/>
<line class="st4" x1="168.2" y1="14.6" x2="168.2" y2="89.4"/>
<g>
	<g>
		<path class="st5" d="M158.7,46.9c-1-4.3-3.8-6.6-8.1-7.1c-2.5-0.2-5.2-0.1-7.7-0.2c-0.8,0-0.8,0.4-0.8,0.9c0,3.1,0,6.2,0,9.4v9.4
			c0,0.5-0.1,0.9,0.6,0.9c2.4-0.1,4.7,0.1,7.1-0.1c4.6-0.4,7.5-2.4,8.6-6.3C159.1,51.6,159.2,49.3,158.7,46.9z M155.8,53.7
			c-1,2.4-2.8,3.8-5.3,4c-1.1,0.1-2.2,0.2-3.4,0.2c-2.6,0-2.6,0-2.6-2.6c0-4.1,0-8.2,0-12.4c0-0.8,0.2-1,1-1c1.5,0.1,3.2,0,4.7,0.2
			c3.1,0.4,5.3,2.1,6,5.2C156.7,49.5,156.7,51.7,155.8,53.7z"/>
		<path class="st5" d="M114.8,50.6c0.5,0,0.9,0,1.4-0.1c2.4-0.2,4-1.4,4.4-3.4c0.4-1.4,0.4-2.8-0.2-4.1c-0.6-1.8-1.8-2.9-3.8-3.2
			c-2-0.2-4.2,0-6.4-0.1c-0.9-0.1-1.1,0.2-1.1,1.1c0,6,0,12,0,17.9c0,1.6,0,1.6,1.6,1.6c0.6,0,0.8-0.2,0.8-0.9c0-2.6,0-5.2,0-7.9
			c0-0.4-0.1-0.6,0.1-1c0.5,0,0.5,0.5,0.8,0.8c2.1,2.8,4.3,5.4,6.4,8.2c0.2,0.4,0.5,0.8,1,0.6c0.8,0,1.6,0,2.8,0
			C119.9,56.9,117.4,53.8,114.8,50.6z M112.2,48.3c-0.5,0-0.6-0.2-0.6-0.6c0-0.8,0-1.6,0-2.4v-0.5c0-2.6,0-2.6,2.6-2.5
			c0.5,0,0.9,0.1,1.4,0.1c1.9,0.4,2.6,1.2,2.6,3s-0.6,2.5-2.6,2.9C114.6,48.3,113.3,48.2,112.2,48.3z"/>
		<path class="st5" d="M34,50.6c0.5,0,0.9,0,1.4-0.1c2.4-0.2,3.9-1.4,4.4-3.4c0.5-1.5,0.4-3.1-0.2-4.5c-0.6-1.5-1.8-2.5-3.5-2.9
			c-0.9-0.1-1.9-0.1-2.8-0.1c-1.5,0-3.2,0-4.7,0.1c-0.4,1.5-0.2,3.1-0.2,4.7c0,4.7,0,9.5,0,14.2c0,1.6,0,1.5,1.5,1.6
			c0.8,0,0.9-0.4,0.9-1c0-2.6,0-5.2,0-7.9c0-0.2-0.1-0.6,0.2-0.9c0.5,0.1,0.5,0.5,0.8,0.8c2.1,2.8,4.2,5.5,6.4,8.2
			c0.2,0.4,0.5,0.8,1,0.6c0.8,0,1.6,0,2.8,0C39.1,56.9,36.6,53.8,34,50.6z M30.7,45v-0.5c0-2.5,0-2.6,2.5-2.5c0.5,0,1,0.1,1.4,0.2
			c1.9,0.4,2.6,1.2,2.6,3s-0.6,2.5-2.6,2.9c-0.1,0-0.4,0.1-0.5,0.1C30.7,48.6,30.7,48.6,30.7,45z"/>
		<path class="st5" d="M20,39.9c-2.2-0.4-4.4-0.1-6.5-0.2c-0.8,0-1,0.2-1,1c0,3.1,0,6.2,0,9.4c0,3.1,0.1,6.2,0,9.4
			c0,1.2,0.6,0.9,1.4,0.9c0.7,0,1.2,0.2,1.2-0.9c-0.1-2.4,0-5,0-7.4c0-0.8,0.2-1,1-1c1.4,0,2.6,0.1,4-0.2c2.6-0.5,4.2-2.4,4.2-5.4
			C24.4,42.3,22.8,40.3,20,39.9z M21.6,45.7c-0.1,1.6-0.8,2.5-2.4,2.8c-0.1,0-0.1,0-0.2,0c-4,0.6-4,0.6-4-3.1v-1.2
			c0-2.1,0-2.1,2.1-2.1c0.5,0,1.1,0.1,1.5,0.2C20.8,42.5,21.6,43.7,21.6,45.7z"/>
		<path class="st5" d="M56,59c-0.1,0.6,0.2,1.4-1,1.4c-3-0.1-6-0.1-9.1,0c-0.8,0-1-0.2-1-1c0-3.1,0-6.2,0-9.4c0-3.1,0-6.2,0-9.4
			c0-0.8,0.1-1,0.9-1c3.1,0,6.1,0.1,9.1,0c1.1,0,0.8,0.6,0.9,1.2c0,0.6,0.1,1.1-0.9,1.1c-2.2-0.1-4.4,0-6.7,0
			c-0.8,0-0.9,0.2-0.9,0.9c0,1.4,0,2.6,0,4.1c0,0.6,0.2,0.9,0.9,0.9c2.4,0,4.5,0,6.9,0c1.1,0,0.9,0.5,0.8,1.2c0,0.5,0.4,1.2-0.8,1.2
			c-2.4-0.1-4.5,0-6.9,0c-0.6,0-0.9,0.1-0.9,0.8c0,2.1,0,4.2,0,6.2c0,0.6,0.2,0.8,0.9,0.8c2.2,0,4.4,0,6.6,0
			C55.9,57.9,56.1,58.2,56,59z"/>
		<path class="st5" d="M98.8,50.6c0.5,0,0.9,0,1.4-0.1c2.4-0.2,4-1.4,4.4-3.4c0.4-1.4,0.4-2.8-0.2-4.1c-0.6-1.8-1.8-2.9-3.8-3.2
			c-2-0.2-4.2,0-6.4-0.1c-0.9-0.1-1.1,0.2-1.1,1.1c0,6,0,12,0,17.9c0,1.6,0,1.6,1.6,1.6c0.6,0,0.8-0.2,0.8-0.9c0-2.6,0-5.2,0-7.9
			c0-0.4-0.1-0.6,0.1-1c0.5,0,0.5,0.5,0.8,0.8c2.1,2.8,4.3,5.4,6.4,8.2c0.2,0.4,0.5,0.8,1,0.6c0.8,0,1.6,0,2.8,0
			C104.1,56.9,101.4,53.8,98.8,50.6z M96.3,48.3c-0.5,0-0.6-0.2-0.6-0.6c0-0.8,0-1.6,0-2.4v-0.5c0-2.6,0-2.6,2.6-2.5
			c0.5,0,0.9,0.1,1.4,0.1c1.9,0.4,2.6,1.2,2.6,3s-0.6,2.5-2.6,2.9C98.6,48.3,97.4,48.2,96.3,48.3z"/>
		<path class="st5" d="M79.5,51c0.1,2,0,4.1,0,6.1c0,0.6,0.2,0.9,0.9,0.8c2.4,0,4.5,0,6.9,0c1.1,0,0.8,0.6,0.8,1.2s0.2,1.2-0.9,1.2
			c-3.1-0.1-6.2-0.1-9.3,0c-0.8,0-0.9-0.4-0.9-0.9c0-3.2,0-6.3,0-9.5c0-3.1,0-6.2,0-9.3c0-0.6,0.1-1,0.9-1c3.1,0,6.1,0.1,9.1,0
			c1,0,0.9,0.5,0.9,1.1c0,0.5,0.2,1.4-0.9,1.2c-2.2-0.1-4.4,0-6.7,0c-0.6,0-1,0.2-0.9,0.9c0.1,1.2,0.1,2.5,0,3.8
			c0,0.9,0.1,1.1,1.1,1.1c2.1-0.1,4.2,0,6.4,0c1,0,1.1,0.4,1.1,1.2s0,1.2-1.1,1.2c-2.1-0.1-4.3,0-6.5,0C79.7,50,79.5,50.2,79.5,51z"
			/>
		<path class="st5" d="M136.8,59c0,0.5,0.4,1.4-0.9,1.2c-3.1-0.1-6.2,0-9.3,0c-0.6,0-0.9-0.2-0.8-0.9c0-3.2,0-6.4,0-9.6
			c0-3.1,0-6.2,0-9.3c0-0.8,0.2-1,1-1c3.1,0,6.1,0.1,9.1,0c1.2,0,0.8,0.6,0.9,1.2c0.1,0.6,0.1,1.1-0.9,1.1c-2.2-0.1-4.4,0-6.6,0
			c-0.9,0-1,0.2-1,1c0.1,1.4,0,2.6,0,3.9c0,0.6,0.2,0.9,0.9,0.9c2.4,0,4.5,0,6.9,0c1.1,0,0.8,0.6,0.8,1.2c0,0.5,0.2,1.2-0.8,1.2
			c-2.4-0.1-4.5,0-6.9,0c-0.6,0-0.9,0.2-0.9,0.9c0,2.1,0,4.2,0,6.2c0,0.6,0.4,0.8,0.9,0.8c2.2,0,4.4,0,6.7,0
			C136.8,57.9,136.8,58.3,136.8,59z"/>
		<path class="st5" d="M72.2,48.9c0,1.1-0.4,1.2-1.4,1.2c-2-0.1-4.1,0-6.1,0c-1,0-1.1,0.4-1.1,1.2c0,2.6,0,5.4,0,8.1
			c0,1.1-0.5,1-1.2,1S61,60.8,61,59.5c0.1-3.2,0-6.3,0-9.5c0-3.1,0-6.2,0-9.4c0-0.6,0.1-0.9,0.8-0.9c3.1,0,6.2,0,9.4,0
			c1,0,0.8,0.6,0.8,1.1s0.4,1.2-0.8,1.2c-2.4-0.1-4.5,0-6.9,0c-0.6,0-1,0.2-0.9,0.9c0.1,1.2,0.1,2.5,0,3.8c0,0.9,0.1,1.1,1.1,1.1
			c2.1-0.1,4.2,0,6.2,0C71.8,47.7,72.2,47.8,72.2,48.9z"/>
	</g>
	<g>
		<path class="st5" d="M96.2,84.2c0,0.4,0.1,0.6-0.2,1.1c-4.9-5.2-9.9-10.3-14.7-15.5c-0.4,0.4-0.2,0.6-0.2,1c0,4.4,0,8.7,0,13.1
			c0,1-0.5,1.1-1.2,1c-0.8,0-1.4,0.1-1.4-1.1c0.1-6.4,0-12.9,0-19.2c0-0.4-0.1-0.6,0.2-1c4.9,5.4,9.9,10.7,14.7,16
			c0.4-0.5,0.2-0.8,0.2-1.2c0-4.3,0-8.7,0-13c0-1,0.4-1.2,1.2-1.1c0.8,0,1.4,0,1.4,1.1C96.1,71.7,96.2,77.9,96.2,84.2z"/>
		<path class="st5" d="M124.1,75.3c0.5,0,1,0,1.4-0.1c2.4-0.2,3.9-1.4,4.4-3.4c0.4-1.4,0.4-2.9-0.2-4.3c-0.6-1.6-1.8-2.8-3.6-3
			c-2.2-0.4-4.4-0.1-6.7-0.2c-0.8,0-0.9,0.2-0.9,0.9c0,6.2,0,12.5,0,18.7c0,1.4,0.8,0.9,1.4,1c0.8,0.1,1.1-0.1,1.1-1
			c-0.1-2.6,0-5.2,0-7.9c0-0.2-0.2-0.6,0.2-0.8c0.5,0.1,0.5,0.5,0.8,0.8c1.9,2.4,4,4.7,5.6,7.3c1.1,1.8,2.5,1.6,4.3,1.4
			C129.2,81.7,126.7,78.5,124.1,75.3z M121.5,72.9c-0.5,0-0.6-0.2-0.6-0.6c0-0.8,0-1.6,0-2.4V69c0-2.4,0-2.4,2.4-2.4
			c0.5,0,1.1,0.1,1.8,0.2c2.2,0.4,3.4,2.5,2.4,4.5c-0.4,0.8-1,1.1-1.9,1.2C124.1,73,122.7,72.9,121.5,72.9z"/>
		<path class="st5" d="M51.6,75.3c0.5,0,1,0,1.4-0.1c2.2-0.2,3.8-1.4,4.3-3.2c0.5-1.6,0.4-3.2-0.4-4.7c-0.6-1.4-1.8-2.4-3.4-2.6
			c-2.4-0.4-4.7-0.1-7.2-0.2c-0.5,0-0.5,0.4-0.5,0.6c0,6.4,0,12.9,0,19.2c0,0.2-0.1,0.6,0.2,0.6c0.6,0.1,1.4,0.1,2.1,0
			c0.5-0.1,0.1-0.9,0.1-1.4c0-2.8,0-5.5,0-8.4c0.5,0.1,0.8,0.5,1,0.8c2,2.5,3.9,5,5.9,7.5c1.2,1.5,2,1.9,4.1,1.4
			C56.7,81.7,54.2,78.5,51.6,75.3z M49.1,72.9c-0.5,0-0.6-0.2-0.6-0.8c0-0.8,0-1.6,0-2.4v-0.3c0-2.9,0-2.9,2.9-2.6
			c0.5,0,0.9,0.1,1.4,0.2c1.8,0.4,2.4,1.2,2.4,3.1c0,1.6-0.6,2.4-2.4,2.8C51.4,73,50.2,72.9,49.1,72.9z"/>
		<path class="st5" d="M20.1,64.7c-2.2-0.4-4.4-0.1-6.5-0.2c-0.8,0-1,0.2-1,1c0,3.1,0,6.2,0,9.1c0,3.2,0,6.3,0,9.5
			c0,1.2,0.6,0.9,1.4,0.9c0.7,0,1.2,0.2,1.2-0.9c-0.1-2.5,0-5,0-7.5c0-0.6,0.2-0.9,0.9-0.9c1.4,0,2.8,0.1,4.2-0.2
			c2.6-0.5,4.3-2.4,4.3-5.4C24.4,67,22.8,65,20.1,64.7z M21.6,70.3c0,1.5-0.6,2.4-2.1,2.8c-1.4,0.4-2.5,0.4-3.9,0.4
			c-0.5,0-0.5-0.2-0.5-0.6c0-0.9,0-1.9,0-2.8s0-1.8,0-2.6c0-0.4,0-0.6,0.5-0.6c1.4,0,2.8,0,4.1,0.5C21,67.6,21.6,68.6,21.6,70.3z"/>
		<path class="st5" d="M104.5,75.7c0.1,2,0,4.1,0,6.1c0,0.6,0.2,0.9,0.9,0.8c2.4,0,4.5,0,6.9,0c1.1,0,0.8,0.6,0.8,1.2
			s0.2,1.2-0.8,1.2c-3.1-0.1-6.2,0-9.3,0c-0.8,0-0.9-0.4-0.9-0.9c0-3.2,0-6.3,0-9.5c0-3.1,0-6.2,0-9.3c0-0.6,0.1-1,0.9-1
			c3.1,0.1,6.1,0.1,9.1,0c1,0,0.9,0.5,0.9,1.1c0,0.5,0.2,1.4-0.9,1.2c-2.2-0.1-4.4,0-6.7,0c-0.6,0-1,0.1-0.9,0.9
			c0.1,1.4,0.1,2.6,0,4.1c0,0.8,0.4,0.9,1,0.9c2.1,0,4.2,0,6.3,0c0.8,0,1.4-0.1,1.4,1.1c0,1.1-0.4,1.2-1.4,1.2c-2.1-0.1-4.2,0-6.3,0
			C104.7,74.8,104.3,74.9,104.5,75.7z"/>
		<path class="st5" d="M33.3,64.4c-3.2,7-6.3,13.7-9.4,20.6c0.5,0,1,0,1.4,0c1,0.2,1.5-0.2,1.9-1.2c0.5-1.4,1.2-2.9,1.8-4.2
			c0.2-0.5,0.5-0.8,1.1-0.8c2.2,0,4.4,0,6.6,0c0.5,0,0.9,0.1,1,0.6c0.5,1.2,1,2.4,1.5,3.6c0.9,2.1,0.9,2.1,3.5,1.9
			C39.6,78.1,36.5,71.4,33.3,64.4z M30.1,76.4c1.1-2.4,2.1-4.5,3.2-6.9c1.1,2.4,2.2,4.6,3.2,6.9H30.1z"/>
		<path class="st5" d="M74,66.8c-1.4,0-2.6,0.1-4,0c-1-0.1-1.4,0.1-1.4,1.2c0.1,5.3,0,10.6,0.1,15.9c0,1-0.4,1.2-1.2,1.1
			c-0.9,0-1.4,0-1.4-1.2c0.1-2.6,0-5.4,0-8.1s0-5.3,0-8c0-0.9-0.2-1.1-1.1-1.1c-1.4,0.1-2.6,0-4.1,0c-0.9,0-0.8-0.5-0.6-1
			c0.1-0.5-0.5-1.4,0.6-1.4c4.3,0,8.5,0,12.9,0c1,0,0.6,0.6,0.6,1.1C74.5,65.9,75.1,66.8,74,66.8z"/>
	</g>
	<g>
		<g>
			<path class="st2" d="M27.9,32V19h3.2v10.5h10V32H27.9z"/>
			<path class="st2" d="M59.2,25.5c0,1.9-0.8,3.5-2.2,4.7c-0.8,0.6-1.8,1.2-2.9,1.5c-1.1,0.4-2.4,0.5-3.6,0.5
				c-1.3,0-2.5-0.2-3.6-0.5c-1.1-0.4-2.1-0.9-2.9-1.5c-0.8-0.6-1.4-1.4-1.6-2.1s-0.5-1.6-0.5-2.6s0.2-1.8,0.5-2.6s0.9-1.5,1.6-2.1
				c0.8-0.6,1.8-1.2,3-1.5c1.1-0.4,2.4-0.5,3.6-0.5c1.4,0,2.5,0.2,3.6,0.5s2.1,0.9,3,1.5C58.5,21.9,59.2,23.7,59.2,25.5z M56,25.5
				c0-0.6-0.1-1.2-0.5-1.8c-0.2-0.5-0.6-1-1.1-1.4s-1.1-0.6-1.8-0.9C52,21.2,51.2,21,50.3,21s-1.6,0.1-2.4,0.4
				c-0.6,0.2-1.4,0.5-1.8,0.9c-0.5,0.4-0.9,0.9-1.1,1.4c-0.2,0.5-0.5,1.1-0.5,1.8c0,0.6,0.1,1.2,0.4,1.8c0.2,0.5,0.6,1,1.1,1.4
				s1.1,0.6,1.8,0.9c0.6,0.2,1.4,0.4,2.4,0.4s1.6-0.1,2.4-0.4c0.7-0.3,1.4-0.5,1.8-0.9c0.5-0.4,0.9-0.9,1.1-1.4S56,26.2,56,25.5z"/>
			<path class="st2" d="M73.8,19.6c1,0.4,1.8,0.8,2.4,1.4c0.6,0.5,1.2,1.4,1.5,2.1c0.4,0.8,0.5,1.8,0.5,2.8c0,1.9-0.8,3.4-2.4,4.7
				c-0.6,0.5-1.4,0.9-2.4,1.2c-0.9,0.3-1.8,0.5-2.8,0.5h-9.1V18.9h8.7C71.7,18.9,72.8,19.2,73.8,19.6z M72.7,29
				c0.6-0.4,1.1-0.6,1.5-1.2c0.5-0.6,0.8-1.4,0.8-2.2c0-0.5-0.1-1.1-0.4-1.6s-0.5-1-0.9-1.4s-0.9-0.6-1.4-0.9
				c-0.5-0.2-1.1-0.4-1.8-0.4h-5.7v8.1h5.7C71.5,29.4,72.1,29.4,72.7,29z"/>
			<path class="st2" d="M93.8,32v-5.5h-9.3V32h-3.2V19h3.2v4.7h9.4V19h3.2v13H93.8z"/>
			<path class="st2" d="M113.6,32l-1.4-2.8h-8.3l-1.6,2.8H99l6.9-13h3.9l7,13H113.6z M107.8,21.4l-2.9,5.3h5.7L107.8,21.4z"/>
		</g>
		<g>
			<rect x="12.5" y="31" class="st6" width="8.5" height="1.4"/>
			<rect x="12.5" y="18.9" class="st6" width="8.5" height="1.4"/>
			<rect x="12.5" y="21.9" class="st6" width="8.5" height="1.4"/>
			<rect x="12.5" y="25.1" class="st6" width="8.5" height="1.4"/>
			<rect x="12.5" y="28.1" class="st6" width="8.5" height="1.4"/>
		</g>
	</g>
</g>
</svg>
