<?xml version="1.0" encoding="utf-8"?>
<!-- Generator: Adobe Illustrator 25.4.1, SVG Export Plug-In . SVG Version: 6.00 Build 0)  -->
<svg version="1.1" id="Layer_1" xmlns="http://www.w3.org/2000/svg" xmlns:xlink="http://www.w3.org/1999/xlink" x="0px" y="0px"
	 viewBox="0 0 348 104" style="enable-background:new 0 0 348 104;" xml:space="preserve">
<style type="text/css">
	.st0{display:none;}
	.st1{display:inline;}
	.st2{fill:url(#SVGID_1_);}
	.st3{fill:url(#SVGID_00000028322143518750514150000017153478652107000481_);}
	.st4{fill:url(#SVGID_00000122720251343946528100000014374020883427607743_);}
	.st5{fill:url(#SVGID_00000179605904408610737600000017323084851994389424_);}
	.st6{fill:url(#SVGID_00000007401167549236890540000014112971613812001670_);}
	.st7{fill:url(#SVGID_00000164499791581248749270000015705333601464668321_);}
	.st8{fill:url(#SVGID_00000100359056813065673880000000275578628534909092_);}
	.st9{fill:url(#SVGID_00000132767997960796409200000003036326589398882955_);}
	.st10{fill:#FCE54A;}
	.st11{fill:#7F96CC;}
	.st12{fill:#D85C84;}
	.st13{fill:#F79D1E;}
	.st14{fill:#E25051;}
	.st15{fill:#EF6623;}
	.st16{fill:#FBD900;}
	.st17{fill:#F9C400;}
	.st18{fill:#6C366B;}
	.st19{fill:#F48600;}
	.st20{fill:#C01D2A;}
	.st21{fill:#E83F04;}
	.st22{fill:#D5200B;}
	.st23{fill:#601122;}
	.st24{fill:#B50C06;}
	.st25{fill:#F27A00;}
	.st26{fill:#E53600;}
	.st27{fill:#CF1401;}
	.st28{fill:#7D5688;}
	.st29{fill:#712642;}
	.st30{fill:#EF5A2B;}
	.st31{fill:#007DAF;}
	.st32{fill:#231F20;}
	.st33{fill:none;stroke:#231F20;stroke-miterlimit:10;}
</style>
<g class="st0">
	
		<image style="display:inline;overflow:visible;enable-background:new    ;" width="2412" height="1352" xlink:href="C:\Users\HomeBazaar.Com\Downloads\Sunlit Grove png (1).png"  transform="matrix(7.491547e-02 0 0 7.491547e-02 216.6462 -346.8571)">
	</image>
	<g class="st1">
		
			<linearGradient id="SVGID_1_" gradientUnits="userSpaceOnUse" x1="296.5707" y1="-181.0881" x2="120.8357" y2="-181.0881" gradientTransform="matrix(1 0 0 1 0 90)">
			<stop  offset="0" style="stop-color:#7893B9"/>
			<stop  offset="1" style="stop-color:#50B3B7"/>
		</linearGradient>
		<path class="st2" d="M154.8-78.7c-1.2-0.2-1.6-0.8-1.6-2.1c0.1-5.1,0.2-10.2,0-15.3c-0.1-4.9-3.1-8-7.6-8.2
			c-2.9-0.2-5.4,1.2-6.5,3.6c-0.6,0.9-0.9,0.9-1.6-0.2c-0.9-1.5-2.3-2.6-4.1-3.2c-2.2-0.5-4.7-0.8-6.4,1.1c-1.2,0-1.4,1.4-2.3,1.8
			c-0.2-2.5-0.2-2.5-2-2.4h-6.5c1.3,1.1,2.6,1.1,3.7,1.4v22.7c-0.9,0.2-1.8,0.5-2.7,0.8c-0.3,0.1-1.1,0.1-0.3,0.8
			c0.2,0.1,0.4,0.2,0.6,0.2c3.2,0,6.3,0,9.5,0c0.3,0,0.7,0,0.8-0.4c-0.2-0.8-0.9-0.7-1.5-0.8c-1.3-0.2-1.7-0.8-1.7-2.1
			c0.1-4.7,0.2-9.5,0-14.2c-0.1-2.9,0.7-5.1,2.7-7c0.7-0.3,1.3-0.9,2.1-0.9c0.5,0,1,0,1.5,0c0.8,0.3,1.5,0.7,2,1.4
			c1.2,1.5,1.3,3.3,1.4,5c0.1,5.3,0,10.7,0,16.1c0,0.9-0.3,1.3-1.2,1.5c-0.6,0.2-1.7-0.1-1.9,1c0.1,0.3,0.4,0.4,0.7,0.4h9.3
			c0.3,0,0.6,0,0.8-0.3c0-0.7-0.6-0.6-1.1-0.8c-0.6-0.2-1.2-0.2-1.7-0.6c0-6.3,0-12.6,0-18.9c0-0.4,0.2-0.7,0.3-1.1
			c0.3-0.4,0.5-0.9,0.9-1.2c1-1,1.7-2.4,3.3-2.5h1.6c0.2,0,0.3,0,0.5,0.1c1.9,1.1,2.6,2.9,2.8,5v18.6c-0.8,0.3-1.5,0.5-2.3,0.7
			c-0.2,0-1.1,0.1-0.5,0.8c0.2,0.1,0.4,0.2,0.6,0.2c3.2,0,6.4,0,9.5,0c0.3,0,0.5,0,0.7-0.2c0.1,0,0.1-0.1,0.2-0.2
			C156.2-78.6,155.5-78.6,154.8-78.7z"/>
		
			<linearGradient id="SVGID_00000128479914001057329390000003435791831861805455_" gradientUnits="userSpaceOnUse" x1="296.5707" y1="-180.0195" x2="120.8357" y2="-180.0195" gradientTransform="matrix(1 0 0 1 0 90)">
			<stop  offset="0" style="stop-color:#7893B9"/>
			<stop  offset="1" style="stop-color:#50B3B7"/>
		</linearGradient>
		<path style="fill:url(#SVGID_00000128479914001057329390000003435791831861805455_);" d="M231.1-102.2c0.8-0.2,1.7-0.1,2.3-1.1
			c-2.5,0-7.4,0-9.8,0c-0.4,0-1.1-0.3-1.2,0.4c-0.1,0.6,0.7,0.5,1,0.7c0.2,0.1,0.5,0.1,0.7,0.1c1.1,0.1,1.4,0.7,1.3,1.8
			c-0.1,5-0.1,10,0,15c0,1.6-0.3,3-1.1,4.3c-0.4,0.4-0.8,0.8-1.1,1.2c-1.2,1.3-2.6,2.3-4.6,1.6c-2.1-1.1-2.7-3-2.8-5.1
			c-0.1-5.3-0.1-10.6-0.1-15.9c0-2.4,0-2.4,2.3-3.3c0.3-0.1,0.6-0.1,0.5-0.5c0-0.4-0.4-0.3-0.6-0.3c-1.2,0-2.4,0-3.5,0h-6.7
			c0.6,0.9,1.4,1.1,2.1,1.1c1.1,0.2,1.4,0.6,1.4,1.7c-0.1,5.3-0.2,10.7,0,16c0.1,2.4,0.9,4.6,3,6.1c1.1,1,2.4,1.5,4,1.5
			c0.6,0.3,1.1,0.3,1.7,0c1.9-0.2,3.4-1.1,4.5-2.6c0.5-0.1,0.4-0.8,1.1-0.8v2.4c0.2,0.1,0.4,0.1,0.6,0.1c1.8,0.5,3.8,0,5.6,0.2
			c0.6,0,1.2,0.3,1.7-0.3c-0.3-1.2-1.5-0.8-2.2-1.1c-0.9-0.2-1.2-0.6-1.2-1.5c0-6.8,0-13.6,0-20.4
			C229.9-101.7,230.2-102,231.1-102.2z"/>
		
			<linearGradient id="SVGID_00000034805850899931451440000001882143438369798574_" gradientUnits="userSpaceOnUse" x1="296.5707" y1="-180.5" x2="120.8357" y2="-180.5" gradientTransform="matrix(1 0 0 1 0 90)">
			<stop  offset="0" style="stop-color:#7893B9"/>
			<stop  offset="1" style="stop-color:#50B3B7"/>
		</linearGradient>
		<path style="fill:url(#SVGID_00000034805850899931451440000001882143438369798574_);" d="M293.3-78.7c-1.2-0.2-1.5-0.8-1.4-1.9
			c0-7,0-14.1,0-21.1c0-1.8,0-1.8-1.8-1.8c-0.8,0.1-2.1,0-3,0c-0.8,0-1.7,0-2.5,0c-0.2,0-0.5,0-0.6,0.3c0,0.3,0.2,0.4,0.4,0.5
			c0.7,0.2,1.4,0.3,2,0.4c0.8,0.3,0.9,0.8,0.9,1.5c0,6.7,0,13.4,0,20.1c0,1.2-0.2,1.7-1.4,1.9c-0.6,0.1-1.7-0.2-1.9,1
			c0.2,0.3,0.5,0.3,0.7,0.3h9.7c0.3,0,0.7,0,0.8-0.4C294.8-78.8,294-78.6,293.3-78.7z"/>
		
			<linearGradient id="SVGID_00000158739156299378796860000015590216979743310249_" gradientUnits="userSpaceOnUse" x1="296.4886" y1="-180.425" x2="121.0026" y2="-180.425" gradientTransform="matrix(1 0 0 1 0 90)">
			<stop  offset="0" style="stop-color:#7893B9"/>
			<stop  offset="1" style="stop-color:#50B3B7"/>
		</linearGradient>
		<path style="fill:url(#SVGID_00000158739156299378796860000015590216979743310249_);" d="M252.2-91.8c-0.9-0.5-1.8-1.1-2.8-1.4
			c-1-0.4-1.7-1.2-2.8-1.4c-0.9-0.8-1.9-1.5-2.8-2.3c-0.9-1.4-0.8-2.9,0-4.3c0.8-0.8,1.5-1.6,2.8-1.7c0.6,0,1.2,0,1.8,0
			c1.4,0.2,2.5,1.1,3.6,2c1.2,1.8,2.4,3.6,2.9,5.8c0.1,0.4,0.3,0.4,0.6,0.4s0.5-0.2,0.5-0.5c0-0.6,0-1.3,0-1.9v-4.4
			c0-0.4,0-0.7,0-1.1c0-0.5,0.3-1-0.2-1.3c-0.5-0.3-1.1,0-1.6,0.3s-0.6,0.9-1,1.3c-0.3,0.2-0.3,0.7-0.8,0.3
			c-1.2-1.5-2.8-1.9-4.5-2.2c-1.5-0.2-2.9,0-4.2,0.6c-0.8,0.3-1.6,0.5-2,1.4c-1.2,0.8-1.9,2-2.1,3.4c-0.3,0.9-0.3,1.7,0,2.5
			c0.2,1.5,0.9,2.7,2,3.7c0.5,0.8,1.2,1.2,2,1.6c0.9,0.6,1.7,1.4,2.8,1.7c0.9,0.5,1.8,1,2.8,1.5c0.9,0.7,2,1.1,2.8,2
			c1.8,1.8,1.7,4.1,0,6.2c-1.4,1.5-3.2,1.8-5.1,1.7c-1.4-0.5-2.7-1.2-3.9-2.1c-1.2-1.6-2.3-3.3-2.9-5.3c-0.2-0.5-0.2-1.2-1-1.1
			c-0.5,0.4-0.4,0.9-0.1,1.4c0.2,2.3,0.2,4.5,0,6.8c-0.3,0.4-0.4,0.9,0,1.2c0.3,0.3,0.8,0.3,1.2-0.2c0.7-0.5,1.4-1.1,1.7-2
			c0.3,0,0.5,0,0.6,0.2c1,1.1,2.3,1.7,3.6,2c0.6,0,1.1,0.1,1.7,0.2c0.6,0.3,1.3,0.3,2,0c0.9-0.1,1.7-0.2,2.6-0.7
			C259.5-80.7,258.4-88.6,252.2-91.8z"/>
		
			<linearGradient id="SVGID_00000128458546607373789450000004407679883042154642_" gradientUnits="userSpaceOnUse" x1="296.573" y1="-180.4875" x2="120.8345" y2="-180.4875" gradientTransform="matrix(1 0 0 1 0 90)">
			<stop  offset="0" style="stop-color:#7893B9"/>
			<stop  offset="1" style="stop-color:#50B3B7"/>
		</linearGradient>
		<path style="fill:url(#SVGID_00000128458546607373789450000004407679883042154642_);" d="M178.4-101.2c-1.7-2.1-3.8-3-6.5-3
			c-1.8,0.1-3.6,0.3-5,1.5c-0.7,0.1-1.1,0.8-1.5,1.2c-2.2,2.2-3.2,4.9-3.4,7.9c-0.4,0.6-0.2,1.4-0.2,2v1.8c0,0.7-0.2,1.4,0.2,2
			c0.5,2.9,1.2,5.6,3.4,7.6c0.5,0.5,0.8,1.1,1.4,1.4c1,0.8,2.2,1.2,3.4,1.6c0.5,0.1,0.9,0.1,1.4,0.2c0.6,0.3,1.1,0.3,1.7,0
			c1.1-0.1,2.2-0.3,3.1-1c2.9-1.3,4.3-3.8,4.9-6.7c0.1-0.3,0.2-0.7-0.3-0.8c-0.4-0.1-0.6,0.1-0.6,0.5c-0.5,2.6-2.1,4.5-4.3,5.9
			c-1.8,1.2-3.7,0.9-5.6,0.2c-1-1.1-1.9-2.2-2.3-3.6c-0.4-1.2-0.7-2.5-1.1-3.7c0-1.1,0-3.4,0-4.5c4.3-0.1,8.6-0.2,12.9-0.1
			c1.9,0,1.9,0,2-1.8c0-0.5,0.2-1-0.2-1.5C181.1-96.5,180.6-99.2,178.4-101.2z M171.8-103.4L171.8-103.4L171.8-103.4
			c1.9,1,3.1,2.4,3.6,4.4c0.5,1.8,0.8,3.5,0.9,5.4c0,1-0.3,1.3-1.3,1.3c-1.7,0-3.5,0-5.2,0c-1.9,0-1.9,0-2.5-1.8l0,0
			c0-0.1,0.1-0.2,0.1-0.3c0.1-0.5,0.2-1,0.1-1.5c0.2-0.2,0.2-0.4,0.2-0.6C168.2-99.3,169-101.9,171.8-103.4z"/>
		
			<linearGradient id="SVGID_00000168118547919155370050000013585609180055675053_" gradientUnits="userSpaceOnUse" x1="296.5401" y1="-180.9687" x2="120.9622" y2="-180.9687" gradientTransform="matrix(1 0 0 1 0 90)">
			<stop  offset="0" style="stop-color:#7893B9"/>
			<stop  offset="1" style="stop-color:#50B3B7"/>
		</linearGradient>
		<path style="fill:url(#SVGID_00000168118547919155370050000013585609180055675053_);" d="M274.1-102.9c-1.7,1.3-2.5,3.2-3.6,5.4
			c-0.1-0.7,0-1.4,0-1.9c-0.1-1.3,0.3-2.7-0.2-3.9c-2.1,0-4.1-0.1-6.2-0.1c-0.5,0-1.5-0.4-1.5,0.3c-0.1,0.5,0.9,0.6,1.5,0.8
			c0.1,0,0.3,0,0.4,0c1.1,0.2,1.5,0.7,1.5,1.9c-0.1,6.1,0,12.1,0,18.2c0,2.8,0,2.8-2.7,3.6c-0.2,0.1-0.5,0.2-0.6,0.3
			c-0.3,0.2-0.1,0.4,0.2,0.5c0.2,0.1,0.4,0.2,0.6,0.2c3.2,0,6.5,0,9.7,0c0.3,0,0.7,0,0.8-0.4c-0.8-1-2-0.9-3-1
			c-0.5-0.3-0.3-0.7-0.3-1.1v-14.7c0-0.5,0-1.1,0.3-1.6c0.9-1.4,2-2.6,3.4-3.5c0.9-0.3,1.7-0.6,2.7-0.4c0.7,0.2,1.4,0.9,1.9,0.5
			s0.6-1.3,0.9-2c0.1-0.7,1.2-1.8,0.2-2.2C278.1-104.7,275.5-104.3,274.1-102.9z"/>
		
			<linearGradient id="SVGID_00000037650805530046601620000010701935010650563213_" gradientUnits="userSpaceOnUse" x1="296.5707" y1="-180.9176" x2="120.8357" y2="-180.9176" gradientTransform="matrix(1 0 0 1 0 90)">
			<stop  offset="0" style="stop-color:#7893B9"/>
			<stop  offset="1" style="stop-color:#50B3B7"/>
		</linearGradient>
		<path style="fill:url(#SVGID_00000037650805530046601620000010701935010650563213_);" d="M204.7-103.9c-1.4-0.3-2.9-0.6-4.4,0
			c-2.4,1.2-3.7,3.3-4.6,5.8c-0.4-0.8-0.1-1.6-0.2-2.3c-0.1-1,0.4-2.1-0.3-3c-2,0.1-3.9,0-5.9,0c-0.6,0-1.7-0.5-1.8,0.4
			c-0.1,0.6,1.1,0.6,1.7,0.7c1.2,0.2,1.6,0.7,1.5,2c-0.1,6.6-0.1,13.2,0,19.8c0,1-0.3,1.4-1.2,1.6c-0.8,0.2-1.8-0.1-2.2,0.9
			c0.2,0.5,0.7,0.4,1.1,0.4h9.1c0.4,0,0.8,0.1,1-0.3c-0.1-0.7-0.7-0.6-1.1-0.8c-0.6-0.2-1.4-0.2-2-0.6v-16.3
			c0.1-0.4,0.2-0.8,0.3-1.1c0.1-0.1,0.1-0.2,0.2-0.2c1.2-1.5,2.6-3,4.7-3.4c0.8,0,1.5,0.2,2.2,0.5c0.5,0.3,0.9,0.3,1.1-0.3
			c0.4-1,0.8-2,1.2-2.9C205.3-103.4,205.3-103.8,204.7-103.9z"/>
		
			<linearGradient id="SVGID_00000052075979133779836270000012360869850353768866_" gradientUnits="userSpaceOnUse" x1="296.5034" y1="-199.7507" x2="122.2954" y2="-199.7507" gradientTransform="matrix(1 0 0 1 0 90)">
			<stop  offset="0" style="stop-color:#7893B9"/>
			<stop  offset="1" style="stop-color:#50B3B7"/>
		</linearGradient>
		<path style="fill:url(#SVGID_00000052075979133779836270000012360869850353768866_);" d="M289.3-107c3.9-0.5,3.6-5.6-0.2-5.5
			c-0.1,0-0.2,0-0.3,0c-0.1,0-0.1,0-0.2,0C285.3-111.6,286.1-107,289.3-107z"/>
	</g>
	<g class="st1">
		<path class="st10" d="M25.8-177.2c-0.2,0.1-0.3,0.1-0.5,0.2c-0.2,0.1-0.3,0.1-0.5,0.2c-0.1,0-0.2,0.1-0.3,0.1
			c-1.6,0.6-3.2,1.1-4.9,1.5c-0.7,0.2-1.5,0.3-2.3,0.4c-0.7,0.1-1.4,0.2-2.1,0.3c-1.5,0.2-3,0.3-4.5,0.3c-0.6,0-1.3,0-1.9,0
			c-0.8,0-1.5-0.1-2.2-0.2c0-0.9-0.1-1.7-0.2-2.5v-0.1c0-0.1,0-0.1,0-0.2c0-0.2-0.1-0.4-0.2-0.6c-0.3-1.2-0.7-2.3-1.3-3.4
			c-0.1-0.2-0.2-0.4-0.3-0.6c0,0,0,0,0.1-0.1c0,0,0,0-0.1,0c-0.1-0.1-0.1-0.2-0.2-0.3c-0.2-0.3-0.4-0.6-0.6-0.9
			c-0.4-0.6-0.8-1.1-1.3-1.7c-0.4-0.5-0.9-0.9-1.3-1.3c-0.7-0.6-1.5-1.2-2.3-1.7l0.9,0.3l7.8,3h0.1l0,0l13.2,5.1l0,0l4.3,1.7
			L25.8-177.2z"/>
		<path class="st10" d="M24.8-176.9c-0.1,0-0.2,0.1-0.3,0.1c-1.6,0.6-3.2,1.1-4.9,1.5c-0.7,0.2-1.5,0.3-2.3,0.4
			c-0.7,0.1-1.4,0.2-2.1,0.3c-1.5,0.2-3,0.3-4.5,0.3c-0.6,0-1.3,0-1.9,0c-0.8,0-1.5-0.1-2.2-0.2c0-0.9-0.1-1.7-0.2-2.5v-0.1
			c0-0.1,0-0.1,0-0.2c0-0.2-0.1-0.4-0.2-0.6c-0.3-1.2-0.7-2.3-1.3-3.4c-0.1-0.2-0.2-0.4-0.3-0.6c0,0,0,0,0.1-0.1c0,0,0,0-0.1,0
			c-0.1-0.1-0.1-0.2-0.2-0.3c-0.2-0.3-0.4-0.6-0.6-0.9c-0.4-0.6-0.8-1.1-1.3-1.7c-0.4-0.5-0.9-0.9-1.3-1.3c-0.7-0.6-1.5-1.2-2.3-1.7
			l0,0c0-0.1,0-0.2,0-0.2c0-0.1,0-0.1,0-0.2c0-1.2,0.1-2.4,0.4-3.5l9.9,5.7l0,0h0.1l11.6,6.7l0,0L24.8-176.9z"/>
		<path class="st11" d="M4.8-166.2C4-164,3-161.8,1.9-159.7c-0.7,1.3-1.5,2.5-2.3,3.7c-0.9,1.3-1.8,2.5-2.8,3.6
			c-0.7,0.8-1.5,1.6-2.3,2.4c-1.6,1.5-3.3,2.8-5.2,3.9c-1.9,1.1-3.8,2-5.8,2.6c-1.4,0.4-2.8,0.7-4.2,1c-0.7,0.1-1.3,0.2-2,0.2
			c-0.1,0-0.2,0-0.3,0c0,0,0,0-0.1,0s-0.3,0-0.4,0c-0.2,0-0.3,0-0.5,0h-0.1c-0.3,0-0.6,0-0.9,0c-0.4,0-0.8,0-1.3,0v-0.6
			c0.1-0.2,0-0.4,0-0.6c0-0.2,0-0.3,0-0.5v-0.1c0-0.1,0-0.2,0-0.3s0-0.2,0-0.3v-0.1c0-0.1,0-0.2,0-0.3s0-0.2,0-0.3c0,0,0,0,0-0.1
			s0-0.2,0-0.3s0-0.2,0-0.3c0,0,0,0,0-0.1s0-0.2,0-0.2c0.1-1.5,0.4-2.9,0.6-4.3c0.1-0.6,0.3-1.2,0.4-1.8v-0.1l0,0
			c0.5,0,1.1,0.1,1.6,0.1c1,0,2,0,3,0c0.6,0,1.1-0.1,1.7-0.1c1.8-0.2,3.5-0.5,5.2-0.9c2.1-0.6,4.2-1.3,6.1-2.3
			c2.3-1.2,4.4-2.6,6.4-4.3c0.1-0.1,0.2-0.1,0.2-0.2c0,0,0,0,0.1,0l0,0c0.1-0.1,0.2-0.2,0.3-0.3c1-0.7,1.8-1.5,2.6-2.3
			c0.7-0.8,1.3-1.6,1.9-2.5C4.4-165.7,4.6-166,4.8-166.2C4.8-166.3,4.8-166.3,4.8-166.2z"/>
		<path class="st10" d="M24.8-176.9c0.2-0.1,0.3-0.1,0.5-0.2c0.2-0.1,0.3-0.1,0.5-0.2c-1-1.7-2.2-3.2-3.6-4.7l-0.1-0.1
			c-1.2-1.3-2.4-2.4-3.8-3.4c-2-1.5-4.1-2.8-6.4-3.8c-0.1-0.1-0.3-0.1-0.4-0.2l0,0l0,0l0,0l0,0l0,0c-0.7,1.2-1.5,2.4-2.4,3.5
			c-0.5,0.6-0.9,1.1-1.5,1.7c-0.2,0.3-0.5,0.5-0.8,0.8c-0.6,0.5-1.2,1-1.8,1.4c-0.1,0.1-0.3,0.2-0.4,0.3l0,0c0,0,0,0-0.1,0.1
			c0,0.2,0.2,0.4,0.3,0.6c0.6,1.1,1,2.2,1.3,3.4c0.1,0.2,0.1,0.4,0.2,0.6c0,0.1,0,0.1,0,0.2v0.1c0.1,0.5,0.2,1,0.2,1.6l0,0l0,0
			c0.1-0.3,0-0.7,0.1-1c0-0.2,0.1-0.3,0.3-0.3h1.6c0.2,0,0.3,0.1,0.3,0.3v2.1c0.6,0,1.3,0,1.9,0c1.5,0,3-0.1,4.5-0.3v-0.4
			c0-0.6,0-0.6-0.6-0.6h-0.1c-0.2,0-0.3-0.1-0.3-0.3s0-0.3,0-0.5c0-0.4,0-0.4,0.4-0.4c1.1,0,2.2,0,3.3,0c0.6,0,0.6,0,0.6,0.5
			c0,0.7,0,0.6-0.6,0.7c-0.4,0-0.5,0.1-0.5,0.5v0.3c0.8-0.1,1.5-0.3,2.3-0.4c-0.2,0-0.2-0.1-0.2-0.4c0-0.2,0-0.5,0-0.7
			c0-0.3,0-0.4,0.4-0.4c1.6,0,3.2,0,4.7,0L24.8-176.9z"/>
		<path class="st12" d="M-22.5-159.2c0,0.1,0,0.2-0.1,0.3c-1,2-1.7,4-2.2,6.2c0,0.1,0,0.3-0.1,0.4l0,0c0,0,0,0,0,0.1
			c-0.9-0.1-1.8-0.2-2.7-0.4c-1.1-0.2-2.2-0.5-3.3-0.8s-2.2-0.7-3.3-1.2c-0.9-0.4-1.8-0.8-2.7-1.3c-1.4-0.7-2.7-1.6-3.9-2.5
			c-0.5-0.4-1-0.8-1.6-1.2c-0.1-0.1-0.1-0.1,0-0.3c0.2-0.3,0.5-0.6,0.7-0.8c0.8-0.8,1.5-1.7,2.4-2.5s1.7-1.6,2.6-2.4
			c0.5-0.5,1.1-0.9,1.6-1.4c0-0.1,0.1-0.1,0.1-0.1l0,0l0,0l0,0c0.9,0.9,1.8,1.8,2.8,2.5c1.9,1.5,3.9,2.7,6,3.7
			c1.1,0.5,2.2,1,3.4,1.4C-22.7-159.3-22.6-159.3-22.5-159.2L-22.5-159.2L-22.5-159.2z"/>
		<path class="st13" d="M-3.4-199.4L-3.4-199.4C-3.4-199.3-3.4-199.3-3.4-199.4c-0.6,0.3-1.3,0.5-1.9,0.7c-2.8,1-5.4,2.4-7.8,4.1
			c-1,0.7-2,1.5-2.9,2.4c-0.1,0.1-0.2,0.2-0.3,0.1l0,0l0,0c-0.1,0-0.1-0.1-0.2-0.2c-1.1-1.7-2.5-3.1-4-4.5c-0.2-0.2-0.5-0.4-0.6-0.6
			l0,0c0,0,0,0,0-0.1c0.2-0.5,0.6-0.9,0.9-1.3c0.5-0.7,1-1.3,1.6-1.9c0.6-0.7,1.3-1.4,2-2c1-0.9,1.9-1.7,3-2.5c1.6-1.2,3.3-2.2,5-3
			c0.8-0.4,1.6-0.7,2.3-1c0.2-0.1,0.3,0,0.4,0.2c0.4,1.4,0.9,2.7,1.3,4.1c0.4,1.4,0.7,2.8,1,4.3C-3.5-200.3-3.4-199.9-3.4-199.4z"/>
		<path class="st14" d="M-28.8-170.8C-28.8-170.7-28.8-170.7-28.8-170.8c-0.1,0.2-0.4,0.2-0.5,0.3c-1.9,0.8-3.6,2-5.3,3.2
			c-0.1,0.1-0.2,0.2-0.3,0.2l0,0l0,0c0,0-0.1,0-0.1,0.1c-0.2-0.3-0.4-0.5-0.6-0.7c-0.5-0.6-1-1.1-1.5-1.7c-0.7-0.9-1.4-1.8-2-2.7
			c-0.9-1.4-1.7-2.8-2.3-4.3c-0.5-1.1-0.9-2.3-1.3-3.5c-0.4-1.3-0.7-2.6-1-3.9c-0.1-0.4-0.1-0.4,0.3-0.4c1.3-0.2,2.7-0.4,4-0.5
			c0.6,0,1.1-0.1,1.7-0.1c0.1,0,0.3,0,0.4,0c0.4,0,0.7,0,1.1,0c0.9,0,1.8,0,2.6,0c0.1,0,0.1,0,0.2,0c0,0,0.1,0,0.1,0.1l0,0l0,0
			c0.2,1.2,0.3,2.5,0.6,3.7c0.5,2.4,1.3,4.8,2.4,7c0.5,1,1,2,1.6,2.9C-28.9-171-28.8-170.9-28.8-170.8z"/>
		<path class="st15" d="M-21.1-197.5L-21.1-197.5C-21.1-197.5-21.1-197.4-21.1-197.5c-0.2,0.4-0.4,0.7-0.6,1c-1.6,2.5-2.8,5.2-3.6,8
			c-0.4,1.5-0.8,3-1,4.6c0,0.1,0,0.2-0.1,0.3l0,0l0,0l0,0c-0.1,0-0.2,0-0.4-0.1c-1.4-0.4-2.9-0.7-4.3-0.8c-0.7-0.1-1.4-0.1-2.1-0.2
			c-0.1,0-0.2,0-0.2-0.1c0,0,0,0-0.1,0c0,0,0,0,0-0.1c0-0.2,0-0.3,0-0.5c0-0.1,0-0.2,0-0.3l0,0v-0.1c0-0.2,0-0.3,0-0.5s0-0.5,0-0.7
			c0-0.1,0-0.2,0-0.3v-0.9c0-0.1,0-0.1,0-0.2c0-0.3,0-0.6,0-0.8s0-0.3,0-0.5v-0.1l0,0c0-0.1,0-0.2,0-0.3s0-0.2,0-0.3s0-0.2,0-0.3
			s0-0.2,0-0.3c0,0,0,0,0-0.1s0-0.2,0-0.2c0.2-1.6,0.5-3.2,0.9-4.7c0.5-1.7,1.1-3.4,1.9-5.1c0.4-0.7,0.7-1.5,1.1-2.2
			c0.1-0.2,0.2-0.2,0.3-0.1c2.3,1.4,4.5,2.9,6.6,4.6c0.5,0.4,1,0.8,1.5,1.2C-21.2-197.5-21.1-197.5-21.1-197.5z"/>
		<path class="st16" d="M15.7-198.6c-0.7,1.8-1.4,3.5-2.2,5.2c-0.1,0.3-0.3,0.6-0.4,0.8l0,0c-0.5,0.9-1,1.8-1.5,2.7
			c0,0.1-0.1,0.1-0.1,0.2c0,0,0,0-0.1,0.1l0,0c0,0,0,0-0.1,0s-0.2,0-0.3-0.1c-1.9-0.8-3.8-1.4-5.8-1.8c-0.5-0.1-1-0.2-1.6-0.3
			c-0.8-0.1-1.6-0.2-2.5-0.3c-1.2-0.1-2.4-0.1-3.6-0.1c-0.2,0-0.3,0-0.5,0c-0.1,0-0.2,0-0.3-0.1l0,0c-0.1-0.1-0.1-0.3,0-0.4
			c0.2-1.9,0.1-3.8-0.2-5.7c0-0.3-0.1-0.6-0.1-0.9c0-0.1,0-0.2,0-0.3l0,0l0,0c0.9-0.2,1.9-0.5,2.8-0.7c1.1-0.2,2.2-0.3,3.3-0.5
			c0.1,0,0.2,0,0.3,0h0.1c0.1,0,0.3,0,0.4,0c0.1,0,0.3,0,0.4,0h0.1c0.3,0,0.6,0,0.9,0c0.4,0,0.8,0,1.1,0c0.3,0,0.6,0,0.9,0h0.1
			c0.1,0,0.3,0,0.4,0c0.2,0,0.3,0,0.5,0l0,0c0.1,0,0.2,0,0.3,0s0.2,0,0.3,0c0.1,0.1,0.2,0,0.3,0c1.7,0.2,3.5,0.5,5.1,1
			c0.5,0.1,1,0.3,1.5,0.4C15.8-198.9,15.8-198.8,15.7-198.6z"/>
		<path class="st17" d="M11.5-189.5c-0.4,0.7-0.9,1.4-1.3,2.1c-0.3,0.5-0.7,1-1.1,1.5c-0.2,0.2-0.4,0.5-0.6,0.7
			c-0.3,0.3-0.6,0.7-0.9,1c-0.1,0.1-0.1,0.1-0.2,0.2c-0.8,0.8-1.6,1.5-2.6,2c-0.1,0-0.2,0.1-0.2,0.1l0,0c0,0,0,0-0.1,0
			c-0.1-0.1-0.1-0.2-0.2-0.3c-0.2-0.3-0.4-0.6-0.6-0.9c-0.4-0.6-0.8-1.1-1.3-1.7c-0.4-0.5-0.9-0.9-1.3-1.3c-0.7-0.6-1.5-1.2-2.3-1.7
			l0,0c-0.8-0.5-1.7-0.9-2.6-1.3c-0.1-0.1,0-0.1,0-0.2c0.4-0.9,0.5-1.8,0.7-2.7l0,0c0,0,0,0,0-0.1c0,0,0,0,0.1-0.1l0,0
			c0.8-0.1,1.6-0.1,2.4-0.1c1.1,0,2.1,0.1,3.2,0.2c0.9,0.1,1.8,0.2,2.6,0.4c0.8,0.1,1.5,0.3,2.2,0.5
			C8.7-190.6,10.1-190.2,11.5-189.5L11.5-189.5L11.5-189.5z"/>
		<path class="st18" d="M-0.6-160.2c-2.2,1.9-4.5,3.5-7.1,4.8c-2.7,1.3-5.5,2.2-8.4,2.7c-1.4,0.2-2.7,0.4-4.1,0.5
			c-1.5,0.1-3.1,0-4.6-0.1h-0.1l0,0c0.5-2.3,1.2-4.5,2.3-6.6c0-0.1,0-0.1,0.1-0.2l0,0c0,0,0,0,0.1,0l0,0c1.3,0.4,2.5,0.8,3.8,1
			c1.4,0.3,2.9,0.5,4.3,0.6c1,0.1,1.9,0,2.8,0.1h0.1h0.1c0.2,0,0.3,0,0.5,0c0.1,0,0.1,0,0.2,0h0.1c0.2,0,0.3,0,0.5,0h0.5
			c0.2,0,0.4,0,0.6,0h0.1c0.1,0,0.3,0,0.4,0c0.1,0,0.2,0,0.2,0s0,0,0.1,0c0.9,0,1.8-0.2,2.6-0.5c1.2-0.3,2.3-0.8,3.3-1.4
			C-1.5-159.8-1.1-160-0.6-160.2C-0.6-160.3-0.6-160.3-0.6-160.2C-0.6-160.3-0.6-160.2-0.6-160.2z"/>
		<path class="st19" d="M-3-193.4c0,0.4,0,0.9-0.1,1.3l0,0v0.1l0,0c-0.6,0-1.3,0.1-1.9,0.1c-2.3,0.3-4.6,0.8-6.8,1.6
			c-0.6,0.2-1.2,0.5-1.8,0.7c-0.4,0.1-0.9,0.3-1.3,0.4c-0.2-0.2-0.2-0.5-0.3-0.7c-0.3-0.7-0.7-1.4-1.1-2.1l0,0l0,0l0,0l0,0l0,0
			c0.3-0.1,0.4-0.3,0.6-0.5c1.5-1.3,3.1-2.5,4.8-3.5c2.1-1.2,4.3-2.2,6.6-3c0.3-0.1,0.6-0.2,0.9-0.3c0.1,1,0.3,1.9,0.3,2.9
			C-3-195.4-2.9-194.4-3-193.4z"/>
		<path class="st20" d="M-20.6-161.8c-0.2,0.3-0.5,0.6-0.8,0.9c-0.3,0.4-0.6,0.9-0.9,1.4c0,0.1-0.1,0.2-0.2,0.2l0,0l0,0l0,0l0,0
			c-1-0.3-2-0.7-2.9-1.1c-2.2-1-4.2-2.2-6.1-3.6c-0.9-0.7-1.7-1.4-2.6-2.1c-0.3-0.3-0.5-0.5-0.8-0.8c-0.1-0.1-0.2-0.1-0.2-0.3l0,0
			c1.2-0.8,2.3-1.7,3.6-2.4c0.8-0.5,1.7-0.9,2.6-1.3l0,0l0,0l0,0c0.1,0.1,0.2,0.2,0.2,0.3c0.8,1.3,1.7,2.4,2.7,3.6
			c0.9,1.1,1.9,2.1,3,3c0.5,0.5,1.1,0.9,1.7,1.4C-21-162.2-20.8-162-20.6-161.8z"/>
		<path class="st21" d="M-16.3-192.1C-16.3-192-16.3-192-16.3-192.1c0,0.1-0.1,0.2-0.1,0.2c-1.1,1.1-2.2,2.2-3.1,3.4
			c-0.9,1.1-1.7,2.4-2.5,3.6c-0.3,0.5-0.6,0.9-0.8,1.4c-0.2,0.4-0.5,0.7-0.7,1.1c-0.7-0.4-1.4-0.8-2.2-1.1c-0.2-0.1-0.5-0.1-0.7-0.3
			l0,0l0,0l0,0c0.1-0.5,0.2-1.1,0.3-1.6c0.3-1.5,0.7-3,1.2-4.5s1.1-3,1.9-4.4c0.3-0.5,0.5-1,0.8-1.4c0.3-0.6,0.7-1.1,1-1.6
			c0-0.1,0.1-0.1,0.2-0.2l0,0c1,0.8,1.9,1.7,2.7,2.7C-17.6-194-16.9-193.1-16.3-192.1L-16.3-192.1L-16.3-192.1z"/>
		<path class="st22" d="M-25.7-171.5c-0.1,0.1-0.1,0.1-0.2,0.1c-0.9,0.1-1.7,0.4-2.6,0.6c-0.1,0-0.2,0.1-0.3,0.1l0,0l0,0l0,0
			c-1.7-2.8-3-5.7-3.8-8.8c-0.4-1.4-0.6-2.9-0.8-4.4c0-0.3,0-0.5-0.1-0.8l0,0c2.1,0.1,4.3,0.3,6.3,0.9c0.3,0.1,0.5,0.2,0.8,0.2l0,0
			l0,0c0.1,0.1,0.1,0.2,0,0.3c-0.3,1.8-0.2,3.6-0.2,5.4c0,1.5,0.2,2.9,0.5,4.3c0.1,0.3,0.1,0.5,0.1,0.7c0,0,0,0,0-0.1l0,0l0,0
			C-25.9-172.5-25.8-172-25.7-171.5z"/>
		<path class="st23" d="M-11.1-157.6C-11.2-157.6-11.2-157.6-11.1-157.6c-1.1,0-2,0.1-3,0c-0.5,0-1.1-0.1-1.6-0.1
			c-1.1-0.1-2.2-0.3-3.3-0.5c-1.1-0.2-2.1-0.5-3.1-0.9c-0.1,0-0.2,0-0.3-0.1l0,0c0.4-0.8,1-1.6,1.6-2.3c0.1-0.1,0.1-0.2,0.2-0.2
			c1.1,1,2.3,1.8,3.6,2.5c1.6,0.8,3.3,1.4,5.1,1.6c0.1,0,0.2,0,0.4,0.1C-11.4-157.6-11.3-157.7-11.1-157.6
			C-11.2-157.6-11.2-157.6-11.1-157.6C-11.2-157.6-11.1-157.6-11.1-157.6z"/>
		<path class="st24" d="M-21.2-162.4c-0.2,0.1-0.3-0.1-0.4-0.2c-0.7-0.5-1.3-1.1-1.9-1.6c-0.7-0.6-1.3-1.2-1.9-1.9
			c-1.3-1.4-2.4-2.9-3.4-4.5l0,0c0.9-0.3,1.7-0.6,2.6-0.7c0.2,0,0.3,0,0.5,0c0.3,1.7,0.8,3.4,1.6,4.9
			C-23.4-164.9-22.4-163.6-21.2-162.4C-21.3-162.5-21.3-162.5-21.2-162.4z"/>
		<path class="st25" d="M-3.1-192c-0.1,1-0.3,1.9-0.7,2.8c0,0.1,0,0.1-0.1,0.2c-0.7-0.2-1.3-0.5-2-0.6c-0.9-0.2-1.8-0.3-2.7-0.4
			c-0.6,0-1.3,0-1.9,0c0,0,0,0-0.1,0c0,0,0,0-0.1,0s-0.1,0-0.1,0c-0.9,0-1.7,0.2-2.6,0.4c-0.1,0-0.2,0-0.3,0l0,0c0,0-0.1,0,0,0
			c0.4-0.2,0.8-0.3,1.1-0.5c1.3-0.5,2.7-0.9,4.1-1.2c1-0.2,2.1-0.4,3.2-0.6c0.6-0.1,1.3-0.1,2-0.2C-3.3-192.1-3.2-192.1-3.1-192
			L-3.1-192z"/>
		<path class="st26" d="M-14.9-189.2c-1.1,0.4-2.2,0.9-3.2,1.5c-0.2,0.1-0.4,0.3-0.6,0.4c-0.6,0.4-1.2,0.9-1.8,1.4
			c-0.9,0.8-1.6,1.6-2.3,2.5c-0.1-0.3,0.1-0.5,0.3-0.7c0.9-1.5,1.8-3,2.9-4.4c0,0,0,0,0-0.1c0.4-0.6,0.9-1.1,1.4-1.7
			c0.5-0.5,1-1,1.5-1.5c0.1-0.1,0.3-0.2,0.4-0.4l0,0c0.5,0.6,0.7,1.2,1,1.9C-15.1-189.9-15-189.6-14.9-189.2z"/>
		<path class="st27" d="M-23.5-182.3c-0.2,0.4-0.4,0.8-0.6,1.1c-0.8,1.5-1.3,3.1-1.5,4.7c-0.1,0.6-0.2,1.2-0.2,1.8
			c0,0.1,0,0.2,0,0.3v0.1c0,0.3,0,0.5,0,0.8c0,0.1,0,0.3,0,0.4l0,0v0.4c0,0,0,0-0.1,0c-0.1-0.5-0.2-1-0.3-1.5
			c-0.2-0.9-0.3-1.9-0.4-2.9c-0.1-0.9-0.1-1.8-0.1-2.7c0-1.2,0-2.5,0.2-3.7c0-0.1,0-0.2,0-0.3l0,0l0,0c1,0.3,1.9,0.7,2.7,1.2
			C-23.6-182.4-23.6-182.3-23.5-182.3z"/>
		<path class="st28" d="M-0.3-160.5c0,0.2-0.2,0.2-0.3,0.3c0,0,0,0,0-0.1s0,0,0,0C-0.5-160.4-0.4-160.5-0.3-160.5z"/>
		<path class="st11" d="M4.9-166.6c0.1-0.1,0,0.2-0.1,0.3c0,0,0,0-0.1-0.1C4.9-166.4,4.9-166.5,4.9-166.6z"/>
		<path class="st29" d="M-11.2-157.6L-11.2-157.6c-0.1,0-0.2,0-0.2,0s0,0-0.1,0C-11.4-157.7-11.3-157.7-11.2-157.6L-11.2-157.6z"/>
		<path class="st10" d="M6.2-177.3c0-0.2-0.1-0.4-0.2-0.6c-0.3-1.2-0.7-2.3-1.3-3.4c-0.1-0.2-0.2-0.4-0.3-0.6c0,0,0,0,0.1-0.1
			c0,0,0,0-0.1,0c-0.1-0.1-0.1-0.2-0.2-0.3c-0.2-0.3-0.4-0.6-0.6-0.9c-0.4-0.6-0.8-1.1-1.3-1.7c-0.4-0.5-0.9-0.9-1.3-1.3
			c-0.7-0.6-1.5-1.2-2.3-1.7l0,0c0-0.1,0-0.2,0-0.2c0.3,0.2,0.6,0.4,0.9,0.6c1.9,1.3,3.5,3.1,4.7,5.1c0.1,0.1,0.1,0.2,0.2,0.3
			C5.3-180.5,5.9-178.9,6.2-177.3z"/>
		<path class="st10" d="M6.5-174.5L6.5-174.5C6.5-174.4,6.4-174.5,6.5-174.5C6.4-174.5,6.5-174.5,6.5-174.5z"/>
		<path class="st10" d="M25.3-177c-0.2,0.1-0.3,0.1-0.5,0.2l-4-2.3l0,0L9-185.9l-9.9-5.7c0.8-0.1,1.7-0.1,2.5-0.1
			c8.3,0,15.7,3.8,20.5,9.8l0.1,0.1c1.1,1.4,2.1,2.8,2.9,4.4C25.1-177.4,25.2-177.2,25.3-177z"/>
		<g>
			<path class="st17" d="M-10.1-189.8c0.5,0,1,0,1.6,0c0.9,0.1,1.8,0.2,2.6,0.4c0.7,0.1,1.3,0.4,2,0.6c0.9,0.4,1.7,0.8,2.6,1.3l0,0
				c0.8,0.5,1.6,1.1,2.3,1.7c0.5,0.4,0.9,0.8,1.3,1.3c0.5,0.5,0.8,1.1,1.3,1.6c0.3,0.3,0.7,0.7,0.9,1c0,0,0,0,0.1,0
				c1.1-0.6,1.8-1.4,2.8-2.2c0.2-0.2,0.4-0.3,0.6-0.5l0,0l0,0c0.1-0.1,0.2-0.2,0.4-0.4s0.4-0.4,0.6-0.6c1-1.1,1.7-2.2,2.4-3.5
				c0.1-0.1,0.1-0.3,0.2-0.4c0.1-0.1,0.1-0.3,0.2-0.4L-10.1-189.8z"/>
			<path class="st17" d="M0.9-192.2c-3.9,0-7.6,0.9-10.9,2.4l21.7-0.1C8.4-191.4,4.7-192.2,0.9-192.2z"/>
			<path class="st17" d="M-10.1-189.8L-10.1-189.8L-10.1-189.8L-10.1-189.8z"/>
		</g>
	</g>
	<g class="st1">
		<g>
			<path class="st30" d="M12.5-126.7c-0.2,0-0.3,0.2-0.5,0.2c-0.1,0-0.2,0-0.3,0c-0.2,0-0.3-0.1-0.4-0.3c-0.4-0.7-0.8-1.4-1.1-2.1
				c0.6-0.3,1.1-0.6,1.4-1.3c0.2-0.4,0.3-0.9,0.4-1.4c0-0.1,0-0.2,0-0.3v-0.1v-0.1v-0.2c0,0,0,0,0-0.1s0-0.2,0-0.3
				c-0.2-1.2-0.7-2-1.7-2.4c-0.5-0.2-1-0.3-1.6-0.4c0,0-0.1,0-0.2,0H4c-0.1,0-0.1,0-0.2,0l0,0l0,0c0,0.5,0,1,0,1.5
				c0,0.2,0,0.2,0.2,0.2c0.2,0,0.4,0,0.7,0c0.1,0.1,0,0.2,0,0.3c0,2.7,0,5.5,0,8.2c0,0.2,0,0.3,0.3,0.3l0,0c0.3,0,0.5,0,0.8,0
				s0.5,0,0.8,0l0,0h0.1c0,0,0,0,0.1,0c0,0,0,0,0-0.1v-0.1c0-0.3,0-0.7,0-1v-2.2c0-0.1,0-0.1,0-0.2c0.4,0,0.7,0,1.1,0
				c0.1,0.1,0.1,0.2,0.2,0.3c0.4,0.8,0.8,1.6,1.3,2.4c0.3,0.6,0.7,1,1.4,1.1l0,0h0.1l0,0c0,0,0,0,0.1,0h0.3h0.1c0,0,0.1,0,0.2,0
				c0.3-0.1,0.6-0.2,0.9-0.3c0-0.1,0-0.1,0-0.2v-0.1c0-0.1,0-0.2,0-0.3c0-0.1,0-0.1,0-0.2c0,0,0,0,0-0.1v-0.1
				C12.5-126.4,12.6-126.5,12.5-126.7z M9.8-131.5c-0.1,0.8-0.7,1.3-1.6,1.3c-0.4,0-0.8,0-1.2,0c-0.2,0-0.2-0.1-0.2-0.3
				c0-0.5,0-1,0-1.5s0-1,0-1.5c0-0.2,0-0.3,0.2-0.3c0.6,0,1.2-0.1,1.8,0.1c0.5,0.2,0.8,0.5,0.9,1.1C9.8-132.2,9.9-131.9,9.8-131.5z"
				/>
			<path class="st30" d="M21.4-131.1c0-0.1,0-0.2,0-0.2c-0.1-0.3-0.1-0.7-0.2-1c-0.3-1.1-0.7-2-1.5-2.6c-0.5-0.4-1.2-0.6-1.8-0.7
				c-0.1,0-0.2,0-0.3,0c0,0,0,0-0.1,0h-0.4c0,0,0,0-0.1,0s-0.2,0-0.3,0c-0.1,0-0.3,0-0.4,0.1c-1,0.2-1.8,0.8-2.4,1.7
				c-0.5,0.9-0.8,2-0.8,3.1c0,0.4,0,0.7,0,1.1c0,0.8,0.2,1.6,0.4,2.3c0.3,0.7,0.6,1.3,1.2,1.8c0.6,0.5,1.2,0.7,1.9,0.8
				c0.1,0,0.1,0,0.2,0l0,0h0.1h0.6h0.1l0,0c0.1,0,0.1,0,0.2,0h0.1c1.2-0.2,2.1-0.8,2.7-1.9c0.4-0.7,0.6-1.6,0.7-2.4
				c0-0.1,0-0.1,0-0.2v-0.1c0,0,0,0,0-0.1L21.4-131.1C21.4-131,21.4-131,21.4-131.1z M19.2-130.2c0,0.8-0.1,1.6-0.3,2.4
				c-0.4,1.1-1.1,1.4-2.1,1.2c-0.5-0.1-0.8-0.5-1-1c-0.4-0.9-0.4-1.9-0.4-2.9c0-0.7,0.1-1.4,0.3-2.1c0.3-1,1-1.4,1.9-1.3
				c0.4,0.1,0.8,0.4,1,0.8c0.4,0.7,0.5,1.5,0.5,2.3C19.2-130.6,19.2-130.4,19.2-130.2z"/>
			<path class="st30" d="M3-125.2c0,0.1,0,0.1,0,0.2c-0.3,0-0.6,0-0.8,0c-0.3,0-0.5-0.1-0.5-0.4c-0.1-0.2-0.2-0.2-0.3-0.1
				c-0.5,0.4-1,0.5-1.6,0.6c-0.1,0-0.1,0-0.2,0h-0.1H-1h-0.1c-0.1,0-0.1,0-0.2,0c-0.8-0.1-1.5-0.4-2.1-1c-0.4-0.4-0.7-1-0.9-1.6
				c-0.2-0.6-0.4-1.3-0.4-2c0-0.1,0-0.2,0-0.3v-0.1v-0.9c0,0,0-0.1,0-0.2v-0.1v-0.1c0,0,0,0,0-0.1c0.1-1,0.3-1.9,0.8-2.7
				c0.6-1,1.4-1.6,2.4-1.8c0.1,0,0.3-0.1,0.4-0.1H-1h0.1c0,0,0,0,0.1,0h0.5h0.1l0,0c0.1,0,0.2,0,0.2,0c0.7,0.1,1.4,0.4,2,1
				c0.5,0.5,0.8,1.1,0.9,1.8c0,0.1,0,0.2-0.1,0.3c-0.6,0.1-1.2,0.2-1.9,0.4c-0.1,0-0.1,0-0.1-0.1c-0.1-0.7-0.4-1.2-1-1.4
				c-0.8-0.3-1.4,0-1.8,0.7c-0.4,0.6-0.5,1.2-0.6,1.9v0.1v0.1c0,0.1,0,0.2,0,0.3v0.8c0,0.1,0,0.2,0,0.3c0,0,0,0,0,0.1v0.1
				c0,0.8,0.2,1.5,0.7,2.1c0.5,0.7,1.2,0.8,2,0.7c0.4-0.1,0.7-0.2,1-0.4c0.1-0.5,0-1,0-1.5c0-0.2-0.1-0.1-0.2-0.1H0.1
				c-0.1,0-0.2,0-0.2-0.1c0-0.4-0.1-0.9,0-1.4H3c0.1,0.1,0,0.1,0,0.2V-125.2z"/>
			<path class="st30" d="M30.1-135.3c-0.4,1.4-0.8,2.8-1.2,4.2c-0.6,1.9-1.1,3.9-1.7,5.8c0,0.1,0,0.1,0,0.2s-0.1,0-0.1,0h-2H25
				c-0.4-1.2-0.7-2.5-1.1-3.7c-0.4-1.3-0.7-2.6-1.1-3.9c-0.2-0.9-0.5-1.8-0.8-2.7c-0.1-0.2,0-0.2,0.1-0.2h1.8c0.1,0,0.2,0,0.2,0.2
				c0.6,2.3,1.2,4.6,1.8,6.9c0,0.2,0.1,0.3,0.1,0.5c0.2-1,0.5-1.9,0.7-2.9c0.3-1,0.5-2,0.8-3c0.1-0.5,0.3-1,0.4-1.5
				c0-0.1,0.1-0.2,0.2-0.2c0.6,0,1.2,0,1.7,0C30.1-135.5,30.1-135.5,30.1-135.3z"/>
			<path class="st30" d="M37.4-126.5C37.3-126.5,37.3-126.4,37.4-126.5c0,0.2,0,0.3,0,0.4s0,0.2,0,0.3v0.1c0,0.1,0,0.2,0,0.3
				c0,0.1,0,0.2,0,0.3c0,0.1,0,0.1-0.1,0.1h-0.1l0,0c-1,0-1.9,0-2.9,0c-0.9,0-1.9,0-2.8,0h-0.1c-0.2,0-0.2-0.1-0.2-0.3
				c0-2.1,0-4.2,0-6.3c0-1.2,0-2.5,0-3.7c0-0.1,0-0.2,0-0.2l0,0l0,0l0,0h0.1c0,0,0,0,0.1,0c0.9,0,1.8,0,2.8,0c0.9,0,1.8,0,2.8,0
				c0,0,0,0,0.1,0s0.2,0,0.2,0.1c0,0,0,0,0,0.1v0.1c0,0.5,0,0.9,0,1.4c-1.3,0-2.6,0-3.8,0c0,0.1,0,0.1,0,0.2c0,0.7,0,1.4,0,2.2
				c0,0.2,0,0.3,0.2,0.3c0.9,0,1.8,0,2.7,0c0.1,0,0.2,0,0.2,0.1v0.1v0.1c0,0.4,0,0.7,0,1.1c0,0.1,0,0.1,0,0.2c0,0.1-0.1,0.2-0.2,0.2
				c-0.9,0-1.8,0-2.6,0c-0.2,0-0.3,0-0.3,0.3c0,0.8,0,1.5,0,2.3c0,0.1,0,0.1,0,0.2c0.6,0,1.3,0,1.9,0c0.7,0,1.4,0,2.1,0
				C37.2-126.7,37.4-126.7,37.4-126.5z"/>
		</g>
		<g>
			<path class="st30" d="M-30.6-134.6c0,3.3,0,6.6,0,9.9c0,0.2,0,0.3-0.1,0.3l0,0h-0.1H-31c-0.3,0-0.6,0-0.9,0c-0.3-0.5-0.7-1-1-1.4
				c-0.4-0.6-0.8-1.2-1.2-1.8c-0.6-0.9-1.3-1.9-1.9-2.8c-0.1-0.1-0.2-0.3-0.3-0.5v6.5c-0.6,0-1.2,0-1.8,0c0-3.4,0-6.8,0-10.2
				c0-0.3,0.1-0.4,0.3-0.3c0.2,0,0.4,0,0.6,0c0.3-0.1,0.6,0.1,0.8,0.4c1.3,1.9,2.6,3.7,3.9,5.5c0.1,0.2,0.2,0.4,0.4,0.6
				c0.1-0.1,0-0.2,0-0.3c0-2,0-3.9,0-5.9c0-0.2,0.1-0.3,0.3-0.3c0.5,0,1,0,1.5,0C-30.6-134.8-30.6-134.7-30.6-134.6z"/>
			<path class="st30" d="M-40.1-127.6C-40.1-127.6-40.1-127.5-40.1-127.6C-40.1-127.5-40.1-127.5-40.1-127.6c0,0.2,0,0.3,0,0.3
				c-0.1,0.6-0.2,1.1-0.5,1.6c-0.5,0.8-1.2,1.2-2,1.4c-0.2,0-0.3,0.1-0.5,0.1c-0.1,0-0.2,0-0.3,0c0,0,0,0-0.1,0h-0.8h-0.1
				c-0.1,0-0.1,0-0.2,0c-0.6-0.1-1.1-0.2-1.6-0.6c-0.8-0.6-1.2-1.4-1.3-2.4c0-0.1,0-0.2,0-0.2s0,0,0-0.1c0-2,0-4.1,0-6.1
				c0-0.4,0-0.8,0-1.2c0.4-0.1,0.8,0,1.1,0s0.6,0,0.9,0c0.1,0.1,0,0.2,0,0.3v6.3c0,0.1,0,0.2,0,0.3c0,0.4,0,0.8,0.2,1.2
				c0.2,0.5,0.6,0.7,1,0.7c0,0,0,0,0.1,0s0.1,0,0.2,0h0.2c0.1,0,0.1,0,0.2,0c0,0,0,0,0.1,0c0.5,0,1-0.4,1.2-1.3c0-0.1,0-0.2,0.1-0.3
				v-0.1c0-0.1,0-0.2,0-0.2v-6.6c0-0.1,0-0.2,0-0.3c0.6,0,1.2,0,1.8,0c0.2,0,0.3,0.1,0.3,0.3C-40.1-132.3-40.1-129.9-40.1-127.6z"/>
			<path class="st30" d="M-48.8-127.5v0.2v0.1l0,0c0,0.1,0,0.2,0,0.2c-0.1,1-0.6,1.8-1.4,2.3c-0.4,0.2-0.9,0.4-1.4,0.4
				c-0.1,0-0.1,0-0.2,0h-0.1h-0.7h-0.1c-0.1,0-0.2,0-0.2,0c-0.8-0.1-1.5-0.3-2.2-0.6c-0.1-0.1,0-0.3,0-0.4c0-0.2,0-0.4,0-0.6
				c0-0.1,0-0.1,0-0.2c0-0.2,0-0.3,0-0.5c0-0.1,0-0.2,0-0.3c0.7,0.4,1.4,0.7,2.2,0.8c0,0,0,0,0.1,0s0.1,0,0.2,0c0.5,0,0.9,0,1.3-0.2
				c0.4-0.2,0.6-0.5,0.6-0.9s-0.2-0.8-0.5-1c-0.4-0.3-0.8-0.4-1.3-0.5c-0.5-0.2-1.1-0.4-1.6-0.7c-0.7-0.3-1-1-1.1-1.7
				c-0.2-1-0.1-1.9,0.4-2.7c0.4-0.7,1-1,1.7-1.2c0.2-0.1,0.5-0.1,0.8-0.1c0.1,0,0.2,0,0.2,0h0.1h0.3c0,0,0,0,0.1,0s0.1,0,0.2,0
				c0.1,0,0.2,0,0.3,0c0,0,0,0,0.1,0s0.1,0,0.2,0c0.5,0,0.9,0.2,1.4,0.3l0,0c0.1,0.1,0,0.2,0,0.3l0,0c0,0.2,0,0.4,0,0.7v0.1
				c0,0.2,0,0.4,0,0.5c0,0.2-0.1,0.1-0.2,0.1c-0.4-0.2-0.9-0.3-1.4-0.4c-0.1-0.1-0.2,0-0.3,0c-0.4-0.1-0.9,0-1.3,0.2
				c-0.4,0.2-0.6,0.5-0.7,0.9c0,0.4,0.1,0.7,0.4,0.9c0.3,0.3,0.6,0.4,0.9,0.5c0.7,0.2,1.5,0.5,2.1,1c0.6,0.4,0.9,1,1,1.7
				c0,0.1,0,0.2,0.1,0.3C-48.8-127.7-48.8-127.6-48.8-127.5L-48.8-127.5z"/>
			<path class="st30" d="M-9.5-133.3c0,0.2-0.1,0.2-0.2,0.2h-2.2c-0.1,0-0.2,0-0.3,0c0,0.1,0,0.2,0,0.3c0,2.7,0,5.4,0,8.1
				c0,0.2,0,0.3,0,0.3l0,0l0,0h-0.1h-0.4h-0.1c-0.4,0-0.8,0-1.2,0h-0.1c-0.1,0-0.2,0-0.2-0.2c0-2.7,0-5.5,0-8.2l0,0
				c0.1-0.3,0-0.4-0.3-0.4c-0.7,0-1.5,0-2.2,0c-0.2,0-0.2,0-0.2-0.2c0-0.4,0-0.8,0-1.2c0-0.2,0-0.3,0.2-0.3c1.9,0,3.8,0,5.7,0
				c0.5,0,1.1,0,1.6,0C-9.5-134.4-9.5-133.8-9.5-133.3z"/>
			<path class="st30" d="M-22.7-125.9c0,0.1,0,0.2,0,0.3c0,0.1,0,0.2,0,0.4v0.1c0,0.1,0,0.2,0,0.3c0,0.1,0,0.2,0,0.3v0.1
				c0,0,0,0-0.1,0.1h-0.1c-0.9,0-1.9,0-2.9,0h-0.9c-0.6,0-1.3,0-1.9,0c-0.1,0-0.2,0-0.2-0.1l0,0v-0.1v-3.9c0-0.1,0-0.2,0-0.3v-1
				c0-0.3,0-0.6,0-0.9c0-0.9,0-1.8,0-2.6l0,0c0-0.4,0-0.8,0-1.2c0-0.2,0-0.3,0.2-0.3c0.6,0,1.1,0,1.7,0c0.2,0,0.2,0.1,0.2,0.3
				c0,1.9,0,3.7,0,5.6v0.3c0,0.3,0,0.7,0,1v0.6c0,0.3,0,0.7,0,1h0.1C-25.3-125.9-24-125.9-22.7-125.9
				C-22.7-126-22.7-125.9-22.7-125.9z"/>
			<path class="st30" d="M-18.8-133.2c0,0.9,0,1.7,0,2.6c0,1.6,0,3.2,0,4.8v0.1c0.2,0.1,0.4,0,0.5,0s0.1,0,0.2,0h0.1c0,0,0,0,0.1,0
				c0,0,0,0.1,0,0.2c0,0.3,0,0.6,0,0.9v0.1c0,0.1,0,0.1-0.1,0.1l0,0c0,0,0,0-0.1,0c-0.6,0-1.2,0-1.8,0c-0.6,0-1.2,0-1.9,0
				c-0.1,0-0.1,0-0.2-0.1l0,0v-0.1c0-0.2,0-0.3,0-0.5v-0.1c0-0.1,0-0.2,0-0.3c0-0.1,0-0.2,0.1-0.2c0,0,0,0,0.1,0c0.2,0,0.5,0,0.7,0
				c0-0.1,0-0.2,0-0.3c0-1.3,0-2.5,0-3.8c0-1.2,0-2.3,0-3.4c0-0.2-0.1-0.3-0.2-0.2c-0.2,0-0.3,0-0.5,0s-0.2-0.1-0.2-0.2
				c0-0.3,0-0.6,0-1c0-0.1,0-0.2,0.2-0.2c1.2,0,2.5,0,3.7,0c0.1,0,0.2,0.1,0.2,0.2c0,0.3,0,0.7,0,1c0,0.2-0.1,0.2-0.2,0.2
				c-0.2,0-0.4,0-0.6,0C-18.7-133.5-18.8-133.4-18.8-133.2z"/>
		</g>
	</g>
</g>
<path class="st31" d="M468.1-109.2c-10.7,0-19.3,8.7-19.3,19.3v25.1h2.6v-25.1c0-9.2,7.5-16.7,16.7-16.7c3.6,0,6.9,1.1,9.6,3.1
	c-1.5-0.6-3.2-0.9-5-0.9c-8.1,0-14.6,6.6-14.6,14.6v24.9h2.6v-24.7c0-4,3.3-7.3,7.3-7.3c1.2,0,2.3,0.3,3.2,0.8
	c-3.1,0.3-5.6,2.9-5.6,6.1v25.1h2.6v-25.1c0-1.9,1.6-3.5,3.5-3.5c1.7,0,3,1.2,3.4,2.7c0.1,0.4,0.1,0.8,0.1,1.2v24.7h2.6v-24.7v-0.4
	c0-0.5-0.1-0.9-0.2-1.4c-0.8-4.6-4.9-8.2-9.7-8.2c-1,0-1.9,0.2-2.9,0.4c2.1-1.7,4.7-2.7,7.6-2.7c6.6,0,12,5.4,12,12v24.9h2.6v-25.1
	C487.4-100.5,478.8-109.2,468.1-109.2"/>
<text transform="matrix(1 0 0 1 162.1742 -59.4159)" style="font-family:'MyriadPro-Regular'; font-size:15.9801px;">Pokhran Road 1,Thane West.</text>
<g>
	<path class="st31" d="M51.9,5.9c-22.1,0-40.1,18-40.1,40.1v52.1h5.5V46c0-19.1,15.5-34.7,34.7-34.7c7.4,0,14.4,2.4,20,6.4
		c-3.2-1.2-6.7-1.8-10.3-1.8c-16.8,0-30.4,13.6-30.4,30.4V98h5.5V46.7c0-8.4,6.8-15.2,15.2-15.2c2.4,0,4.7,0.6,6.7,1.6
		c-6.5,0.5-11.7,6.1-11.7,12.7V98h5.5V45.9c0-4,3.3-7.3,7.3-7.3c3.5,0,6.3,2.4,7.1,5.6c0.1,0.8,0.2,1.7,0.2,2.5V98h5.5V46.7v-0.8
		c0-1-0.1-1.9-0.3-2.9c-1.7-9.6-10.1-17-20.2-17c-2.1,0-4,0.3-5.9,0.9c4.3-3.5,9.8-5.7,15.8-5.7c13.8,0,24.9,11.2,24.9,24.9V98h5.5
		V45.9C92,23.9,74.1,5.9,51.9,5.9"/>
	<g>
		<g>
			<polygon class="st32" points="144.3,21.2 132.2,6.5 129.3,6.5 129.3,25.6 131.5,25.6 131.5,10.3 144,25.6 146.5,25.6 146.5,6.5 
				144.3,6.5 			"/>
			<path class="st32" d="M199.2,15.5c1-0.9,1.6-2.3,1.6-3.4c0-1.4-0.5-2.7-1.4-3.6c-1.6-1.6-3.1-2-7-2h-10.3v19.1h3.1v-8.3h7.2
				l5,8.3h3.7l-5.4-8.6C197.1,16.8,198.3,16.3,199.2,15.5z M185.2,15.4v-7h7.7c2.6,0,4.7,0.6,4.7,3.6c0,2.2-1.7,3.4-4.2,3.4H185.2z"
				/>
			<path class="st32" d="M279.2,16.1H277h-3.1v1.8h3.1v4c-1.1,1-3.1,2.3-6,2.3c-4.4,0-8.1-3.1-8.1-8c0-4.9,3.2-8.6,7.9-8.6
				c3,0,5.5,1.4,7.4,3l1.5-1.6c-2.2-1.9-5.1-3.2-8.7-3.2c-6.5,0-11.5,4.4-11.5,10.4c-0.1,6,5.3,9.9,11,9.9c5,0,8-2.2,9.7-4.1v-4.1
				v-1.8H279.2z"/>
			<polygon class="st32" points="250.1,21.2 238,6.5 235.1,6.5 235.1,25.6 237.3,25.6 237.3,10.3 249.9,25.6 252.4,25.6 252.4,6.5 
				250.1,6.5 			"/>
			<path class="st32" d="M162.4,6.5l-9.3,19.1h2.6l2.3-5.1h10.8l2.5,5.1h3.5l-9.3-19.1H162.4z M158.8,18.7l4.5-9.7l4.7,9.7H158.8z"
				/>
			<path class="st32" d="M215.7,6.5l-9.3,19.1h2.6l2.3-5.1h10.8l2.5,5.1h3.5l-9.2-19.1H215.7z M212.1,18.7l4.5-9.7l4.7,9.7H212.1z"
				/>
		</g>
		<g>
			<path class="st32" d="M250.4,36l-12.6,25.6h2.9l3.3-7.3H259l3.5,7.3h3.8L253.9,36H250.4z M245,52.4l6.5-14l6.7,14H245z"/>
			<path class="st32" d="M142.1,36h-12.8v25.6h3.3V50.5h11.5c2.8,0,4.9-0.7,6.5-2.2c1.5-1.4,2.2-3.3,2.2-4.9c0-1.8-0.7-3.6-1.9-4.8
				C148.7,36.5,146.9,36,142.1,36z M143.7,48.3h-11.1v-10h10.5c3.4,0,6.3,1,6.3,5.1C149.4,46.5,147.2,48.3,143.7,48.3z"/>
			<path class="st32" d="M321.8,35.4c-7.9,0-14.4,6.1-14.4,13.5c0,7.5,6.5,13.5,14.4,13.5c7.9,0,14.4-6.1,14.4-13.5
				C336.2,41.4,329.7,35.4,321.8,35.4z M321.8,60.4c-6.6,0-10.8-5.2-10.8-11.6s4.2-11.6,10.8-11.6c6.6,0,10.8,5.2,10.8,11.6
				S328.4,60.4,321.8,60.4z"/>
			<polygon class="st32" points="223.3,57.9 212.5,36.1 208.7,36.1 221.3,61.7 223.7,61.7 236.8,36.1 233.9,36.1 			"/>
			<path class="st32" d="M183.4,48.3c1.5-1.4,2.2-3.3,2.2-4.9c0-1.8-0.7-3.6-1.8-4.8c-2.3-2.2-4.1-2.6-9-2.6h-13.5v25.6h3.3V50.5
				h10.9l6.7,11.2h3.8l-7-11.3C180.8,50.1,182.3,49.4,183.4,48.3z M164.7,48.3v-10h11.4c3.4,0,6.2,1,6.2,5.1c0,3-2.2,4.9-5.7,4.9
				H164.7z"/>
			<path class="st32" d="M285.8,36h-11.8v25.6h11.8c4,0,7.4-1.2,9.8-3.6c2.3-2.2,3.9-5.4,3.9-9.4c0-3.5-1.4-6.5-3.6-8.8
				C293.5,37.5,290.1,36,285.8,36z M285.1,59.3h-7.9v-21h7.4c4,0,6.3,0.9,8.6,3.2c1.6,1.7,2.8,4,2.8,7.1
				C296.1,54,292.7,59.3,285.1,59.3z"/>
			<rect x="196.9" y="36.1" class="st32" width="3.3" height="25.6"/>
		</g>
		<line class="st33" x1="129.3" y1="71.5" x2="336.2" y2="71.5"/>
		<g>
			<path d="M136.5,89.2c-0.3,0.5-0.7,0.9-1.2,1.2c-0.6,0.3-1.3,0.5-2.2,0.5h-2v4.4h-1.8V84.4h3.7c0.8,0,1.5,0.1,2.1,0.4
				c0.6,0.3,1,0.7,1.3,1.2c0.3,0.5,0.4,1,0.4,1.6C136.9,88.1,136.7,88.7,136.5,89.2z M134.6,88.9c0.3-0.3,0.5-0.7,0.5-1.3
				c0-1.2-0.7-1.8-2-1.8h-2v3.5h2C133.7,89.4,134.2,89.2,134.6,88.9z"/>
			<path d="M140.1,94.8c-0.7-0.4-1.2-0.9-1.5-1.6c-0.4-0.7-0.6-1.4-0.6-2.3c0-0.9,0.2-1.6,0.6-2.3c0.4-0.7,0.9-1.2,1.6-1.6
				c0.7-0.4,1.4-0.5,2.2-0.5c0.8,0,1.6,0.2,2.2,0.5c0.7,0.4,1.2,0.9,1.6,1.6c0.4,0.7,0.6,1.4,0.6,2.3c0,0.9-0.2,1.6-0.6,2.3
				c-0.4,0.7-0.9,1.2-1.6,1.6c-0.7,0.4-1.4,0.6-2.3,0.6C141.5,95.3,140.8,95.2,140.1,94.8z M143.6,93.5c0.4-0.2,0.7-0.5,1-1
				c0.2-0.4,0.4-1,0.4-1.6c0-0.6-0.1-1.2-0.4-1.6c-0.2-0.4-0.6-0.8-1-1c-0.4-0.2-0.8-0.3-1.3-0.3c-0.5,0-0.9,0.1-1.3,0.3
				c-0.4,0.2-0.7,0.5-0.9,1c-0.2,0.4-0.3,1-0.3,1.6c0,0.9,0.2,1.6,0.7,2.1c0.5,0.5,1.1,0.8,1.8,0.8
				C142.8,93.8,143.2,93.7,143.6,93.5z"/>
			<path d="M151.9,90.9l4,4.3h-2.4l-3.2-3.7v3.7h-1.8V83.7h1.8v6.7l3.1-3.8h2.5L151.9,90.9z"/>
			<path d="M163.4,86.9c0.5,0.3,0.9,0.7,1.2,1.2c0.3,0.6,0.4,1.2,0.4,2v5.1h-1.8v-4.8c0-0.8-0.2-1.4-0.6-1.8
				c-0.4-0.4-0.9-0.6-1.6-0.6s-1.2,0.2-1.6,0.6c-0.4,0.4-0.6,1-0.6,1.8v4.8h-1.8V83.7h1.8v3.9c0.3-0.4,0.7-0.6,1.1-0.8
				c0.5-0.2,1-0.3,1.5-0.3C162.3,86.5,162.8,86.6,163.4,86.9z"/>
			<path d="M170.1,86.8c0.4-0.2,0.9-0.4,1.5-0.4v1.8h-0.5c-0.7,0-1.2,0.2-1.6,0.5c-0.4,0.4-0.5,1-0.5,1.8v4.5h-1.8v-8.6h1.8v1.2
				C169.3,87.4,169.7,87.1,170.1,86.8z"/>
			<path d="M173.2,88.6c0.4-0.7,0.8-1.2,1.5-1.6c0.6-0.4,1.3-0.6,2.1-0.6c0.7,0,1.3,0.1,1.8,0.4c0.5,0.3,0.9,0.6,1.2,1v-1.2h1.8v8.6
				h-1.8v-1.3c-0.3,0.4-0.7,0.7-1.2,1c-0.5,0.3-1.1,0.4-1.8,0.4c-0.7,0-1.4-0.2-2-0.6c-0.6-0.4-1.1-0.9-1.5-1.6
				c-0.4-0.7-0.5-1.5-0.5-2.3C172.7,90,172.9,89.2,173.2,88.6z M179.3,89.4c-0.2-0.4-0.6-0.8-1-1c-0.4-0.2-0.8-0.3-1.3-0.3
				c-0.5,0-0.9,0.1-1.3,0.3s-0.7,0.6-1,1c-0.2,0.4-0.4,0.9-0.4,1.5c0,0.6,0.1,1.1,0.4,1.6c0.2,0.4,0.6,0.8,1,1
				c0.4,0.2,0.8,0.4,1.3,0.4c0.5,0,0.9-0.1,1.3-0.3c0.4-0.2,0.7-0.6,1-1c0.2-0.4,0.4-1,0.4-1.6C179.7,90.3,179.6,89.8,179.3,89.4z"
				/>
			<path d="M190,86.9c0.5,0.3,1,0.7,1.3,1.2c0.3,0.6,0.5,1.2,0.5,2v5.1h-1.8v-4.8c0-0.8-0.2-1.4-0.6-1.8c-0.4-0.4-0.9-0.6-1.6-0.6
				c-0.7,0-1.2,0.2-1.6,0.6c-0.4,0.4-0.6,1-0.6,1.8v4.8h-1.8v-8.6h1.8v1c0.3-0.4,0.7-0.6,1.1-0.8c0.5-0.2,0.9-0.3,1.4-0.3
				C188.9,86.5,189.5,86.6,190,86.9z"/>
			<path d="M203.6,95.2l-2.5-4.3h-1.4v4.3H198V84.4h3.7c0.8,0,1.5,0.1,2.1,0.4c0.6,0.3,1,0.7,1.3,1.2c0.3,0.5,0.4,1,0.4,1.6
				c0,0.7-0.2,1.3-0.6,1.9c-0.4,0.6-1,1-1.9,1.2l2.7,4.5H203.6z M199.8,89.5h2c0.7,0,1.2-0.2,1.5-0.5c0.3-0.3,0.5-0.8,0.5-1.3
				c0-0.6-0.2-1-0.5-1.3c-0.3-0.3-0.8-0.5-1.5-0.5h-2V89.5z"/>
			<path d="M209.4,94.8c-0.7-0.4-1.2-0.9-1.5-1.6c-0.4-0.7-0.6-1.4-0.6-2.3c0-0.9,0.2-1.6,0.6-2.3c0.4-0.7,0.9-1.2,1.6-1.6
				c0.7-0.4,1.4-0.5,2.2-0.5c0.8,0,1.6,0.2,2.2,0.5c0.7,0.4,1.2,0.9,1.6,1.6c0.4,0.7,0.6,1.4,0.6,2.3c0,0.9-0.2,1.6-0.6,2.3
				c-0.4,0.7-0.9,1.2-1.6,1.6c-0.7,0.4-1.4,0.6-2.3,0.6C210.8,95.3,210.1,95.2,209.4,94.8z M212.9,93.5c0.4-0.2,0.7-0.5,1-1
				c0.2-0.4,0.4-1,0.4-1.6c0-0.6-0.1-1.2-0.4-1.6c-0.2-0.4-0.6-0.8-1-1c-0.4-0.2-0.8-0.3-1.3-0.3s-0.9,0.1-1.3,0.3
				c-0.4,0.2-0.7,0.5-0.9,1c-0.2,0.4-0.3,1-0.3,1.6c0,0.9,0.2,1.6,0.7,2.1c0.5,0.5,1.1,0.8,1.8,0.8
				C212.1,93.8,212.5,93.7,212.9,93.5z"/>
			<path d="M217.8,88.6c0.4-0.7,0.8-1.2,1.5-1.6c0.6-0.4,1.3-0.6,2.1-0.6c0.7,0,1.3,0.1,1.8,0.4c0.5,0.3,0.9,0.6,1.2,1v-1.2h1.8v8.6
				h-1.8v-1.3c-0.3,0.4-0.7,0.7-1.2,1c-0.5,0.3-1.1,0.4-1.8,0.4c-0.7,0-1.4-0.2-2-0.6c-0.6-0.4-1.1-0.9-1.5-1.6
				c-0.4-0.7-0.5-1.5-0.5-2.3C217.2,90,217.4,89.2,217.8,88.6z M223.9,89.4c-0.2-0.4-0.6-0.8-1-1c-0.4-0.2-0.8-0.3-1.3-0.3
				s-0.9,0.1-1.3,0.3s-0.7,0.6-1,1c-0.2,0.4-0.4,0.9-0.4,1.5c0,0.6,0.1,1.1,0.4,1.6c0.2,0.4,0.6,0.8,1,1c0.4,0.2,0.8,0.4,1.3,0.4
				c0.5,0,0.9-0.1,1.3-0.3c0.4-0.2,0.7-0.6,1-1c0.2-0.4,0.4-1,0.4-1.6C224.3,90.3,224.1,89.8,223.9,89.4z"/>
			<path d="M228.3,88.6c0.4-0.7,0.8-1.2,1.5-1.6c0.6-0.4,1.3-0.6,2.1-0.6c0.6,0,1.1,0.1,1.7,0.4c0.5,0.2,1,0.6,1.3,1v-4.1h1.8v11.5
				h-1.8v-1.3c-0.3,0.4-0.7,0.8-1.2,1s-1.1,0.4-1.8,0.4c-0.7,0-1.4-0.2-2.1-0.6c-0.6-0.4-1.1-0.9-1.5-1.6c-0.4-0.7-0.5-1.5-0.5-2.3
				C227.8,90,228,89.2,228.3,88.6z M234.5,89.4c-0.2-0.4-0.6-0.8-1-1c-0.4-0.2-0.8-0.3-1.3-0.3s-0.9,0.1-1.3,0.3
				c-0.4,0.2-0.7,0.6-1,1c-0.2,0.4-0.4,0.9-0.4,1.5c0,0.6,0.1,1.1,0.4,1.6c0.2,0.4,0.6,0.8,1,1c0.4,0.2,0.8,0.4,1.3,0.4
				c0.5,0,0.9-0.1,1.3-0.3c0.4-0.2,0.7-0.6,1-1c0.2-0.4,0.4-1,0.4-1.6C234.8,90.3,234.7,89.8,234.5,89.4z"/>
			<path d="M242.5,85.5v-1.6h3.2v11.4H244v-9.7H242.5z"/>
			<path d="M250.4,93.1l-1.9,4.3h-1.2l1.1-4.3H250.4z"/>
			<path d="M259,84.4v1.5h-2.9v9.4h-1.8v-9.4h-2.9v-1.5H259z"/>
			<path d="M267,86.9c0.5,0.3,0.9,0.7,1.2,1.2c0.3,0.6,0.4,1.2,0.4,2v5.1h-1.8v-4.8c0-0.8-0.2-1.4-0.6-1.8c-0.4-0.4-0.9-0.6-1.6-0.6
				c-0.7,0-1.2,0.2-1.6,0.6c-0.4,0.4-0.6,1-0.6,1.8v4.8h-1.8V83.7h1.8v3.9c0.3-0.4,0.7-0.6,1.1-0.8c0.5-0.2,1-0.3,1.5-0.3
				C265.9,86.5,266.5,86.6,267,86.9z"/>
			<path d="M270.8,88.6c0.4-0.7,0.8-1.2,1.5-1.6c0.6-0.4,1.3-0.6,2.1-0.6c0.7,0,1.3,0.1,1.8,0.4c0.5,0.3,0.9,0.6,1.2,1v-1.2h1.8v8.6
				h-1.8v-1.3c-0.3,0.4-0.7,0.7-1.2,1c-0.5,0.3-1.1,0.4-1.8,0.4c-0.7,0-1.4-0.2-2-0.6c-0.6-0.4-1.1-0.9-1.5-1.6
				c-0.4-0.7-0.5-1.5-0.5-2.3C270.3,90,270.5,89.2,270.8,88.6z M277,89.4c-0.2-0.4-0.6-0.8-1-1c-0.4-0.2-0.8-0.3-1.3-0.3
				c-0.5,0-0.9,0.1-1.3,0.3s-0.7,0.6-1,1c-0.2,0.4-0.4,0.9-0.4,1.5c0,0.6,0.1,1.1,0.4,1.6c0.2,0.4,0.6,0.8,1,1
				c0.4,0.2,0.8,0.4,1.3,0.4c0.5,0,0.9-0.1,1.3-0.3c0.4-0.2,0.7-0.6,1-1c0.2-0.4,0.4-1,0.4-1.6C277.3,90.3,277.2,89.8,277,89.4z"/>
			<path d="M287.6,86.9c0.5,0.3,1,0.7,1.3,1.2c0.3,0.6,0.5,1.2,0.5,2v5.1h-1.8v-4.8c0-0.8-0.2-1.4-0.6-1.8c-0.4-0.4-0.9-0.6-1.6-0.6
				c-0.7,0-1.2,0.2-1.6,0.6c-0.4,0.4-0.6,1-0.6,1.8v4.8h-1.8v-8.6h1.8v1c0.3-0.4,0.7-0.6,1.1-0.8c0.5-0.2,0.9-0.3,1.4-0.3
				C286.5,86.5,287.1,86.6,287.6,86.9z"/>
			<path d="M299.4,91.6h-6.6c0.1,0.7,0.3,1.2,0.8,1.7c0.5,0.4,1,0.6,1.7,0.6c1,0,1.6-0.4,2-1.2h1.9c-0.3,0.8-0.7,1.4-1.4,1.9
				c-0.7,0.5-1.5,0.8-2.5,0.8c-0.8,0-1.6-0.2-2.2-0.6c-0.7-0.4-1.2-0.9-1.5-1.6c-0.4-0.7-0.6-1.4-0.6-2.3c0-0.9,0.2-1.7,0.5-2.3
				c0.4-0.7,0.9-1.2,1.5-1.6c0.6-0.4,1.4-0.5,2.2-0.5c0.8,0,1.5,0.2,2.2,0.5c0.6,0.4,1.1,0.8,1.5,1.5s0.5,1.4,0.5,2.2
				C299.5,91,299.4,91.3,299.4,91.6z M297.6,90.1c0-0.7-0.2-1.2-0.7-1.6c-0.5-0.4-1-0.6-1.7-0.6c-0.6,0-1.1,0.2-1.6,0.6
				s-0.7,0.9-0.8,1.6H297.6z"/>
			<path d="M306.8,94.4c-0.5-1.5-0.8-3.1-0.8-4.8c0-1.8,0.3-3.4,0.9-5c0.6-1.6,1.5-2.9,2.6-3.9h1.8v0.2c-1.2,1.1-2.1,2.4-2.7,4
				c-0.6,1.5-0.9,3.1-0.9,4.8c0,1.6,0.3,3.1,0.8,4.6c0.6,1.5,1.4,2.8,2.4,3.9v0.2h-1.8C308.2,97.1,307.4,95.9,306.8,94.4z"/>
			<path d="M327,84.4l-3.2,10.8h-2l-2.3-8.2l-2.4,8.2l-2,0l-3.1-10.9h1.9l2.2,8.8l2.4-8.8h2l2.3,8.8l2.3-8.8H327z"/>
			<path d="M328.1,98.1v-0.2c1.1-1.1,1.9-2.4,2.4-3.9c0.6-1.5,0.8-3,0.8-4.6c0-1.6-0.3-3.2-0.9-4.8c-0.6-1.5-1.5-2.9-2.7-4v-0.2h1.8
				c1.1,1,2,2.3,2.6,3.9c0.6,1.6,0.9,3.2,0.9,5c0,1.7-0.3,3.3-0.8,4.8c-0.5,1.5-1.3,2.7-2.3,3.7H328.1z"/>
		</g>
	</g>
	<line class="st33" x1="110.8" y1="5.9" x2="110.8" y2="98.1"/>
</g>
</svg>
