<?xml version="1.0" encoding="utf-8"?>
<!-- Generator: Adobe Illustrator 24.3.0, SVG Export Plug-In . SVG Version: 6.00 Build 0)  -->
<svg version="1.1" id="Layer_1" xmlns="http://www.w3.org/2000/svg" xmlns:xlink="http://www.w3.org/1999/xlink" x="0px" y="0px"
	 viewBox="0 0 218 59" style="enable-background:new 0 0 218 59;" xml:space="preserve">
<style type="text/css">
	.st0{fill:none;stroke:#221E1F;stroke-width:9.465126e-02;stroke-miterlimit:10;}
	.st1{fill:#9D7F1B;}
	.st2{fill-rule:evenodd;clip-rule:evenodd;fill:#6D6E71;}
	.st3{fill:#6D6E71;}
</style>
<g>
	<line class="st0" x1="120.7" y1="14.3" x2="120.7" y2="44.7"/>
	<polygon class="st1" points="32.2,25.3 32.2,13.5 35,13.5 35,23 44.1,23 44.1,25.3 	"/>
	<path class="st1" d="M60.5,19.4c0,1.7-0.7,3.2-2,4.3c-0.7,0.6-1.6,1.1-2.6,1.4c-1,0.3-2.1,0.5-3.3,0.5c-1.2,0-2.3-0.2-3.3-0.5
		c-1-0.3-1.9-0.8-2.6-1.4c-0.7-0.6-1.2-1.2-1.5-1.9c-0.3-0.7-0.5-1.5-0.5-2.4c0-0.9,0.2-1.6,0.5-2.4c0.3-0.7,0.8-1.4,1.5-1.9
		c0.7-0.6,1.6-1.1,2.7-1.4c1-0.3,2.1-0.5,3.3-0.5c1.2,0,2.3,0.2,3.3,0.5c1,0.3,1.9,0.8,2.7,1.4C59.9,16.2,60.5,17.7,60.5,19.4
		 M57.6,19.4c0-0.6-0.1-1.1-0.4-1.6c-0.2-0.5-0.6-0.9-1-1.2c-0.4-0.3-1-0.6-1.6-0.8c-0.6-0.2-1.3-0.3-2.1-0.3
		c-0.8,0-1.5,0.1-2.1,0.3c-0.6,0.2-1.2,0.5-1.6,0.8c-0.4,0.3-0.8,0.8-1,1.2c-0.2,0.5-0.4,1-0.4,1.6c0,0.6,0.1,1.1,0.3,1.6
		c0.2,0.5,0.6,0.9,1,1.2c0.4,0.3,1,0.6,1.6,0.8c0.6,0.2,1.3,0.3,2.1,0.3c0.8,0,1.5-0.1,2.1-0.3c0.6-0.2,1.2-0.5,1.6-0.8
		c0.4-0.3,0.8-0.8,1-1.2C57.5,20.5,57.6,20,57.6,19.4"/>
	<path class="st1" d="M73.7,13.9c0.9,0.3,1.6,0.7,2.2,1.2c0.6,0.5,1.1,1.2,1.4,1.9c0.3,0.7,0.5,1.6,0.5,2.5c0,1.7-0.7,3.1-2.1,4.2
		c-0.6,0.5-1.3,0.8-2.1,1.1c-0.8,0.3-1.6,0.4-2.5,0.4h-8.3V13.5h7.9C71.9,13.5,72.9,13.7,73.7,13.9 M72.8,22.6
		c0.6-0.3,1-0.6,1.4-1.1c0.5-0.6,0.7-1.3,0.7-2c0-0.5-0.1-1-0.3-1.5c-0.2-0.5-0.5-0.8-0.8-1.2c-0.3-0.3-0.8-0.6-1.2-0.8
		c-0.5-0.2-1-0.3-1.6-0.3h-5.2V23H71C71.6,23,72.2,22.9,72.8,22.6"/>
	<polygon class="st1" points="91.8,25.3 91.8,20.2 83.4,20.2 83.4,25.3 80.5,25.3 80.5,13.5 83.4,13.5 83.4,17.8 91.8,17.8 
		91.8,13.5 94.7,13.5 94.7,25.3 	"/>
	<path class="st1" d="M109.6,25.3l-1.3-2.5h-7.5l-1.3,2.5h-2.9l6.2-11.7h3.5l6.2,11.7H109.6z M104.5,15.7l-2.6,4.8h5.2L104.5,15.7z"
		/>
	<g>
		<rect x="8.6" y="41.4" class="st2" width="19.7" height="3.1"/>
		<rect x="8.6" y="13.6" class="st2" width="19.7" height="3.1"/>
		<rect x="8.6" y="20.6" class="st2" width="19.7" height="3.1"/>
		<rect x="8.6" y="27.5" class="st2" width="19.7" height="3.1"/>
		<rect x="8.6" y="34.5" class="st2" width="19.7" height="3.2"/>
	</g>
	<g>
		<path class="st3" d="M38,28.9c0.3,0.1,0.5,0.2,0.7,0.4c0.2,0.2,0.4,0.4,0.5,0.6c0.1,0.3,0.2,0.6,0.2,0.9c0,0.4-0.1,0.7-0.2,0.9
			c-0.1,0.3-0.3,0.5-0.5,0.7c-0.2,0.2-0.5,0.3-0.7,0.4S37.3,33,37,33h-3.6v2.7h-1.1v-6.9h4.8C37.4,28.8,37.7,28.8,38,28.9z
			 M33.4,31.9H37c0.2,0,0.3,0,0.5,0c0.1,0,0.3-0.1,0.4-0.2c0.1-0.1,0.2-0.2,0.3-0.3c0.1-0.1,0.1-0.3,0.1-0.5c0-0.2,0-0.4-0.1-0.5
			s-0.2-0.2-0.3-0.3c-0.1-0.1-0.2-0.1-0.4-0.2c-0.2,0-0.3-0.1-0.5-0.1h-3.5V31.9z"/>
		<path class="st3" d="M48.5,30.9c0,0.5-0.1,1-0.4,1.3s-0.7,0.6-1.2,0.7l1.8,2.8h-1.3L45.6,33h-3v2.7h-1.1v-6.9h4.8
			c0.3,0,0.6,0,0.9,0.1c0.3,0.1,0.5,0.2,0.7,0.4c0.2,0.2,0.4,0.4,0.5,0.7C48.4,30.2,48.5,30.5,48.5,30.9z M42.6,31.9h3.5
			c0.2,0,0.3,0,0.5,0c0.2,0,0.3-0.1,0.4-0.2c0.1-0.1,0.2-0.2,0.3-0.3c0.1-0.1,0.1-0.3,0.1-0.5c0-0.2,0-0.4-0.1-0.5s-0.2-0.2-0.3-0.3
			c-0.1-0.1-0.2-0.1-0.4-0.2c-0.2,0-0.3-0.1-0.5-0.1h-3.5V31.9z"/>
		<path class="st3" d="M52,34.7h5.5v1.1h-6.6v-6.9h6.3v1.1H52v1.7h3.5v1.1H52V34.7z"/>
		<path class="st3" d="M59.9,28.8h6.3v1.1H61v1.7h3.4v1.1H61v3.1h-1.1V28.8z"/>
		<path class="st3" d="M68.3,28.8h6.3v1.1h-5.2v1.7h3.4v1.1h-3.4v3.1h-1.1V28.8z"/>
		<path class="st3" d="M77.8,34.7h5.5v1.1h-6.6v-6.9H83v1.1h-5.2v1.7h3.5v1.1h-3.5V34.7z"/>
		<path class="st3" d="M92.8,30.9c0,0.5-0.1,1-0.4,1.3s-0.7,0.6-1.2,0.7l1.8,2.8h-1.3L89.8,33h-3v2.7h-1.1v-6.9h4.8
			c0.3,0,0.6,0,0.9,0.1c0.3,0.1,0.5,0.2,0.7,0.4c0.2,0.2,0.4,0.4,0.5,0.7C92.7,30.2,92.8,30.5,92.8,30.9z M86.8,31.9h3.5
			c0.2,0,0.3,0,0.5,0c0.2,0,0.3-0.1,0.4-0.2c0.1-0.1,0.2-0.2,0.3-0.3c0.1-0.1,0.1-0.3,0.1-0.5c0-0.2,0-0.4-0.1-0.5s-0.2-0.2-0.3-0.3
			c-0.1-0.1-0.2-0.1-0.4-0.2c-0.2,0-0.3-0.1-0.5-0.1h-3.5V31.9z"/>
		<path class="st3" d="M96.3,34.7h5.5v1.1h-6.6v-6.9h6.3v1.1h-5.2v1.7h3.5v1.1h-3.5V34.7z"/>
		<path class="st3" d="M109.4,29c0.5,0.2,0.9,0.4,1.2,0.7c0.3,0.3,0.6,0.7,0.8,1.1c0.2,0.4,0.3,0.9,0.3,1.5c0,0.5-0.1,1-0.3,1.4
			c-0.2,0.4-0.5,0.8-0.8,1.1c-0.3,0.3-0.7,0.5-1.2,0.7c-0.4,0.2-0.9,0.2-1.4,0.2h-3.9v-6.9h3.8C108.5,28.8,109,28.9,109.4,29z
			 M110.5,32.3c0-0.4-0.1-0.7-0.2-1c-0.1-0.3-0.3-0.6-0.5-0.8c-0.2-0.2-0.5-0.4-0.8-0.5c-0.3-0.1-0.6-0.2-1-0.2h-2.7v4.8h2.8
			c0.4,0,0.7-0.1,1-0.2s0.6-0.3,0.8-0.5c0.2-0.2,0.4-0.5,0.5-0.7C110.5,33,110.5,32.7,110.5,32.3z"/>
		<path class="st3" d="M38,37.8c0.3,0.1,0.5,0.2,0.7,0.4c0.2,0.2,0.4,0.4,0.5,0.6c0.1,0.3,0.2,0.6,0.2,0.9c0,0.4-0.1,0.7-0.2,0.9
			c-0.1,0.3-0.3,0.5-0.5,0.7c-0.2,0.2-0.5,0.3-0.7,0.4s-0.6,0.1-0.9,0.1h-3.6v2.7h-1.1v-6.9h4.8C37.4,37.7,37.7,37.7,38,37.8z
			 M33.4,40.8H37c0.2,0,0.3,0,0.5,0c0.1,0,0.3-0.1,0.4-0.2c0.1-0.1,0.2-0.2,0.3-0.3s0.1-0.3,0.1-0.5c0-0.2,0-0.4-0.1-0.5
			c-0.1-0.1-0.2-0.2-0.3-0.3c-0.1-0.1-0.2-0.1-0.4-0.2c-0.2,0-0.3-0.1-0.5-0.1h-3.5V40.8z"/>
		<path class="st3" d="M48.8,37.7l3.6,6.9h-1.2l-0.8-1.7h-4.1l-0.8,1.7H44l3.5-6.9H48.8z M48.2,38.9l-1.5,3h3L48.2,38.9z"/>
		<path class="st3" d="M63.8,39.8c0,0.5-0.1,1-0.4,1.3s-0.7,0.6-1.2,0.7l1.8,2.8h-1.3l-1.8-2.7h-3v2.7h-1.1v-6.9h4.8
			c0.3,0,0.6,0,0.9,0.1c0.3,0.1,0.5,0.2,0.7,0.4c0.2,0.2,0.4,0.4,0.5,0.7C63.7,39.1,63.8,39.4,63.8,39.8z M57.8,40.8h3.5
			c0.2,0,0.3,0,0.5,0c0.2,0,0.3-0.1,0.4-0.2c0.1-0.1,0.2-0.2,0.3-0.3s0.1-0.3,0.1-0.5c0-0.2,0-0.4-0.1-0.5c-0.1-0.1-0.2-0.2-0.3-0.3
			c-0.1-0.1-0.2-0.1-0.4-0.2c-0.2,0-0.3-0.1-0.5-0.1h-3.5V40.8z"/>
		<path class="st3" d="M76,37.7v1.1h-3.1v5.9h-1.1v-5.9h-3.1v-1.1H76z"/>
		<path class="st3" d="M86.8,37.7h1.1v6.9h-1.1L82,39.3v5.3h-1.1v-6.9H82l4.8,5.3V37.7z"/>
		<path class="st3" d="M94,43.5h5.5v1.1h-6.6v-6.9h6.3v1.1H94v1.7h3.5v1.1H94V43.5z"/>
		<path class="st3" d="M111.5,39.8c0,0.5-0.1,1-0.4,1.3c-0.3,0.4-0.7,0.6-1.2,0.7l1.8,2.8h-1.3l-1.8-2.7h-3v2.7h-1.1v-6.9h4.8
			c0.3,0,0.6,0,0.9,0.1c0.3,0.1,0.5,0.2,0.7,0.4c0.2,0.2,0.4,0.4,0.5,0.7S111.5,39.4,111.5,39.8z M105.6,40.8h3.5c0.2,0,0.3,0,0.5,0
			s0.3-0.1,0.4-0.2c0.1-0.1,0.2-0.2,0.3-0.3s0.1-0.3,0.1-0.5c0-0.2,0-0.4-0.1-0.5c-0.1-0.1-0.2-0.2-0.3-0.3s-0.2-0.1-0.4-0.2
			c-0.2,0-0.3-0.1-0.5-0.1h-3.5V40.8z"/>
	</g>
	<path class="st3" d="M145,24.9h2l-3.8,11.7h-2l-2.8-9.2l-2.8,9.2h-2l-3.8-11.7h2l2.8,9l2.8-9h2.1l2.8,9L145,24.9z"/>
	<path class="st3" d="M156.8,24.9l6,11.7h-2.1l-1.4-2.8h-7l-1.4,2.8h-2.1l6-11.7H156.8z M155.8,27l-2.6,5h5.1L155.8,27z"/>
	<path class="st3" d="M171.5,29.3l6.1,7.3h-2.4l-5.1-6.2l-3,2.4v3.8h-1.9V24.9h1.9v5.7l7.3-5.7h2.7L171.5,29.3z"/>
	<path class="st3" d="M188.4,24.9l6,11.7h-2.1l-1.4-2.8h-7l-1.4,2.8h-2.1l6-11.7H188.4z M187.4,27l-2.6,5h5.1L187.4,27z"/>
	<path class="st3" d="M205.6,25.3c0.8,0.3,1.4,0.6,2,1.1c0.6,0.5,1,1.1,1.3,1.9c0.3,0.7,0.5,1.6,0.5,2.5c0,0.9-0.2,1.7-0.5,2.4
		c-0.3,0.7-0.8,1.3-1.3,1.8c-0.6,0.5-1.2,0.9-2,1.1c-0.7,0.3-1.5,0.4-2.4,0.4h-6.5V24.9h6.4C204,24.9,204.8,25.1,205.6,25.3z
		 M207.4,30.8c0-0.6-0.1-1.2-0.3-1.7c-0.2-0.5-0.5-0.9-0.9-1.3c-0.4-0.3-0.8-0.6-1.4-0.8c-0.5-0.2-1.1-0.3-1.7-0.3h-4.5v8.1h4.7
		c0.6,0,1.2-0.1,1.7-0.3c0.5-0.2,0.9-0.5,1.3-0.8c0.4-0.3,0.6-0.8,0.8-1.3C207.3,32,207.4,31.4,207.4,30.8z"/>
</g>
</svg>
