<?xml version="1.0" encoding="utf-8"?>
<!-- Generator: Adobe Illustrator 24.3.0, SVG Export Plug-In . SVG Version: 6.00 Build 0)  -->
<svg version="1.1" id="Layer_1" xmlns="http://www.w3.org/2000/svg" xmlns:xlink="http://www.w3.org/1999/xlink" x="0px" y="0px"
	 viewBox="0 0 218 59" style="enable-background:new 0 0 218 59;" xml:space="preserve">
<style type="text/css">
	.st0{fill:#9D7F1B;}
	.st1{fill-rule:evenodd;clip-rule:evenodd;fill:#6E6F72;}
	.st2{fill:#6E6F72;}
</style>
<polygon class="st0" points="71.56,25.93 71.56,10.88 75.22,10.88 75.22,23.06 86.8,23.06 86.8,25.93 "/>
<path class="st0" d="M107.91,18.38c0,2.23-0.87,4.07-2.6,5.51c-0.96,0.79-2.08,1.4-3.38,1.83c-1.3,0.43-2.72,0.64-4.27,0.64
	c-1.54,0-2.96-0.21-4.26-0.64c-1.3-0.43-2.43-1.04-3.37-1.83c-0.86-0.71-1.5-1.53-1.93-2.45c-0.43-0.93-0.64-1.95-0.64-3.06
	c0-1.1,0.22-2.1,0.65-3.03c0.44-0.92,1.09-1.74,1.95-2.44c0.96-0.79,2.09-1.4,3.4-1.84c1.31-0.44,2.72-0.66,4.23-0.66
	c1.51,0,2.92,0.22,4.23,0.66c1.31,0.44,2.44,1.05,3.4,1.84C107.05,14.36,107.91,16.18,107.91,18.38 M104.15,18.38
	c0-0.75-0.15-1.43-0.46-2.05c-0.31-0.62-0.74-1.15-1.3-1.59c-0.56-0.44-1.24-0.79-2.04-1.04c-0.8-0.25-1.69-0.37-2.67-0.37
	c-0.98,0-1.87,0.12-2.67,0.37c-0.8,0.25-1.48,0.6-2.04,1.04c-0.56,0.44-1,0.97-1.3,1.59c-0.31,0.62-0.46,1.3-0.46,2.05
	c0,0.76,0.15,1.46,0.45,2.08c0.3,0.62,0.73,1.16,1.29,1.6c0.56,0.44,1.24,0.79,2.03,1.03c0.79,0.24,1.68,0.36,2.68,0.36
	c1,0,1.89-0.12,2.69-0.36c0.8-0.24,1.48-0.59,2.04-1.03c0.56-0.44,0.99-0.98,1.3-1.6C104,19.84,104.15,19.15,104.15,18.38"/>
<path class="st0" d="M124.84,11.43c1.12,0.37,2.08,0.89,2.87,1.56c0.79,0.67,1.4,1.48,1.82,2.43c0.42,0.95,0.63,2,0.63,3.15
	c0,2.22-0.89,4.03-2.68,5.45c-0.76,0.61-1.65,1.08-2.67,1.41c-1.02,0.33-2.1,0.5-3.25,0.5h-10.61V10.88h10.11
	C122.45,10.88,123.72,11.06,124.84,11.43 M123.58,22.54c0.73-0.35,1.33-0.82,1.8-1.42c0.62-0.79,0.94-1.66,0.94-2.61
	c0-0.68-0.13-1.32-0.38-1.9c-0.25-0.58-0.6-1.09-1.04-1.51c-0.44-0.42-0.97-0.76-1.59-0.99c-0.62-0.24-1.29-0.36-2.03-0.36h-6.68
	v9.32h6.7C122.09,23.06,122.85,22.89,123.58,22.54"/>
<polygon class="st0" points="148.05,25.93 148.05,19.47 137.17,19.47 137.17,25.93 133.51,25.93 133.51,10.9 137.17,10.9 
	137.17,16.39 148.05,16.39 148.05,10.9 151.71,10.9 151.71,25.93 "/>
<path class="st0" d="M170.82,25.93l-1.73-3.24h-9.65l-1.73,3.24h-3.7l8.01-15.06h4.51l7.99,15.06H170.82z M164.25,13.64l-3.31,6.18
	h6.61L164.25,13.64z"/>
<rect x="33.94" y="43.95" class="st1" width="23.39" height="3.74"/>
<rect x="33.94" y="10.88" class="st1" width="23.39" height="3.74"/>
<rect x="33.94" y="19.16" class="st1" width="23.39" height="3.74"/>
<rect x="33.94" y="27.46" class="st1" width="23.39" height="3.69"/>
<rect x="33.94" y="35.7" class="st1" width="23.39" height="3.75"/>
<g>
	<path class="st2" d="M92.67,31.88h2.72l-5.15,15.8h-2.7l-3.85-12.44l-3.85,12.44h-2.67l-5.2-15.8h2.75l3.78,12.22l3.8-12.22h2.8
		l3.8,12.22L92.67,31.88z"/>
	<path class="st2" d="M110.02,31.88l8.12,15.8h-2.82l-1.94-3.78h-9.45l-1.91,3.78h-2.8l8.07-15.8H110.02z M108.65,34.73l-3.46,6.77
		h6.97L108.65,34.73z"/>
	<path class="st2" d="M129.97,37.77l8.22,9.91h-3.26l-6.9-8.34l-4.12,3.21v5.13h-2.58v-15.8h2.58v7.75l9.84-7.75h3.63L129.97,37.77z
		"/>
	<path class="st2" d="M152.89,31.88l8.12,15.8h-2.82l-1.94-3.78h-9.45l-1.91,3.78h-2.8l8.07-15.8H152.89z M151.52,34.73l-3.46,6.77
		h6.97L151.52,34.73z"/>
	<path class="st2" d="M176.23,32.42c1.05,0.36,1.95,0.88,2.72,1.56c0.77,0.68,1.37,1.52,1.82,2.52c0.44,1,0.66,2.13,0.66,3.41
		c0,1.21-0.22,2.29-0.65,3.25s-1.03,1.77-1.79,2.44s-1.65,1.19-2.66,1.55c-1.01,0.36-2.09,0.54-3.24,0.54h-8.88v-15.8h8.61
		C174.04,31.88,175.18,32.06,176.23,32.42z M178.73,39.86c0-0.85-0.14-1.62-0.43-2.32s-0.69-1.28-1.2-1.75
		c-0.52-0.47-1.13-0.84-1.84-1.1c-0.71-0.26-1.48-0.39-2.32-0.39h-6.16v10.99h6.43c0.82,0,1.57-0.13,2.25-0.38s1.26-0.62,1.74-1.09
		s0.86-1.04,1.13-1.71C178.6,41.44,178.73,40.69,178.73,39.86z"/>
</g>
</svg>
