<?xml version="1.0" encoding="utf-8"?>
<!-- Generator: Adobe Illustrator 25.4.1, SVG Export Plug-In . SVG Version: 6.00 Build 0)  -->
<svg version="1.1" id="Layer_1" xmlns="http://www.w3.org/2000/svg" xmlns:xlink="http://www.w3.org/1999/xlink" x="0px" y="0px"
	 viewBox="0 0 348 104" style="enable-background:new 0 0 348 104;" xml:space="preserve">
<style type="text/css">
	.st0{fill:#292526;}
	.st1{fill:#9C7F1A;}
	.st2{fill-rule:evenodd;clip-rule:evenodd;fill:#9C7F1A;}
	.st3{fill:none;stroke:#353535;stroke-width:0.5;stroke-miterlimit:10;}
	.st4{fill:#606060;}
</style>
<g>
	<g>
		<path class="st0" d="M157.1,47.8c-1-4.2-3.6-6.4-7.8-6.9c-2.5-0.2-5-0.1-7.5-0.2c-0.8,0-0.8,0.3-0.8,0.9c0,3,0,6,0,9.1v9.2
			c0,0.4-0.1,0.9,0.6,0.9c2.3-0.1,4.6,0.1,6.9-0.1c4.5-0.3,7.3-2.4,8.4-6.1C157.5,52.3,157.6,50.1,157.1,47.8z M154.3,54.4
			c-1,2.4-2.7,3.6-5.1,3.9c-1.1,0.1-2.1,0.2-3.2,0.2c-2.6,0-2.6,0-2.6-2.6c0-4,0-7.9,0-12c0-0.8,0.2-1,1-1c1.5,0.1,3.1,0,4.6,0.2
			c3,0.3,5.1,2,5.8,5C155.1,50.3,155.1,52.4,154.3,54.4z"/>
		<path class="st0" d="M114.5,51.4c0.5,0,0.9,0,1.3-0.1c2.3-0.2,3.9-1.4,4.3-3.3c0.3-1.3,0.3-2.7-0.2-4c-0.6-1.7-1.7-2.8-3.6-3.1
			c-1.9-0.2-4.1,0-6.2-0.1c-0.9-0.1-1.1,0.2-1.1,1.1c0,5.8,0,11.6,0,17.4c0,1.6,0,1.6,1.6,1.6c0.6,0,0.8-0.2,0.8-0.9
			c0-2.6,0-5,0-7.6c0-0.3-0.1-0.6,0.1-1c0.4,0,0.5,0.4,0.8,0.8c2,2.7,4.2,5.3,6.2,7.9c0.2,0.3,0.4,0.8,1,0.6c0.8,0,1.6,0,2.7,0
			C119.5,57.5,117.1,54.5,114.5,51.4z M112,49.1c-0.5,0-0.6-0.2-0.6-0.6c0-0.8,0-1.6,0-2.4v-0.5c0-2.6,0-2.6,2.6-2.5
			c0.4,0,0.9,0.1,1.3,0.1c1.8,0.3,2.6,1.2,2.6,2.9s-0.6,2.5-2.6,2.8C114.3,49.1,113.1,49,112,49.1z"/>
		<path class="st0" d="M36.2,51.4c0.5,0,0.9,0,1.3-0.1c2.3-0.2,3.8-1.3,4.3-3.2c0.4-1.5,0.3-3-0.2-4.4c-0.6-1.5-1.7-2.5-3.4-2.8
			c-0.9-0.1-1.8-0.1-2.7-0.1c-1.5,0-3.1,0-4.6,0.1c-0.2,1.5-0.1,3-0.1,4.6c0,4.6,0,9.2,0,13.8c0,1.6,0,1.5,1.5,1.6
			c0.8,0,0.9-0.3,0.9-1c0-2.6,0-5,0-7.6c0-0.2-0.1-0.6,0.2-0.9c0.4,0.1,0.5,0.4,0.8,0.8c2,2.7,4.1,5.4,6.2,7.9
			c0.2,0.3,0.4,0.8,1,0.6c0.8,0,1.6,0,2.7,0C41.2,57.5,38.7,54.5,36.2,51.4z M33.1,46v-0.5c0-2.5,0-2.6,2.5-2.5c0.5,0,1,0.1,1.4,0.2
			c1.8,0.3,2.6,1.2,2.6,2.9S39,48.6,37,48.9c-0.1,0-0.3,0.1-0.4,0.1C33.1,49.4,33.1,49.4,33.1,46z"/>
		<path class="st0" d="M22.7,41c-2.1-0.3-4.3-0.1-6.3-0.2c-0.8,0-1,0.2-1,1c0,3,0,6,0,9.1c0,3,0.1,6,0,9.1c0,1.2,0.6,0.9,1.3,0.9
			c0.6,0,1.2,0.2,1.2-0.9c-0.1-2.4,0-4.8,0-7.2c0-0.8,0.2-1,1-1c1.3,0,2.6,0.1,3.9-0.2c2.6-0.4,4.1-2.4,4.1-5.3
			C26.8,43.3,25.3,41.4,22.7,41z M24.2,46.5c-0.1,1.6-0.8,2.5-2.4,2.7c-0.1,0-0.1,0-0.2,0c-3.8,0.6-3.8,0.6-3.8-3V45c0-2,0-2,2-2
			c0.5,0,1.1,0.1,1.5,0.2C23.4,43.5,24.3,44.6,24.2,46.5z"/>
		<path class="st0" d="M57.5,59.5c-0.1,0.6,0.2,1.3-1,1.3c-2.9-0.1-5.8-0.1-8.8,0c-0.8,0-1-0.2-1-1c0-3,0-6,0-9.1c0-3,0-6,0-9.1
			c0-0.8,0.1-1,0.9-1c3,0,5.9,0.1,8.9,0c1.1,0,0.8,0.6,0.9,1.2c0,0.6,0.1,1.1-0.9,1.1c-2.1-0.1-4.3,0-6.5,0c-0.8,0-0.9,0.2-0.9,0.9
			c0,1.3,0,2.6,0,4c0,0.6,0.2,0.9,0.9,0.9c2.3,0,4.4,0,6.6,0c1.1,0,0.9,0.5,0.8,1.2c0,0.5,0.3,1.2-0.8,1.2c-2.3-0.1-4.4,0-6.6,0
			c-0.6,0-0.9,0.1-0.9,0.8c0,2,0,4.1,0,6c0,0.6,0.2,0.8,0.9,0.8c2.1,0,4.3,0,6.4,0C57.4,58.4,57.6,58.6,57.5,59.5z"/>
		<path class="st0" d="M99.1,51.4c0.5,0,0.9,0,1.3-0.1c2.3-0.2,3.9-1.4,4.3-3.3c0.3-1.3,0.3-2.7-0.2-4c-0.6-1.7-1.7-2.8-3.6-3.1
			c-1.9-0.2-4.1,0-6.2-0.1c-0.9-0.1-1.1,0.2-1.1,1.1c0,5.8,0,11.6,0,17.4c0,1.6,0,1.6,1.6,1.6c0.6,0,0.8-0.2,0.8-0.9
			c0-2.6,0-5,0-7.6c0-0.3-0.1-0.6,0.1-1c0.4,0,0.5,0.4,0.8,0.8c2,2.7,4.2,5.3,6.2,7.9c0.2,0.3,0.4,0.8,1,0.6c0.8,0,1.6,0,2.7,0
			C104.1,57.5,101.6,54.5,99.1,51.4z M96.6,49.1c-0.5,0-0.6-0.2-0.6-0.6c0-0.8,0-1.6,0-2.4v-0.5c0-2.6,0-2.6,2.6-2.5
			c0.4,0,0.9,0.1,1.3,0.1c1.8,0.3,2.6,1.2,2.6,2.9s-0.6,2.5-2.6,2.8C98.8,49.1,97.7,49,96.6,49.1z"/>
		<path class="st0" d="M80.3,51.8c0.1,1.9,0,4,0,5.9c0,0.6,0.2,0.9,0.9,0.8c2.3,0,4.4,0,6.6,0c1.1,0,0.8,0.6,0.8,1.2
			c0,0.5,0.2,1.2-0.9,1.2c-3-0.1-6-0.1-9,0c-0.8,0-0.9-0.3-0.9-0.9c0-3.1,0-6.1,0-9.2c0-3,0-6,0-9c0-0.6,0.1-1,0.9-1
			c3,0,5.9,0.1,8.9,0c1,0,0.9,0.4,0.9,1.1c0,0.5,0.2,1.3-0.9,1.2c-2.1-0.1-4.3,0-6.5,0c-0.6,0-1,0.2-0.9,0.9c0.1,1.2,0.1,2.5,0,3.6
			c0,0.9,0.1,1.1,1.1,1.1c2-0.1,4.1,0,6.2,0c1,0,1.1,0.3,1.1,1.2c0,0.8,0,1.2-1.1,1.2c-2-0.1-4.2,0-6.3,0
			C80.5,50.8,80.3,50.9,80.3,51.8z"/>
		<path class="st0" d="M135.8,59.5c0,0.5,0.3,1.3-0.9,1.2c-3-0.1-6,0-9,0c-0.6,0-0.9-0.2-0.8-0.9c0-3.1,0-6.2,0-9.3c0-3,0-6,0-9
			c0-0.8,0.2-1,1-1c3,0,5.9,0.1,8.9,0c1.2,0,0.8,0.6,0.9,1.2c0.1,0.6,0.1,1.1-0.9,1.1c-2.1-0.1-4.3,0-6.4,0c-0.9,0-1,0.2-1,1
			c0.1,1.3,0,2.6,0,3.8c0,0.6,0.2,0.9,0.9,0.9c2.3,0,4.4,0,6.6,0c1.1,0,0.8,0.6,0.8,1.2c0,0.6,0.2,1.2-0.8,1.2c-2.3-0.1-4.4,0-6.6,0
			c-0.6,0-0.9,0.2-0.9,0.9c0,2,0,4.1,0,6c0,0.6,0.3,0.8,0.9,0.8c2.1,0,4.3,0,6.5,0C135.9,58.4,135.9,58.9,135.8,59.5z"/>
		<path class="st0" d="M73.2,49.8c0,1.1-0.3,1.2-1.3,1.2c-1.9-0.1-4,0-5.9,0c-1,0-1.1,0.3-1.1,1.2c0,2.6,0,5.3,0,7.8
			c0,1.1-0.5,1-1.2,1c-0.6,0-1.3,0.3-1.3-0.9c0.1-3.1,0-6.1,0-9.2c0-3,0-6,0-9.1c0-0.6,0.1-0.9,0.8-0.9c3,0,6,0,9.1,0
			c1,0,0.8,0.6,0.8,1.1s0.3,1.2-0.8,1.2c-2.3-0.1-4.4,0-6.6,0c-0.6,0-1,0.2-0.9,0.9c0.1,1.2,0.1,2.5,0,3.6c0,0.9,0.1,1.1,1.1,1.1
			c2-0.1,4.1,0,6,0C72.9,48.6,73.2,48.7,73.2,49.8z"/>
	</g>
	<g>
		<path class="st0" d="M96.5,83.9c0,0.3,0.1,0.6-0.2,1.1c-4.7-5-9.5-10-14.3-15c-0.3,0.3-0.2,0.6-0.2,1c0,4.3,0,8.5,0,12.8
			c0,1-0.4,1.1-1.2,1c-0.8,0-1.3,0.1-1.3-1.1c0.1-6.2,0-12.4,0-18.6c0-0.3-0.1-0.6,0.2-1c4.7,5.3,9.5,10.4,14.3,15.5
			c0.3-0.4,0.2-0.8,0.2-1.2c0-4.2,0-8.5,0-12.6c0-1,0.3-1.2,1.2-1.1c0.8,0,1.3,0,1.3,1.1C96.4,71.8,96.5,77.8,96.5,83.9z"/>
		<path class="st0" d="M123.5,75.3c0.5,0,1,0,1.3-0.1c2.3-0.2,3.8-1.4,4.3-3.2c0.3-1.4,0.3-2.8-0.2-4.2c-0.6-1.6-1.7-2.7-3.5-2.9
			c-2.1-0.3-4.3-0.1-6.5-0.2c-0.8,0-0.9,0.2-0.9,0.9c0,6,0,12.1,0,18.1c0,1.3,0.8,0.9,1.4,1c0.8,0.1,1.1-0.1,1.1-1
			c-0.1-2.6,0-5,0-7.6c0-0.2-0.2-0.6,0.2-0.8c0.4,0.1,0.5,0.5,0.8,0.8c1.8,2.4,3.9,4.6,5.5,7.1c1.1,1.7,2.5,1.6,4.2,1.4
			C128.5,81.5,126.1,78.5,123.5,75.3z M121,73c-0.5,0-0.6-0.2-0.6-0.6c0-0.8,0-1.6,0-2.4v-0.8c0-2.3,0-2.3,2.3-2.3
			c0.5,0,1.1,0.1,1.7,0.2c2.1,0.3,3.2,2.5,2.3,4.4c-0.3,0.8-1,1.1-1.8,1.2C123.5,73.1,122.2,73,121,73z"/>
		<path class="st0" d="M53.3,75.3c0.5,0,1,0,1.3-0.1c2.1-0.2,3.6-1.3,4.2-3.1c0.4-1.6,0.3-3.1-0.3-4.6c-0.6-1.4-1.7-2.4-3.3-2.6
			c-2.4-0.3-4.6-0.1-7-0.2c-0.5,0-0.5,0.3-0.5,0.6c0,6.2,0,12.4,0,18.6c0,0.2-0.1,0.6,0.2,0.6c0.6,0.1,1.4,0.1,2,0
			c0.4-0.1,0.1-0.9,0.1-1.3c0-2.7,0-5.4,0-8.1c0.5,0.1,0.8,0.5,1,0.8c1.9,2.5,3.8,4.8,5.7,7.3c1.2,1.5,1.9,1.8,4,1.3
			C58.2,81.5,55.8,78.5,53.3,75.3z M50.8,73c-0.5,0-0.6-0.2-0.6-0.8c0-0.8,0-1.6,0-2.4v-0.3c0-2.8,0-2.8,2.8-2.6
			c0.4,0,0.9,0.1,1.3,0.2c1.7,0.3,2.4,1.2,2.4,3c0,1.6-0.6,2.4-2.4,2.7C53.1,73.1,51.9,73,50.8,73z"/>
		<path class="st0" d="M22.8,65c-2.1-0.3-4.3-0.1-6.3-0.2c-0.8,0-1,0.2-1,1c0,3,0,6,0,8.9c0,3.1,0,6.1,0,9.2c0,1.2,0.6,0.9,1.3,0.9
			c0.6,0,1.2,0.2,1.2-0.9c-0.1-2.5,0-4.8,0-7.3c0-0.6,0.2-0.9,0.9-0.9c1.4,0,2.7,0.1,4.1-0.2c2.6-0.4,4.2-2.4,4.2-5.3
			C26.8,67.3,25.3,65.4,22.8,65z M24.2,70.4c0,1.5-0.6,2.4-2,2.7c-1.3,0.3-2.5,0.3-3.8,0.3c-0.4,0-0.5-0.2-0.5-0.6
			c0-0.9,0-1.8,0-2.7s0-1.7,0-2.6c0-0.3,0-0.6,0.5-0.6c1.4,0,2.7,0,4,0.4C23.6,67.9,24.3,68.8,24.2,70.4z"/>
		<path class="st0" d="M104.5,75.7c0.1,1.9,0,4,0,5.9c0,0.6,0.2,0.9,0.9,0.8c2.3,0,4.4,0,6.6,0c1.1,0,0.8,0.6,0.8,1.2
			s0.2,1.1-0.8,1.1c-3-0.1-6,0-9,0c-0.8,0-0.9-0.3-0.9-0.9c0-3.1,0-6.1,0-9.2c0-3,0-6,0-9c0-0.6,0.1-1,0.9-1c3,0.1,5.9,0.1,8.9,0
			c1,0,0.9,0.4,0.9,1.1c0,0.5,0.2,1.3-0.9,1.2c-2.1-0.1-4.3,0-6.5,0c-0.6,0-1,0.1-0.9,0.9c0.1,1.3,0.1,2.6,0,4c0,0.8,0.3,0.9,1,0.9
			c2,0,4.1,0,6.1,0c0.8,0,1.4-0.1,1.3,1.1c0,1.1-0.3,1.2-1.3,1.2c-2-0.1-4.1,0-6.1,0C104.8,74.8,104.4,74.9,104.5,75.7z"/>
		<path class="st0" d="M35.5,64.8c-3.1,6.8-6.1,13.3-9.1,19.9c0.5,0,1,0,1.3,0c1,0.2,1.5-0.2,1.8-1.2c0.4-1.4,1.2-2.8,1.7-4.1
			c0.2-0.5,0.4-0.8,1.1-0.8c2.1,0,4.3,0,6.4,0c0.5,0,0.9,0.1,1,0.6c0.4,1.2,1,2.4,1.5,3.5c0.9,2,0.9,2,3.4,1.8
			C41.6,78,38.6,71.5,35.5,64.8z M32.4,76.3c1.1-2.3,2-4.4,3.1-6.6c1.1,2.4,2.1,4.5,3.1,6.6H32.4z"/>
		<path class="st0" d="M75,67c-1.3,0-2.6,0.1-3.9,0c-1-0.1-1.3,0.1-1.3,1.2c0.1,5.1,0,10.3,0.1,15.4c0,1-0.3,1.2-1.2,1.1
			c-0.9,0-1.3,0-1.3-1.2c0.1-2.6,0-5.3,0-7.8s0-5.1,0-7.7c0-0.9-0.2-1.1-1.1-1.1c-1.3,0.1-2.6,0-4,0c-0.9,0-0.8-0.5-0.6-1
			c0.1-0.4-0.5-1.3,0.6-1.3c4.2,0,8.3,0,12.4,0c1,0,0.6,0.6,0.6,1.1C75.5,66.3,76,67,75,67z"/>
	</g>
	<g>
		<g>
			<path class="st1" d="M30.3,33.4V20.7h3.1v10.2H43v2.5H30.3z"/>
			<path class="st1" d="M60.7,27c0,1.8-0.8,3.4-2.1,4.6c-0.8,0.6-1.7,1.2-2.8,1.5s-2.3,0.5-3.5,0.5s-2.5-0.2-3.5-0.5
				c-1.1-0.3-2-0.9-2.8-1.5c-0.8-0.6-1.3-1.3-1.6-2c-0.3-0.8-0.5-1.6-0.5-2.6s0.2-1.7,0.5-2.6c0.3-0.8,0.9-1.5,1.6-2
				c0.8-0.6,1.7-1.2,2.9-1.5c1.1-0.3,2.3-0.5,3.5-0.5s2.5,0.2,3.5,0.5c1.1,0.3,2,0.9,2.9,1.5C60,23.6,60.7,25.2,60.7,27z M57.5,27
				c0-0.6-0.1-1.2-0.4-1.7c-0.2-0.5-0.6-1-1.1-1.3c-0.4-0.3-1.1-0.6-1.7-0.9c-0.6-0.2-1.4-0.3-2.3-0.3s-1.6,0.1-2.3,0.3
				c-0.6,0.2-1.3,0.5-1.7,0.9c-0.4,0.3-0.9,0.9-1.1,1.3c-0.2,0.5-0.4,1.1-0.4,1.7s0.1,1.2,0.3,1.7s0.6,1,1.1,1.3
				c0.4,0.3,1.1,0.6,1.7,0.9c0.6,0.2,1.4,0.3,2.3,0.3s1.6-0.1,2.3-0.3c0.6-0.2,1.3-0.5,1.7-0.9c0.4-0.3,0.9-0.9,1.1-1.3
				C57.2,28.3,57.5,27.7,57.5,27z"/>
			<path class="st1" d="M74.9,21.2c1,0.3,1.7,0.8,2.4,1.3c0.6,0.5,1.2,1.3,1.5,2c0.3,0.8,0.5,1.7,0.5,2.7c0,1.8-0.8,3.3-2.3,4.6
				c-0.6,0.5-1.4,0.9-2.3,1.2S73,33.4,72,33.4h-8.9V20.7h8.5C72.8,20.7,73.9,20.9,74.9,21.2z M73.8,30.5c0.6-0.3,1.1-0.6,1.5-1.2
				c0.5-0.6,0.8-1.4,0.8-2.1c0-0.5-0.1-1.1-0.3-1.6c-0.2-0.5-0.5-1-0.9-1.3c-0.3-0.3-0.9-0.6-1.3-0.9c-0.5-0.2-1.1-0.3-1.7-0.3h-5.6
				v7.8h5.6C72.5,30.9,73.1,30.8,73.8,30.5z"/>
			<path class="st1" d="M94.3,33.4V28h-9.1v5.4H82V20.7h3.1v4.6h9.1v-4.6h3.1v12.6h-3L94.3,33.4z"/>
			<path class="st1" d="M113.3,33.4l-1.4-2.7h-8l-1.6,2.7h-3.1l6.6-12.5h3.8l6.8,12.5H113.3z M107.8,23.1l-2.8,5.1h5.6L107.8,23.1z"
				/>
		</g>
		<g>
			<rect x="15.4" y="32.4" class="st2" width="8.3" height="1.3"/>
			<rect x="15.4" y="20.7" class="st2" width="8.3" height="1.3"/>
			<rect x="15.4" y="23.6" class="st2" width="8.3" height="1.3"/>
			<rect x="15.4" y="26.6" class="st2" width="8.3" height="1.3"/>
			<rect x="15.4" y="29.5" class="st2" width="8.3" height="1.3"/>
		</g>
	</g>
</g>
<line class="st3" x1="164" y1="10.7" x2="164" y2="93.3"/>
<g>
	<g>
		<path class="st1" d="M211,28.2V14.9h3.2v10.6h10.2V28H211L211,28.2L211,28.2z"/>
		<path class="st1" d="M243,21.6c0,2-0.7,3.5-2.3,4.8c-0.7,0.6-1.9,1.1-2.9,1.7c-1.1,0.4-2.4,0.5-3.6,0.5c-1.3,0-2.7-0.2-3.6-0.5
			c-1.1-0.4-2.2-0.9-2.9-1.7c-0.7-0.6-1.3-1.3-1.8-2.2c-0.4-0.7-0.5-1.8-0.5-2.7c0-0.9,0.2-1.9,0.5-2.7c0.4-0.7,0.9-1.6,1.8-2.2
			c0.7-0.6,1.9-1.1,2.9-1.7c1.1-0.4,2.4-0.5,3.6-0.5c1.3,0,2.5,0.2,3.6,0.5c1.1,0.4,2.2,0.9,2.9,1.7C242.3,18.1,243,19.5,243,21.6z
			 M239.8,21.6c0-0.6-0.1-1.1-0.4-1.8c-0.2-0.5-0.6-1-1.1-1.3c-0.5-0.4-1-0.6-1.8-0.9c-0.6-0.3-1.6-0.4-2.4-0.4
			c-0.9,0-1.7,0.1-2.4,0.4c-0.6,0.2-1.3,0.5-1.8,0.9c-0.5,0.4-0.9,0.7-1.1,1.3c-0.2,0.5-0.4,1.1-0.4,1.8c0,0.6,0.1,1.3,0.4,1.9
			c0.3,0.5,0.6,1,1,1.3c0.5,0.4,1,0.6,1.8,0.9c0.7,0.3,1.6,0.4,2.4,0.4c0.8,0,1.7-0.1,2.4-0.4c0.6-0.2,1.3-0.5,1.8-0.9
			c0.5-0.4,0.9-0.7,1.1-1.3C239.6,22.9,239.8,22.2,239.8,21.6z"/>
		<path class="st1" d="M258,15.5c0.9,0.4,1.9,0.7,2.5,1.3s1.1,1.3,1.7,2.2c0.4,0.7,0.5,1.8,0.5,2.8c0,1.9-0.7,3.5-2.4,4.8
			c-0.6,0.5-1.6,0.9-2.4,1.1c-0.8,0.2-1.9,0.4-2.9,0.4h-9.3V14.9h8.9C255.8,14.9,256.9,15,258,15.5z M256.7,25.3
			c0.6-0.2,1.1-0.6,1.7-1.1c0.5-0.6,0.7-1.6,0.7-2.3c0-0.6-0.1-1.1-0.4-1.7c-0.2-0.4-0.5-0.9-0.9-1.3c-0.4-0.4-0.7-0.6-1.3-0.9
			c-0.5-0.3-1.1-0.4-1.8-0.4h-5.8v8.1h5.8C255.6,25.8,256.2,25.5,256.7,25.3z"/>
		<path class="st1" d="M278.3,28.2v-5.7h-9.6v5.7h-3.2V14.9h3.2v4.8h9.7v-4.8h3.2v13.2h-3.3V28.2z"/>
		<path class="st1" d="M298.4,28.2l-1.6-2.8h-8.4l-1.6,2.8h-3.2l7.1-13.2h4l7.1,13.2H298.4z M292.6,17.3l-2.9,5.4h5.8L292.6,17.3z"
			/>
	</g>
</g>
<g>
	<path class="st0" d="M209.2,73.4c2,0,3.8-0.1,6-0.1c4.2,0,7.2,2.6,7.2,5.7s-3.1,5.7-7.2,5.7c-2.2,0-4-0.1-6-0.1V73.4z M215.1,82.7
		c2.8,0,4.6-1.7,4.6-3.7s-1.8-3.7-4.6-3.7c-1.2,0-2.2,0-3.4,0.1v7.2C212.9,82.7,214,82.7,215.1,82.7z"/>
	<path class="st0" d="M230.7,73.3c4.2,0,6.9,2.4,6.9,5.8s-2.8,5.8-6.9,5.8s-6.9-2.4-6.9-5.8S226.6,73.3,230.7,73.3z M230.7,82.8
		c2.5,0,4.2-1.5,4.2-3.8c0-2.3-1.7-3.8-4.2-3.8c-2.5,0-4.2,1.5-4.2,3.8C226.5,81.3,228.2,82.8,230.7,82.8z"/>
	<path class="st0" d="M246.7,84l-4.5-5.4h0l-0.6,6.1h-2.3l1.1-11.6h0.1l6.3,7.6h0l6.3-7.6h0.1l1.1,11.6h-2.3l-0.6-6.1h0L246.7,84
		L246.7,84z"/>
	<path class="st0" d="M256.3,73.4c2.8,0,5.4-0.1,7.8-0.1c2.9,0,4.8,1.2,4.8,3c0,1.3-0.8,2-1.9,2.5c1.2,0.5,2.1,1.4,2.1,2.7
		c0,2-2,3.3-5.1,3.3c-3,0-4.9-0.1-7.8-0.1V73.4z M264,78c1.5,0,2.4-0.6,2.4-1.4c0-0.9-1-1.5-2.4-1.5c-1.7,0-3.8,0.1-5.2,0.1V78H264z
		 M264,82.9c1.5,0,2.6-0.7,2.6-1.6c0-0.8-1-1.5-2.5-1.5h-5.3v3C260.2,82.8,262.1,82.9,264,82.9z"/>
	<path class="st0" d="M271,73.4h2.6v11.3H271V73.4z"/>
	<path class="st0" d="M285.8,73.4h2.6L281.7,85h-0.1l-6.7-11.6h2.6l4.1,7.3L285.8,73.4z"/>
	<path class="st0" d="M289.7,73.4h2.6v9.2h3.9l3.2-0.1l0,2.1h-9.8V73.4z"/>
	<path class="st0" d="M301,73.4h2.6v11.3H301V73.4z"/>
</g>
<g>
	<g>
		<path class="st4" d="M181.6,37.5v25.1h-3V51.1h-4.6v11.5h-3V37.5h3v10.9h4.6V37.5H181.6z"/>
		<path class="st4" d="M191.2,55.8H187l-1,6.8h-2.9l4.3-25.2h3.4l4.3,25.2h-2.9L191.2,55.8z M190.7,53l-1.6-10.5H189L187.4,53H190.7
			z"/>
		<path class="st4" d="M196.6,37.5h2.7l5.6,17.2h0.2l-0.3-17.2h2.9v25.1h-2.7l-5.5-17.1h-0.2l0.3,17.1h-2.9V37.5z"/>
		<path class="st4" d="M212.5,62.1c-0.8-0.5-1.4-1.2-1.9-2.2c-0.4-1-0.6-2.1-0.6-3.4v-13c0-1.3,0.2-2.4,0.6-3.4
			c0.4-0.9,1.1-1.7,1.9-2.2s1.8-0.8,2.9-0.8c1.1,0,2.1,0.3,2.9,0.8s1.4,1.2,1.9,2.2c0.4,0.9,0.6,2,0.6,3.3v2.5h-3.1v-2.5
			c0-1-0.2-1.8-0.6-2.4c-0.4-0.6-1-0.8-1.7-0.8c-0.7,0-1.3,0.3-1.7,0.8c-0.4,0.6-0.6,1.4-0.6,2.4v13.3c0,1.1,0.2,1.9,0.6,2.4
			c0.4,0.6,1,0.8,1.7,0.8c0.7,0,1.3-0.3,1.7-0.8c0.4-0.6,0.6-1.4,0.6-2.4v-4.3H215v-2.8h5.7v7.1c0,1.2-0.2,2.3-0.6,3.2
			c-0.4,0.9-1.1,1.6-1.9,2.2c-0.8,0.5-1.8,0.8-2.9,0.8C214.2,62.8,213.3,62.6,212.5,62.1z"/>
		<path class="st4" d="M222.9,37.5h3v25.1h-3V37.5z"/>
		<path class="st4" d="M228.4,37.5h2.7l5.6,17.2h0.2l-0.3-17.2h2.9v25.1h-2.7l-5.5-17.1H231l0.3,17.1h-2.9V37.5z"/>
		<path class="st4" d="M244.3,62.1c-0.8-0.5-1.4-1.2-1.9-2.2c-0.4-1-0.6-2.1-0.6-3.4v-13c0-1.3,0.2-2.4,0.6-3.4
			c0.4-0.9,1.1-1.7,1.9-2.2s1.8-0.8,2.9-0.8c1.1,0,2.1,0.3,2.9,0.8s1.4,1.2,1.9,2.2c0.4,0.9,0.6,2,0.6,3.3v2.5h-3.1v-2.5
			c0-1-0.2-1.8-0.6-2.4c-0.4-0.6-1-0.8-1.7-0.8c-0.7,0-1.3,0.3-1.7,0.8c-0.4,0.6-0.6,1.4-0.6,2.4v13.3c0,1.1,0.2,1.9,0.6,2.4
			c0.4,0.6,1,0.8,1.7,0.8c0.7,0,1.3-0.3,1.7-0.8c0.4-0.6,0.6-1.4,0.6-2.4v-4.3h-2.7v-2.8h5.7v7.1c0,1.2-0.2,2.3-0.6,3.2
			c-0.4,0.9-1.1,1.6-1.9,2.2c-0.8,0.5-1.8,0.8-2.9,0.8C246.1,62.8,245.1,62.6,244.3,62.1z"/>
		<path class="st4" d="M261.5,62.1c-0.8-0.5-1.4-1.2-1.9-2.2c-0.4-1-0.6-2.1-0.6-3.4v-13c0-1.3,0.2-2.4,0.6-3.4
			c0.4-0.9,1.1-1.7,1.9-2.2s1.8-0.8,2.9-0.8c1.1,0,2.1,0.3,2.9,0.8s1.4,1.2,1.9,2.2c0.4,0.9,0.6,2,0.6,3.3v2.5h-3.1v-2.5
			c0-1-0.2-1.8-0.6-2.4c-0.4-0.6-1-0.8-1.7-0.8c-0.7,0-1.3,0.3-1.7,0.8c-0.4,0.6-0.6,1.4-0.6,2.4v13.3c0,1.1,0.2,1.9,0.6,2.4
			c0.4,0.6,1,0.8,1.7,0.8c0.7,0,1.3-0.3,1.7-0.8c0.4-0.6,0.6-1.4,0.6-2.4v-4.3H264v-2.8h5.7v7.1c0,1.2-0.2,2.3-0.6,3.2
			c-0.4,0.9-1.1,1.6-1.9,2.2c-0.8,0.5-1.8,0.8-2.9,0.8C263.3,62.8,262.3,62.6,261.5,62.1z"/>
		<path class="st4" d="M278.5,55.8h-4.1l-1,6.8h-2.9l4.3-25.2h3.4l4.3,25.2h-2.9L278.5,55.8z M278.1,53l-1.6-10.5h-0.2L274.8,53
			H278.1z"/>
		<path class="st4" d="M293.4,48.3c-0.5,0.7-1.1,1.3-2,1.6c0.8,0.3,1.5,0.8,1.9,1.4c0.5,0.7,0.7,1.5,0.7,2.5v8.8h-3.1v-9
			c0-0.7-0.2-1.3-0.5-1.7c-0.4-0.4-0.9-0.6-1.5-0.6H287v11.3h-3V37.5h4.7c1.2,0,2.2,0.2,3,0.6c0.8,0.4,1.4,1,1.9,1.8
			c0.4,0.8,0.6,1.7,0.6,2.7v3C294.1,46.7,293.8,47.6,293.4,48.3z M287,40.2v8.3h1.7c0.7,0,1.3-0.2,1.7-0.6c0.4-0.4,0.6-1.1,0.6-1.9
			v-3.3c0-0.8-0.2-1.4-0.6-1.8c-0.4-0.4-1-0.6-1.7-0.6H287z"/>
		<path class="st4" d="M304,38.2c0.9,0.5,1.5,1.2,2,2.2c0.5,0.9,0.7,2.1,0.7,3.4v12.5c0,1.3-0.2,2.4-0.7,3.4c-0.5,0.9-1.1,1.7-2,2.2
			c-0.8,0.5-1.8,0.8-3,0.8h-4.8V37.5h4.8C302.1,37.5,303.1,37.7,304,38.2z M303.5,43.5c0-1-0.2-1.8-0.7-2.4
			c-0.5-0.5-1.1-0.8-1.9-0.8h-1.8v19.4h1.8c0.8,0,1.4-0.3,1.9-0.8c0.5-0.5,0.7-1.3,0.7-2.4V43.5z"/>
		<path class="st4" d="M316.8,59.8v2.8h-7.9V37.5h7.8v2.8h-4.7v8h4.5v2.8h-4.5v8.8H316.8z"/>
		<path class="st4" d="M318.7,37.5h2.7l5.6,17.2h0.2l-0.3-17.2h2.9v25.1H327l-5.5-17.1h-0.2l0.3,17.1h-2.9V37.5z"/>
		<path class="st4" d="M333.2,61.5c-0.9-0.9-1.4-2.4-1.4-4.3v-2.8h3.1v2.8c0,1,0.2,1.8,0.6,2.2c0.4,0.5,0.9,0.7,1.6,0.7
			c0.6,0,1.1-0.2,1.5-0.7c0.4-0.4,0.6-1.1,0.6-1.9V56c0-0.8-0.1-1.4-0.4-2c-0.3-0.6-0.6-1.1-1.1-1.4c-0.4-0.4-1-0.8-1.7-1.3
			c-0.9-0.6-1.6-1.2-2.1-1.7c-0.5-0.5-1-1.2-1.4-2.1c-0.4-0.9-0.6-1.9-0.6-3.2v-1.7c0-1,0.2-2,0.6-2.8c0.4-0.8,1-1.4,1.8-1.9
			c0.8-0.4,1.7-0.7,2.7-0.7c1,0,2,0.2,2.7,0.6c0.8,0.4,1.4,1.1,1.8,1.9c0.4,0.8,0.6,1.8,0.6,2.9v3h-3.1v-3.1c0-0.9-0.2-1.5-0.6-2
			s-0.9-0.7-1.5-0.7c-0.6,0-1.1,0.2-1.5,0.7c-0.4,0.4-0.6,1.1-0.6,1.8V44c0,0.8,0.1,1.4,0.4,2c0.3,0.6,0.6,1,1,1.4
			c0.4,0.4,1,0.8,1.7,1.3c0.9,0.6,1.6,1.2,2.2,1.7c0.5,0.5,1,1.2,1.4,2.1c0.4,0.9,0.6,2,0.6,3.2v1.8c0,1-0.2,2-0.6,2.8
			c-0.4,0.8-1,1.4-1.8,1.9c-0.8,0.4-1.7,0.7-2.7,0.7C335.5,62.9,334.1,62.4,333.2,61.5z"/>
	</g>
</g>
</svg>
