<?xml version="1.0" encoding="utf-8"?>
<!-- Generator: Adobe Illustrator 25.4.1, SVG Export Plug-In . SVG Version: 6.00 Build 0)  -->
<svg version="1.1" id="Layer_1" xmlns="http://www.w3.org/2000/svg" xmlns:xlink="http://www.w3.org/1999/xlink" x="0px" y="0px"
	 viewBox="0 0 348 104" style="enable-background:new 0 0 348 104;" xml:space="preserve">
<style type="text/css">
	.st0{fill:#FFCA06;}
	.st1{fill-rule:evenodd;clip-rule:evenodd;fill:#1A1A1A;}
	.st2{fill:#1A1A1A;}
	.st3{fill:none;stroke:#000000;stroke-width:0.5;stroke-miterlimit:10;}
	.st4{fill:#303030;}
	.st5{fill:#937765;}
	.st6{enable-background:new    ;}
	.st7{fill:none;stroke:#303030;stroke-width:0.5;stroke-miterlimit:10;}
</style>
<g>
	<rect x="178.5" y="18.8" width="0.2" height="66.5"/>
	<g>
		<g>
			<rect x="10.8" y="25.6" class="st0" width="149.9" height="37.7"/>
			<g>
				<path class="st1" d="M33.3,55.5l5.5-9.5H35l1.8-3.2h8.7L43.8,46h-3.1l-5.6,9.6c15.7-0.4,14.3-23.8-1.4-22.4l-5.5,9.5h6.8
					l-1.8,3.2h-8.7l7.1-12.3C20.6,37.1,21.8,54,33.3,55.5 M35.1,31.6C52,31.9,52,57,35.1,57.3C18.2,57,18.2,31.9,35.1,31.6
					L35.1,31.6z"/>
				<path class="st2" d="M139.2,40l1.6,9.8c-0.7,1.2-1.8,2.2-3.2,1.4l-0.5,1.8c2.2,0.8,4.6-0.2,5.5-2.4l6.4-10.9h-2.7l-3.8,7l0,0
					l-0.9-7L139.2,40z M132,41.7h1.7c-0.8,3.3-2.5,9.2,3.2,7.7l0.4-1.9c-3.8,1.5-1.2-4.2-1.1-5.7h2.2l0.4-1.7h-2.2l0.6-2.8l-2.7,0.8
					l-0.4,1.9h-1.8L132,41.7z M126.2,49.3h2.5l2.9-13.7h-2.4L126.2,49.3z M118.4,46.7c0.1-1.9,2.7-1.7,4-1.7
					C122.5,46.9,119.3,49.2,118.4,46.7z M121.8,49.3h2c1.3-5.7,2.7-11.7-5.7-9.1l-0.3,1.9c1.5-0.8,5.6-1.5,4.9,1.3
					c-10.2-1.4-7.1,10.3-0.7,4.4l0,0L121.8,49.3z M108.8,43.6c0.3-2.6,4.8-3.3,4.2,0H108.8z M115.1,45.4c1.7-4.5-3.4-7.5-6.9-4.5
					c-4.9,4.4-0.6,10.8,5.4,8.1l0.3-1.9c-1.8,0.9-5.6,1.3-5.5-1.6H115.1z M99.6,38.5c5.3-0.6,3.6,4.1-0.7,3.4L99.6,38.5z M94.8,49.3
					h2.6l1.1-5.3c0.7,0,1.8-0.2,2.2,0.6c0.3,1,0.8,3.6,1,4.6h2.7c-0.6-1.1-0.6-6.4-2.6-6.4l0,0c3.1,0.3,5.2-3.9,2.7-5.7
					c-1.9-1-4.8-0.5-7-0.6L94.8,49.3z M79.9,38.5h3.6l-2.4,10.8h2.7l2.4-10.7h3.6l0.4-2h-9.8L79.9,38.5z M75.6,39.2
					c0,1.2-1.2,1.7-2.3,2C71.2,39.2,74.8,36.5,75.6,39.2z M74.6,47c-3.3,2.4-6.7-2-2.3-3.4L74.6,47z M76.1,49.3h2.8l-1.4-2.2
					c1.2-1.3,2-3,2.2-4.8h-2.3c-0.1,1.1-0.4,2.2-1.1,3.1l-1.8-2.7c3.5-0.6,4.8-5.5,0.8-6.4c-3.3-1-6.4,2.8-3.9,5.5
					c-7.7,2.8-1.4,10.4,4.4,6.6L76.1,49.3z M59,49.3h7.6l0.4-2h-5l2.4-10.8h-2.6L59,49.3z"/>
			</g>
		</g>
		<g>
			<g>
				<path d="M39.8,70.8v7.5h-1v-5.6l-2.5,5.6h-0.7l-2.5-5.6v5.6h-1v-7.5h1.1L36,77l2.8-6.2H39.8z"/>
				<path d="M46,76.7h-3.3l-0.6,1.7h-1l2.7-7.5h1.1l2.7,7.5h-1L46,76.7z M45.7,75.9L44.3,72l-1.4,3.8H45.7z"/>
				<path d="M52.8,78.3L51,75.3h-1.2v3.1h-1v-7.6h2.4c0.6,0,1.1,0.1,1.4,0.3c0.4,0.2,0.7,0.5,0.9,0.8c0.2,0.3,0.3,0.7,0.3,1.1
					c0,0.5-0.2,1-0.5,1.4c-0.3,0.4-0.8,0.7-1.3,0.8l1.9,3.2H52.8z M49.8,74.5h1.5c0.5,0,0.9-0.1,1.2-0.4c0.3-0.3,0.4-0.6,0.4-1.1
					c0-0.4-0.1-0.8-0.4-1c-0.3-0.2-0.7-0.4-1.2-0.4h-1.5V74.5z"/>
				<path d="M59.5,78.3l-3.1-3.4v3.4h-1v-7.6h1v3.5l3.1-3.5h1.2l-3.4,3.8l3.5,3.8H59.5z"/>
				<path d="M62.9,71.6v2.5h2.8v0.8h-2.8v2.6h3.1v0.8h-4.1v-7.6h4.1v0.8H62.9z"/>
				<path d="M72.1,70.8v0.8H70v6.8h-1v-6.8H67v-0.8H72.1z"/>
				<path d="M74.3,70.8v7.6h-1v-7.6H74.3z"/>
				<path d="M81.9,78.3h-1l-4-6v6h-1v-7.6h1l4,6v-6h1V78.3z"/>
				<path d="M89.3,73c-0.2-0.4-0.5-0.8-0.9-1c-0.4-0.2-0.9-0.4-1.4-0.4s-1,0.1-1.4,0.4c-0.4,0.2-0.8,0.6-1,1c-0.2,0.5-0.4,1-0.4,1.6
					c0,0.6,0.1,1.1,0.4,1.6c0.2,0.4,0.6,0.8,1,1c0.4,0.2,0.9,0.4,1.4,0.4c0.7,0,1.3-0.2,1.8-0.7c0.5-0.4,0.8-1,0.8-1.8h-3v-0.8h4.1
					V75c-0.1,0.6-0.3,1.2-0.6,1.7c-0.3,0.5-0.8,0.9-1.3,1.2c-0.5,0.3-1.1,0.4-1.8,0.4c-0.7,0-1.3-0.2-1.9-0.5
					c-0.6-0.3-1-0.8-1.4-1.4c-0.3-0.6-0.5-1.2-0.5-2c0-0.7,0.2-1.4,0.5-2c0.3-0.6,0.8-1,1.4-1.4c0.6-0.3,1.2-0.5,1.9-0.5
					c0.8,0,1.5,0.2,2.1,0.6c0.6,0.4,1.1,1,1.3,1.7H89.3z"/>
				<path d="M99.3,74.6c-0.4,0.4-1.1,0.6-2,0.6h-1.5v3.2h-1v-7.6h2.4c0.9,0,1.5,0.2,1.9,0.6c0.4,0.4,0.7,0.9,0.7,1.6
					C100,73.6,99.8,74.2,99.3,74.6z M98.6,74c0.3-0.2,0.4-0.6,0.4-1c0-0.9-0.5-1.4-1.6-1.4h-1.5v2.8h1.5
					C97.9,74.4,98.3,74.3,98.6,74z"/>
				<path d="M105.7,76.7h-3.3l-0.6,1.7h-1l2.7-7.5h1.1l2.7,7.5h-1L105.7,76.7z M105.4,75.9L104,72l-1.4,3.8H105.4z"/>
				<path d="M112.5,78.3l-1.8-3.1h-1.2v3.1h-1v-7.6h2.4c0.6,0,1.1,0.1,1.4,0.3c0.4,0.2,0.7,0.5,0.9,0.8c0.2,0.3,0.3,0.7,0.3,1.1
					c0,0.5-0.2,1-0.5,1.4c-0.3,0.4-0.8,0.7-1.3,0.8l1.9,3.2H112.5z M109.5,74.5h1.5c0.5,0,0.9-0.1,1.2-0.4c0.3-0.3,0.4-0.6,0.4-1.1
					c0-0.4-0.1-0.8-0.4-1c-0.3-0.2-0.7-0.4-1.2-0.4h-1.5V74.5z"/>
				<path d="M119.8,70.8v0.8h-2.1v6.8h-1v-6.8h-2.1v-0.8H119.8z"/>
				<path d="M126.9,78.3h-1l-4-6v6h-1v-7.6h1l4,6v-6h1V78.3z"/>
				<path d="M129.6,71.6v2.5h2.8v0.8h-2.8v2.6h3.1v0.8h-4.1v-7.6h4.1v0.8H129.6z"/>
				<path d="M138.1,78.3l-1.8-3.1h-1.2v3.1h-1v-7.6h2.4c0.6,0,1.1,0.1,1.4,0.3c0.4,0.2,0.7,0.5,0.9,0.8c0.2,0.3,0.3,0.7,0.3,1.1
					c0,0.5-0.2,1-0.5,1.4c-0.3,0.4-0.8,0.7-1.3,0.8l1.9,3.2H138.1z M135.1,74.5h1.5c0.5,0,0.9-0.1,1.2-0.4c0.3-0.3,0.4-0.6,0.4-1.1
					c0-0.4-0.1-0.8-0.4-1c-0.3-0.2-0.7-0.4-1.2-0.4h-1.5V74.5z"/>
			</g>
			<line class="st3" x1="10.8" y1="75.1" x2="27.5" y2="75.1"/>
			<line class="st3" x1="144" y1="75.1" x2="160.7" y2="75.1"/>
		</g>
	</g>
	<g>
		<g>
			<polygon class="st4" points="239,39.4 239,27.2 234,27.2 234,25.5 246.5,25.5 246.5,27.2 241.4,27.2 241.4,39.4 			"/>
			<polygon class="st4" points="239.4,39.1 239.4,26.9 234.2,26.9 234.2,25.8 246.2,25.8 246.2,26.9 241.1,26.9 241.1,39.1 			"/>
			<polygon class="st4" points="259.7,39.4 259.7,32.8 252.3,32.8 252.3,39.4 249.9,39.4 249.9,25.5 252.3,25.5 252.3,31.3 
				259.7,31.3 259.7,25.5 262.1,25.5 262.1,39.4 			"/>
			<polygon class="st4" points="252,39.1 250.3,39.1 250.3,25.8 252,25.8 252,31.6 260,31.6 260,25.8 261.7,25.8 261.7,39.1 
				260,39.1 260,32.5 252,32.5 			"/>
			<polygon class="st4" points="267.3,39.4 267.3,25.5 276.6,25.5 276.6,27.2 269.8,27.2 269.8,31.3 275.6,31.3 275.6,32.8 
				269.8,32.8 269.8,37.8 276.6,37.8 276.6,39.4 			"/>
			<polygon class="st4" points="276.3,25.8 276.3,26.9 269.4,26.9 269.4,31.6 275.3,31.6 275.3,32.5 269.4,32.5 269.4,38 276.3,38 
				276.3,39.1 267.7,39.1 267.7,25.8 			"/>
			<path class="st4" d="M241.5,60.4c-1.3,0-2.4-0.2-3.4-0.7c-1-0.5-1.7-1-2.4-1.6c-0.7-0.7-1.1-1.4-1.4-2.4
				c-0.3-0.9-0.5-1.8-0.5-2.8c0-1.1,0.2-2.1,0.6-3c0.4-0.9,1-1.6,1.6-2.2c0.7-0.6,1.5-1.1,2.4-1.4c1-0.3,2-0.5,3.1-0.5
				c1,0,1.8,0.1,2.6,0.3c0.7,0.2,1.3,0.5,1.8,0.9c0.5,0.3,0.9,0.7,1.2,1.1c0.3,0.4,0.5,0.7,0.7,1.1l0.2,0.5H246l-0.1-0.3
				c-0.1-0.2-0.2-0.5-0.5-0.7c-0.3-0.3-0.6-0.5-0.9-0.7c-0.4-0.2-0.9-0.3-1.3-0.5c-0.5-0.1-1.1-0.2-1.6-0.2c-0.9,0-1.6,0.1-2.2,0.4
				s-1.1,0.7-1.6,1.1c-0.5,0.5-0.8,1.1-1.1,1.8c-0.3,0.7-0.3,1.4-0.3,2.3c0,0.9,0.1,1.6,0.4,2.4c0.3,0.7,0.6,1.3,1.1,1.8
				c0.5,0.5,1.1,0.9,1.7,1.2c0.7,0.3,1.5,0.5,2.5,0.5c0.7,0,1.4-0.1,2-0.3c0.5-0.1,1.1-0.4,1.5-0.7V55h-2.1v-1.4h4.4v6.6h-2.2v-0.6
				c-0.4,0.2-0.9,0.3-1.4,0.5C243.4,60.2,242.6,60.4,241.5,60.4z"/>
			<path class="st4" d="M247.5,59.8h-1.6V59c-0.5,0.3-1.1,0.5-1.8,0.7c-0.8,0.2-1.6,0.3-2.6,0.3c-1.3,0-2.4-0.2-3.2-0.6
				c-0.9-0.4-1.6-1-2.2-1.6c-0.6-0.7-1.1-1.4-1.3-2.2c-0.3-0.9-0.5-1.7-0.5-2.6c0-1.1,0.2-2,0.6-2.8s0.9-1.5,1.5-2.1
				c0.7-0.6,1.4-1.1,2.4-1.3c0.9-0.3,1.9-0.5,3-0.5c1,0,1.7,0.1,2.4,0.3c0.7,0.2,1.3,0.5,1.7,0.8c0.5,0.3,0.9,0.7,1.1,1
				c0.3,0.3,0.5,0.7,0.6,1h-1.3c-0.1-0.3-0.3-0.5-0.5-0.8c-0.3-0.3-0.6-0.5-1.1-0.7c-0.4-0.2-0.9-0.4-1.4-0.5
				c-0.5-0.1-1.1-0.2-1.6-0.2c-0.9,0-1.6,0.1-2.4,0.5c-0.7,0.3-1.3,0.7-1.7,1.2s-0.9,1.1-1.1,1.9c-0.3,0.8-0.4,1.5-0.4,2.4
				s0.1,1.7,0.4,2.4c0.3,0.8,0.7,1.4,1.1,1.9c0.5,0.5,1.1,1,1.8,1.3c0.8,0.3,1.6,0.5,2.6,0.5c0.8,0,1.4-0.1,2-0.3s1.2-0.5,1.7-0.9
				v-3.4h-2.1v-0.8h3.8L247.5,59.8L247.5,59.8L247.5,59.8z"/>
			<path class="st4" d="M261.5,60.1l-1.8-3.9h-6.1l-1.6,3.9h-1.6l5.9-14h1.3l6.5,14H261.5z M259,54.7l-2.5-5.4l-2.3,5.4H259z"/>
			<path class="st4" d="M253.4,55.9l-1.6,3.9h-0.9l5.6-13.4h1l6.2,13.4h-1.8l-1.8-3.9H253.4z M256.5,48.6L256.5,48.6l-2.8,6.4h5.8
				L256.5,48.6z"/>
			<polygon class="st4" points="268.6,60.1 268.6,47.9 263.4,47.9 263.4,46.1 276,46.1 276,47.9 270.9,47.9 270.9,60.1 			"/>
			<polygon class="st4" points="268.8,59.8 268.8,47.5 263.8,47.5 263.8,46.5 275.7,46.5 275.7,47.5 270.6,47.5 270.6,59.8 			"/>
			<polygon class="st4" points="279.6,60.1 279.6,46.1 288.8,46.1 288.8,47.9 281.9,47.9 281.9,52 287.9,52 287.9,53.4 281.9,53.4 
				281.9,58.5 288.8,58.5 288.8,60.1 			"/>
			<polygon class="st4" points="288.5,46.5 288.5,47.5 281.6,47.5 281.6,52.3 287.5,52.3 287.5,53.1 281.6,53.1 281.6,58.8 
				288.5,58.8 288.5,59.8 279.8,59.8 279.8,46.5 			"/>
			<polygon class="st4" points="304,60.1 300.7,50.2 297.2,60.1 295.6,60.1 290.7,46.1 293.1,46.1 296.8,56.7 300.4,46.1 
				301.8,46.1 305.3,56.7 309,46.1 310.6,46.1 305.6,60.1 			"/>
			<polygon class="st4" points="292.9,46.5 296.8,57.5 296.9,57.5 300.7,46.5 301.5,46.5 305.2,57.6 305.3,57.6 309.3,46.5 
				310.1,46.5 305.4,59.8 304.3,59.8 300.8,49.4 300.6,49.4 297,59.8 295.9,59.8 291.2,46.5 			"/>
			<path class="st4" d="M321.8,60.1l-1.8-3.9h-6.1l-1.6,3.9h-1.6l5.9-14h1.3l6.5,14H321.8z M319.3,54.7l-2.5-5.4l-2.3,5.4H319.3z"/>
			<path class="st4" d="M313.7,55.9l-1.6,3.9h-0.9l5.6-13.4h1l6.2,13.4H322l-1.8-3.9H313.7z M316.8,48.6L316.8,48.6L314,55h5.8
				L316.8,48.6z"/>
			<polygon class="st4" points="329,60.1 329,54.8 324.2,46.1 326.9,46.1 330.7,52.9 334.5,46.1 336.3,46.1 331.4,54.7 331.4,60.1 
							"/>
			<polygon class="st4" points="326.7,46.5 330.6,53.4 330.7,53.4 334.7,46.5 335.7,46.5 331.1,54.6 331.1,59.8 329.3,59.8 
				329.3,54.8 324.7,46.5 			"/>
		</g>
		<g>
			<rect x="196.5" y="59.1" class="st5" width="1.9" height="16.5"/>
			<rect x="196.9" y="59.5" class="st5" width="1.1" height="15.7"/>
			<rect x="208" y="48.3" class="st5" width="1.9" height="27.3"/>
			<rect x="208.3" y="48.7" class="st5" width="1.1" height="26.5"/>
			<rect x="219.5" y="59.1" class="st5" width="1.9" height="16.5"/>
			<rect x="219.9" y="59.5" class="st5" width="1.1" height="15.7"/>
			<polygon class="st5" points="213.7,75.6 213.7,34.8 204.1,34.8 204.1,75.6 202.2,75.6 202.2,34.8 199.9,34.8 199.9,32.6 
				218,32.6 218,34.8 215.6,34.8 215.6,75.6 			"/>
			<polygon class="st5" points="200.3,34.4 202.6,34.4 202.6,75.2 203.7,75.2 203.7,34.4 214.1,34.4 214.1,75.2 215.3,75.2 
				215.3,34.4 217.6,34.4 217.6,33.1 200.3,33.1 			"/>
			<rect x="197.6" y="26.4" class="st5" width="22.6" height="2.1"/>
			<rect x="197.9" y="26.9" class="st5" width="21.9" height="1.3"/>
		</g>
		<g class="st6">
			<path class="st4" d="M236.8,76.8c-0.7,0-1.3-0.1-1.8-0.3s-1.1-0.5-1.4-0.7l0.5-1.1c0.3,0.3,0.7,0.5,1.2,0.7
				c0.5,0.2,1,0.3,1.4,0.3c0.5,0,0.8-0.1,1.1-0.1c0.3-0.1,0.5-0.2,0.6-0.4c0.1-0.2,0.2-0.3,0.2-0.6c0-0.3-0.1-0.5-0.3-0.6
				c-0.2-0.1-0.4-0.3-0.7-0.4c-0.3-0.1-0.6-0.2-1-0.3c-0.3-0.1-0.7-0.2-1.1-0.3c-0.3-0.1-0.7-0.3-1-0.4c-0.3-0.2-0.5-0.4-0.7-0.7
				c-0.2-0.3-0.3-0.7-0.3-1.1c0-0.5,0.1-0.9,0.4-1.2c0.3-0.4,0.6-0.7,1.1-0.9c0.5-0.2,1.1-0.3,1.8-0.3c0.5,0,1,0.1,1.4,0.2
				c0.5,0.1,0.9,0.3,1.3,0.5l-0.5,1.1c-0.4-0.2-0.8-0.4-1.1-0.5c-0.4-0.1-0.8-0.1-1.1-0.1c-0.5,0-0.8,0.1-1.1,0.1
				c-0.3,0.1-0.5,0.3-0.6,0.4c-0.1,0.2-0.2,0.3-0.2,0.6s0.1,0.5,0.3,0.6c0.2,0.1,0.4,0.3,0.7,0.4c0.3,0.1,0.6,0.2,1,0.3
				c0.4,0.1,0.7,0.2,1.1,0.3c0.3,0.1,0.7,0.3,1,0.4c0.3,0.2,0.5,0.4,0.7,0.7c0.2,0.3,0.3,0.7,0.3,1.1c0,0.5-0.1,0.9-0.4,1.2
				c-0.3,0.4-0.6,0.7-1.1,0.9C238.2,76.7,237.5,76.8,236.8,76.8z"/>
			<path class="st4" d="M243.6,75.4h4.6v1.3h-6.1v-8.2h6v1.3h-4.5V75.4L243.6,75.4z M243.4,71.9h4.1v1.3h-4.1V71.9z"/>
			<path class="st4" d="M252.2,76.7l-2.7-8.2h1.6l2.4,7.4h-0.8l2.5-7.4h1.4L259,76h-0.8l2.5-7.4h1.4l-2.6,8.2H258l-2.2-6.6h0.5
				l-2.3,6.6H252.2z"/>
			<path class="st4" d="M263.9,76.7v-8.2h3.4c0.7,0,1.3,0.1,1.8,0.3c0.5,0.3,0.9,0.6,1.2,1.1c0.3,0.5,0.5,1,0.5,1.5
				c0,0.6-0.1,1.1-0.5,1.5c-0.3,0.5-0.7,0.8-1.2,1.1c-0.5,0.3-1.1,0.3-1.8,0.3h-2.6l0.7-0.7v3.1L263.9,76.7L263.9,76.7z M265.4,73.7
				l-0.7-0.7h2.4c0.7,0,1.1-0.1,1.5-0.5c0.3-0.3,0.5-0.7,0.5-1.2c0-0.5-0.2-0.9-0.5-1.2c-0.3-0.3-0.9-0.5-1.5-0.5h-2.4l0.7-0.8V73.7
				z M269.2,76.7l-2-3h1.6l2.1,3H269.2z"/>
			<path class="st4" d="M273,76.7v-8.2h1.5v8.2H273z"/>
			<path class="st4" d="M276.6,78.5l0.7-2.6l0.2,0.9c-0.3,0-0.5-0.1-0.7-0.3c-0.2-0.2-0.3-0.4-0.3-0.7c0-0.3,0.1-0.5,0.3-0.7
				c0.2-0.2,0.4-0.3,0.7-0.3c0.3,0,0.5,0.1,0.7,0.3c0.2,0.2,0.3,0.4,0.3,0.7c0,0.1,0,0.2,0,0.3c0,0.1-0.1,0.2-0.1,0.3
				c-0.1,0.1-0.1,0.3-0.2,0.5l-0.6,1.6L276.6,78.5L276.6,78.5z"/>
			<path class="st4" d="M284.1,76.7v-8.2h1.3l3.6,6h-0.7l3.5-6h1.3v8.2h-1.4v-5.9h0.3l-3,5h-0.7l-3.1-5h0.3v5.9
				C285.6,76.7,284.1,76.7,284.1,76.7z"/>
			<path class="st4" d="M299.3,76.8c-1.1,0-2-0.3-2.6-1c-0.7-0.7-1-1.5-1-2.8v-4.6h1.5V73c0,0.9,0.2,1.4,0.6,1.8
				c0.4,0.4,0.9,0.6,1.5,0.6s1.1-0.2,1.5-0.6c0.4-0.4,0.5-1.1,0.5-1.8v-4.5h1.4v4.6c0,1.2-0.3,2.1-1,2.8
				C301.2,76.5,300.4,76.8,299.3,76.8z"/>
			<path class="st4" d="M305.4,76.7v-8.2h1.3l3.6,6h-0.7l3.5-6h1.3v8.2h-1.4v-5.9h0.3l-3,5h-0.7l-3.1-5h0.3v5.9
				C306.9,76.7,305.4,76.7,305.4,76.7z"/>
			<path class="st4" d="M317.1,76.7v-8.2h3.8c1,0,1.7,0.2,2.2,0.6c0.5,0.4,0.8,0.9,0.8,1.5c0,0.5-0.1,0.9-0.3,1.1
				c-0.2,0.3-0.5,0.6-0.9,0.7c-0.3,0.2-0.7,0.3-1.1,0.3l0.2-0.5c0.5,0,0.9,0.1,1.2,0.3c0.4,0.2,0.7,0.4,0.9,0.7
				c0.2,0.3,0.3,0.7,0.3,1.2c0,0.7-0.3,1.3-0.9,1.6c-0.5,0.4-1.3,0.6-2.4,0.6L317.1,76.7L317.1,76.7z M318.6,75.4h2.4
				c0.6,0,1.1-0.1,1.3-0.3c0.3-0.2,0.5-0.5,0.5-0.9c0-0.4-0.1-0.7-0.5-0.9c-0.3-0.2-0.8-0.3-1.3-0.3h-2.6v-1.1h2.3
				c0.5,0,1-0.1,1.2-0.3c0.3-0.2,0.5-0.5,0.5-0.9s-0.1-0.7-0.5-0.9c-0.3-0.2-0.7-0.3-1.2-0.3h-2.2L318.6,75.4L318.6,75.4z"/>
			<path class="st4" d="M325.3,76.7l3.7-8.2h1.4l3.7,8.2h-1.6l-3.2-7.4h0.7l-3.1,7.4H325.3z M327,74.7l0.4-1.2h4.4l0.4,1.2H327z"/>
			<path class="st4" d="M335.7,76.7v-8.2h1.5v8.2H335.7z"/>
		</g>
		<line class="st7" x1="234.2" y1="64.6" x2="335.7" y2="64.6"/>
	</g>
</g>
</svg>
