<?xml version="1.0" encoding="utf-8"?>
<!-- Generator: Adobe Illustrator 24.3.0, SVG Export Plug-In . SVG Version: 6.00 Build 0)  -->
<svg version="1.1" id="Layer_1" xmlns="http://www.w3.org/2000/svg" xmlns:xlink="http://www.w3.org/1999/xlink" x="0px" y="0px"
	 viewBox="0 0 218 59" style="enable-background:new 0 0 218 59;" xml:space="preserve">
<style type="text/css">
	.st0{fill:#9D7F1B;}
	.st1{fill-rule:evenodd;clip-rule:evenodd;fill:#6D6E71;}
	.st2{fill:none;stroke:#221E1F;stroke-width:9.465126e-02;stroke-miterlimit:10;}
	.st3{fill:#6D6E71;}
	.st4{enable-background:new    ;}
</style>
<g>
	<polygon class="st0" points="36,25.8 36,14 38.8,14 38.8,23.5 47.9,23.5 47.9,25.8 	"/>
	<g>
		<rect x="12.4" y="42" class="st1" width="19.7" height="3.1"/>
		<rect x="12.4" y="14.1" class="st1" width="19.7" height="3.1"/>
		<rect x="12.4" y="21.1" class="st1" width="19.7" height="3.1"/>
		<rect x="12.4" y="28" class="st1" width="19.7" height="3.1"/>
		<rect x="12.4" y="35" class="st1" width="19.7" height="3.2"/>
	</g>
	<line class="st2" x1="125.5" y1="14.8" x2="125.5" y2="45.2"/>
	<path class="st0" d="M64.3,19.9c0,1.7-0.7,3.2-2,4.3c-0.7,0.6-1.6,1.1-2.6,1.4s-2.1,0.5-3.3,0.5s-2.3-0.2-3.3-0.5s-1.9-0.8-2.6-1.4
		c-0.7-0.6-1.2-1.2-1.5-1.9s-0.5-1.5-0.5-2.4s0.2-1.6,0.5-2.4c0.3-0.7,0.8-1.4,1.5-1.9c0.7-0.6,1.6-1.1,2.7-1.4
		c1-0.3,2.1-0.5,3.3-0.5s2.3,0.2,3.3,0.5s1.9,0.8,2.7,1.4C63.7,16.8,64.3,18.2,64.3,19.9 M61.4,19.9c0-0.6-0.1-1.1-0.4-1.6
		c-0.2-0.5-0.6-0.9-1-1.2s-1-0.6-1.6-0.8S57.1,16,56.3,16s-1.5,0.1-2.1,0.3s-1.2,0.5-1.6,0.8c-0.4,0.3-0.8,0.8-1,1.2
		c-0.2,0.5-0.4,1-0.4,1.6s0.1,1.1,0.3,1.6s0.6,0.9,1,1.2c0.4,0.3,1,0.6,1.6,0.8s1.3,0.3,2.1,0.3s1.5-0.1,2.1-0.3
		c0.6-0.2,1.2-0.5,1.6-0.8c0.4-0.3,0.8-0.8,1-1.2C61.3,21,61.4,20.5,61.4,19.9"/>
	<path class="st0" d="M77.5,14.4c0.9,0.3,1.6,0.7,2.2,1.2c0.6,0.5,1.1,1.2,1.4,1.9s0.5,1.6,0.5,2.5c0,1.7-0.7,3.1-2.1,4.2
		c-0.6,0.5-1.3,0.8-2.1,1.1c-0.8,0.3-1.6,0.4-2.5,0.4h-8.3V14h7.9C75.7,14,76.7,14.2,77.5,14.4 M76.6,23.1c0.6-0.3,1-0.6,1.4-1.1
		c0.5-0.6,0.7-1.3,0.7-2c0-0.5-0.1-1-0.3-1.5c-0.2-0.5-0.5-0.8-0.8-1.2c-0.3-0.3-0.8-0.6-1.2-0.8c-0.5-0.2-1-0.3-1.6-0.3h-5.2v7.3
		h5.2C75.4,23.5,76,23.4,76.6,23.1"/>
	<polygon class="st0" points="95.6,25.8 95.6,20.8 87.2,20.8 87.2,25.8 84.3,25.8 84.3,14 87.2,14 87.2,18.3 95.6,18.3 95.6,14 
		98.5,14 98.5,25.8 	"/>
	<path class="st0" d="M113.4,25.8l-1.3-2.5h-7.5l-1.3,2.5h-2.9l6.2-11.7h3.5l6.2,11.7H113.4z M108.3,16.2l-2.6,4.8h5.2L108.3,16.2z"
		/>
	<g>
		<path class="st3" d="M41.8,29.4c0.3,0.1,0.5,0.2,0.7,0.4s0.4,0.4,0.5,0.6c0.1,0.3,0.2,0.6,0.2,0.9c0,0.4-0.1,0.7-0.2,0.9
			c-0.1,0.3-0.3,0.5-0.5,0.7s-0.5,0.3-0.7,0.4s-0.7,0.2-1,0.2h-3.6v2.7h-1.1v-6.9h4.8C41.2,29.3,41.5,29.3,41.8,29.4z M37.2,32.4
			h3.6c0.2,0,0.3,0,0.5,0c0.1,0,0.3-0.1,0.4-0.2c0.1-0.1,0.2-0.2,0.3-0.3s0.1-0.3,0.1-0.5s0-0.4-0.1-0.5s-0.2-0.2-0.3-0.3
			s-0.2-0.1-0.4-0.2c-0.2,0-0.3-0.1-0.5-0.1h-3.5L37.2,32.4L37.2,32.4z"/>
		<path class="st3" d="M52.3,31.4c0,0.5-0.1,1-0.4,1.3c-0.3,0.3-0.7,0.6-1.2,0.7l1.8,2.8h-1.3l-1.8-2.7h-3v2.7h-1.1v-6.9h4.8
			c0.3,0,0.6,0,0.9,0.1c0.3,0.1,0.5,0.2,0.7,0.4c0.2,0.2,0.4,0.4,0.5,0.7C52.2,30.8,52.3,31,52.3,31.4z M46.4,32.4h3.5
			c0.2,0,0.3,0,0.5,0s0.3-0.1,0.4-0.2c0.1-0.1,0.2-0.2,0.3-0.3s0.1-0.3,0.1-0.5s0-0.4-0.1-0.5s-0.2-0.2-0.3-0.3s-0.2-0.1-0.4-0.2
			c-0.2,0-0.3-0.1-0.5-0.1h-3.5V32.4z"/>
		<path class="st3" d="M55.8,35.2h5.5v1.1h-6.6v-6.9H61v1.1h-5.2v1.7h3.5v1.1h-3.5V35.2z"/>
		<path class="st3" d="M63.7,29.3H70v1.1h-5.2v1.7h3.4v1.1h-3.4v3.1h-1.1C63.7,36.3,63.7,29.3,63.7,29.3z"/>
		<path class="st3" d="M72.1,29.3h6.3v1.1h-5.2v1.7h3.4v1.1h-3.4v3.1h-1.1C72.1,36.3,72.1,29.3,72.1,29.3z"/>
		<path class="st3" d="M81.6,35.2h5.5v1.1h-6.6v-6.9h6.3v1.1h-5.2v1.7h3.5v1.1h-3.5C81.6,33.3,81.6,35.2,81.6,35.2z"/>
		<path class="st3" d="M96.6,31.4c0,0.5-0.1,1-0.4,1.3s-0.7,0.6-1.2,0.7l1.8,2.8h-1.3l-1.9-2.7h-3v2.7h-1.1v-6.9h4.8
			c0.3,0,0.6,0,0.9,0.1s0.5,0.2,0.7,0.4c0.2,0.2,0.4,0.4,0.5,0.7C96.5,30.8,96.6,31,96.6,31.4z M90.6,32.4h3.5c0.2,0,0.3,0,0.5,0
			s0.3-0.1,0.4-0.2c0.1-0.1,0.2-0.2,0.3-0.3c0.1-0.1,0.1-0.3,0.1-0.5s0-0.4-0.1-0.5s-0.2-0.2-0.3-0.3c-0.1-0.1-0.2-0.1-0.4-0.2
			c-0.2,0-0.3-0.1-0.5-0.1h-3.5V32.4z"/>
		<path class="st3" d="M100.1,35.2h5.5v1.1H99v-6.9h6.3v1.1h-5.2v1.7h3.5v1.1h-3.5C100.1,33.3,100.1,35.2,100.1,35.2z"/>
		<path class="st3" d="M113.2,29.5c0.5,0.2,0.9,0.4,1.2,0.7c0.3,0.3,0.6,0.7,0.8,1.1c0.2,0.4,0.3,0.9,0.3,1.5c0,0.5-0.1,1-0.3,1.4
			c-0.2,0.4-0.5,0.8-0.8,1.1s-0.7,0.5-1.2,0.7c-0.4,0.2-0.9,0.2-1.4,0.2h-3.9v-6.9h3.8C112.3,29.3,112.8,29.4,113.2,29.5z
			 M114.3,32.8c0-0.4-0.1-0.7-0.2-1s-0.3-0.6-0.5-0.8c-0.2-0.2-0.5-0.4-0.8-0.5s-0.6-0.2-1-0.2h-2.7v4.8h2.8c0.4,0,0.7-0.1,1-0.2
			s0.6-0.3,0.8-0.5c0.2-0.2,0.4-0.5,0.5-0.7C114.3,33.5,114.3,33.2,114.3,32.8z"/>
		<path class="st3" d="M41.8,38.3c0.3,0.1,0.5,0.2,0.7,0.4s0.4,0.4,0.5,0.6c0.1,0.3,0.2,0.6,0.2,0.9c0,0.4-0.1,0.7-0.2,0.9
			c-0.1,0.3-0.3,0.5-0.5,0.7s-0.5,0.3-0.7,0.4s-0.6,0.1-0.9,0.1h-3.6V45h-1.1v-6.9H41C41.2,38.2,41.5,38.2,41.8,38.3z M37.2,41.3
			h3.6c0.2,0,0.3,0,0.5,0c0.1,0,0.3-0.1,0.4-0.2c0.1-0.1,0.2-0.2,0.3-0.3s0.1-0.3,0.1-0.5s0-0.4-0.1-0.5s-0.2-0.2-0.3-0.3
			s-0.2-0.1-0.4-0.2c-0.2,0-0.3-0.1-0.5-0.1h-3.5L37.2,41.3L37.2,41.3z"/>
		<path class="st3" d="M52.6,38.2l3.6,6.9H55l-0.8-1.7h-4.1l-0.8,1.7h-1.5l3.5-6.9H52.6z M52,39.5l-1.5,3h3L52,39.5z"/>
		<path class="st3" d="M67.6,40.3c0,0.5-0.1,1-0.4,1.3s-0.7,0.6-1.2,0.7l1.8,2.8h-1.3l-1.8-2.7h-3v2.7h-1.1v-6.9h4.8
			c0.3,0,0.6,0,0.9,0.1s0.5,0.2,0.7,0.4s0.4,0.4,0.5,0.7C67.5,39.6,67.6,40,67.6,40.3z M61.6,41.3h3.5c0.2,0,0.3,0,0.5,0
			s0.3-0.1,0.4-0.2c0.1-0.1,0.2-0.2,0.3-0.3s0.1-0.3,0.1-0.5s0-0.4-0.1-0.5s-0.2-0.2-0.3-0.3s-0.2-0.1-0.4-0.2
			c-0.2,0-0.3-0.1-0.5-0.1h-3.5V41.3z"/>
		<path class="st3" d="M79.8,38.2v1.1h-3.1v5.9h-1.1v-5.9h-3.1v-1.1H79.8z"/>
		<path class="st3" d="M90.6,38.2h1.1v6.9h-1.1l-4.8-5.3v5.3h-1.1v-6.9h1.1l4.8,5.3V38.2z"/>
		<path class="st3" d="M97.8,44h5.5v1.1h-6.6v-6.9h6.3v1.1h-5.2V41h3.5v1.1h-3.5C97.8,42.1,97.8,44,97.8,44z"/>
		<path class="st3" d="M115.3,40.3c0,0.5-0.1,1-0.4,1.3c-0.3,0.4-0.7,0.6-1.2,0.7l1.8,2.8h-1.3l-1.8-2.7h-3v2.7h-1.1v-6.9h4.8
			c0.3,0,0.6,0,0.9,0.1s0.5,0.2,0.7,0.4s0.4,0.4,0.5,0.7S115.3,40,115.3,40.3z M109.4,41.3h3.5c0.2,0,0.3,0,0.5,0s0.3-0.1,0.4-0.2
			c0.1-0.1,0.2-0.2,0.3-0.3s0.1-0.3,0.1-0.5s0-0.4-0.1-0.5s-0.2-0.2-0.3-0.3s-0.2-0.1-0.4-0.2c-0.2,0-0.3-0.1-0.5-0.1h-3.5V41.3z"/>
	</g>
	<g class="st4">
		<path class="st3" d="M140.6,25c0.9,0,1.7,0.1,2.5,0.4s1.5,0.6,2,1.1c0.6,0.5,1.1,1.1,1.4,1.8c0.4,0.7,0.5,1.5,0.5,2.4
			c0,0.9-0.2,1.7-0.5,2.4s-0.8,1.2-1.4,1.7c-0.6,0.5-1.3,0.8-2,1c-0.8,0.2-1.6,0.3-2.4,0.3c-0.8,0-1.7-0.1-2.4-0.3
			c-0.8-0.2-1.5-0.5-2.1-1c-0.6-0.4-1.1-1-1.4-1.7c-0.4-0.7-0.5-1.5-0.5-2.4c0-0.9,0.2-1.7,0.5-2.4c0.3-0.7,0.8-1.3,1.4-1.8
			c0.6-0.5,1.3-0.8,2-1.1C138.9,25.2,139.7,25,140.6,25z M140.6,26.6c-0.6,0-1.2,0.1-1.8,0.2c-0.6,0.2-1.1,0.4-1.5,0.8
			c-0.4,0.3-0.8,0.8-1,1.3s-0.4,1.1-0.4,1.8c0,0.7,0.1,1.3,0.4,1.8c0.3,0.5,0.6,0.9,1.1,1.2c0.5,0.3,1,0.5,1.6,0.6
			c0.6,0.1,1.2,0.2,1.8,0.2c0.6,0,1.2-0.1,1.8-0.2c0.6-0.1,1.1-0.4,1.5-0.7c0.4-0.3,0.8-0.7,1.1-1.2c0.3-0.5,0.4-1.1,0.4-1.7
			c0-0.7-0.1-1.3-0.4-1.8c-0.3-0.5-0.6-0.9-1.1-1.3c-0.4-0.3-1-0.6-1.6-0.8C141.8,26.7,141.2,26.6,140.6,26.6z"/>
		<path class="st3" d="M159.2,25.5c0.4,0.1,0.8,0.3,1.1,0.6c0.3,0.3,0.6,0.6,0.7,1c0.2,0.4,0.3,0.9,0.3,1.4c0,0.5-0.1,1-0.3,1.4
			c-0.2,0.4-0.4,0.7-0.7,1c-0.3,0.3-0.7,0.5-1.1,0.6c-0.4,0.1-0.9,0.2-1.4,0.2h-5.5v4.2h-1.7V25.3h7.3
			C158.3,25.3,158.7,25.4,159.2,25.5z M152.2,30.1h5.4c0.3,0,0.5,0,0.7-0.1c0.2,0,0.4-0.1,0.6-0.3c0.2-0.1,0.3-0.3,0.4-0.5
			c0.1-0.2,0.1-0.4,0.1-0.7c0-0.3,0-0.6-0.1-0.8c-0.1-0.2-0.2-0.4-0.4-0.5c-0.2-0.1-0.4-0.2-0.6-0.3s-0.5-0.1-0.8-0.1h-5.3V30.1z"/>
		<path class="st3" d="M170.1,34.6c0.5,0,0.9,0,1.3-0.1c0.4-0.1,0.8-0.2,1.1-0.3c0.3-0.2,0.6-0.4,0.8-0.8s0.3-0.8,0.3-1.3v-6.8h1.7
			v7.2c0,0.7-0.2,1.3-0.5,1.8c-0.3,0.5-0.7,0.9-1.2,1.1c-0.5,0.3-1.1,0.5-1.7,0.6s-1.2,0.2-1.8,0.2c-0.6,0-1.2-0.1-1.9-0.2
			s-1.2-0.3-1.7-0.6c-0.5-0.3-0.9-0.7-1.3-1.1c-0.3-0.5-0.5-1.1-0.5-1.8v-7.2h1.7v6.8c0,0.5,0.1,1,0.3,1.3s0.5,0.6,0.8,0.8
			c0.3,0.2,0.7,0.3,1.1,0.3C169.2,34.6,169.7,34.6,170.1,34.6z"/>
		<path class="st3" d="M188.2,34.3v1.6H179V25.3h1.7v9H188.2z"/>
		<path class="st3" d="M191.6,25.3h1.7v10.6h-1.7V25.3z"/>
		<path class="st3" d="M199.1,28.1c0,0.3,0.1,0.6,0.4,0.7c0.3,0.2,0.6,0.3,1,0.4c0.4,0.1,0.9,0.1,1.4,0.2c0.5,0,1.1,0.1,1.7,0.1
			c0.6,0,1.1,0.1,1.7,0.2c0.5,0.1,1,0.3,1.4,0.5c0.4,0.2,0.8,0.5,1,0.9c0.3,0.4,0.4,0.9,0.4,1.5c0,0.7-0.2,1.3-0.5,1.7
			s-0.8,0.8-1.3,1.1s-1.1,0.5-1.7,0.6c-0.6,0.1-1.2,0.2-1.8,0.2c-1.1,0-2.1-0.1-3.2-0.4c-1-0.3-2-0.8-2.8-1.4l1-1.3
			c0.7,0.5,1.5,0.9,2.4,1.2c0.8,0.3,1.7,0.4,2.6,0.4c0.3,0,0.6,0,1-0.1c0.4,0,0.8-0.1,1.1-0.3c0.4-0.1,0.7-0.3,0.9-0.6
			c0.2-0.2,0.4-0.6,0.4-1c0-0.4-0.1-0.7-0.4-0.9s-0.6-0.4-1-0.5c-0.4-0.1-0.9-0.2-1.4-0.2s-1.1-0.1-1.7-0.1c-0.6,0-1.1-0.1-1.7-0.2
			c-0.5-0.1-1-0.2-1.4-0.4c-0.4-0.2-0.8-0.5-1-0.8c-0.3-0.3-0.4-0.8-0.4-1.3c0-0.6,0.2-1.1,0.5-1.5c0.3-0.4,0.7-0.7,1.2-1
			c0.5-0.2,1-0.4,1.6-0.5c0.6-0.1,1.1-0.1,1.6-0.1c1,0,2,0.1,2.9,0.4c0.9,0.3,1.8,0.7,2.6,1.3l-1,1.2c-0.7-0.4-1.4-0.7-2.2-1
			s-1.5-0.4-2.4-0.4c-0.2,0-0.5,0-0.8,0s-0.7,0.1-1,0.2s-0.6,0.2-0.8,0.4C199.2,27.5,199.1,27.8,199.1,28.1z"/>
	</g>
</g>
</svg>
